<svg width="373" height="367" viewBox="0 0 373 367" fill="none" xmlns="http://www.w3.org/2000/svg">
<rect width="153.785" height="72.9828" fill="#4F4F4F"/>
<path d="M57.3136 35.7075H55.2836L54.9616 38.3675H56.9356L56.8516 39.3615H54.8356L54.5276 41.8955H53.5476L53.8556 39.3615H51.1676L50.8596 41.8955H49.8796L50.1876 39.3615H48.2136L48.2976 38.3675H50.3136L50.6356 35.7075H48.6616L48.7456 34.7135H50.7616L51.0836 32.0955H52.0776L51.7556 34.7135H54.4296L54.7516 32.0955H55.7316L55.4096 34.7135H57.3976L57.3136 35.7075ZM53.9816 38.3675L54.3036 35.7075H51.6296L51.2936 38.3675H53.9816ZM65.7094 38.1715V39.3755H64.1974V41.8955H62.9374V39.3755H58.0794V38.3395L61.5794 32.0955H62.8954L59.5354 38.1715H62.9374V35.6655H64.1974V38.1715H65.7094ZM67.5269 32.0955H73.9109L73.8969 33.3135H68.8709V36.5335H73.3929V37.7515H68.8709V41.8955H67.5269V32.0955ZM81.938 38.1715V39.3755H80.426V41.8955H79.166V39.3755H74.308V38.3395L77.808 32.0955H79.124L75.764 38.1715H79.166V35.6655H80.426V38.1715H81.938ZM83.7554 32.0955H90.1394L90.1254 33.3135H85.0994V36.5335H89.6214V37.7515H85.0994V41.8955H83.7554V32.0955ZM98.1665 38.1715V39.3755H96.6545V41.8955H95.3945V39.3755H90.5365V38.3395L94.0365 32.0955H95.3525L91.9925 38.1715H95.3945V35.6655H96.6545V38.1715H98.1665ZM99.984 32.0955H106.368L106.354 33.3135H101.328V36.5335H105.85V37.7515H101.328V41.8955H99.984V32.0955Z" fill="white"/>
<path d="M38.2948 84.6018H47.0468V86.0098H43.4308V95.8018H41.8948V86.0098H38.2948V84.6018ZM50.9047 87.2898C52.2167 87.2898 53.2087 87.6791 53.8807 88.4578C54.5527 89.2258 54.8887 90.2978 54.8887 91.6738C54.8887 91.8871 54.8834 92.0471 54.8727 92.1538H48.1847C48.302 92.9111 48.6167 93.5138 49.1287 93.9618C49.6514 94.4098 50.2914 94.6338 51.0487 94.6338C51.55 94.6338 52.014 94.5431 52.4407 94.3618C52.878 94.1804 53.2567 93.9244 53.5767 93.5938L54.3927 94.4418C53.9767 94.8898 53.4754 95.2364 52.8887 95.4818C52.302 95.7271 51.6514 95.8498 50.9367 95.8498C50.1047 95.8498 49.3634 95.6738 48.7127 95.3218C48.0727 94.9591 47.5714 94.4524 47.2087 93.8018C46.8567 93.1511 46.6807 92.4098 46.6807 91.5778C46.6807 90.7458 46.8567 90.0098 47.2087 89.3698C47.5714 88.7191 48.0727 88.2124 48.7127 87.8498C49.3527 87.4764 50.0834 87.2898 50.9047 87.2898ZM53.5447 91.0018C53.502 90.2338 53.246 89.6311 52.7767 89.1938C52.3074 88.7458 51.6887 88.5218 50.9207 88.5218C50.174 88.5218 49.55 88.7458 49.0487 89.1938C48.558 89.6418 48.2647 90.2444 48.1687 91.0018H53.5447ZM55.4746 87.3378H57.2026L59.2986 90.4418L61.4266 87.3378H63.0746L60.2906 91.4658L63.2826 95.8018H61.5386L59.2986 92.4738L56.9466 95.8018H55.2666L58.3066 91.4658L55.4746 87.3378ZM69.6192 95.2418C68.9685 95.6578 68.3072 95.8658 67.6352 95.8658C66.9632 95.8658 66.4192 95.6684 66.0032 95.2738C65.5872 94.8684 65.3792 94.2604 65.3792 93.4498V88.7618H64.1792V87.6258H65.3792V85.3538H66.8832V87.6258H69.4752V88.7618H66.8832V93.1778C66.8832 93.6471 66.9685 93.9831 67.1392 94.1858C67.3099 94.3884 67.5659 94.4898 67.9072 94.4898C68.3125 94.4898 68.7499 94.3564 69.2192 94.0898L69.6192 95.2418ZM83.8781 87.2898C83.4514 86.8418 82.9554 86.4951 82.3901 86.2498C81.8247 85.9938 81.2434 85.8658 80.6461 85.8658C79.8567 85.8658 79.1314 86.0578 78.4701 86.4418C77.8087 86.8258 77.2861 87.3484 76.9021 88.0098C76.5181 88.6604 76.3261 89.3804 76.3261 90.1698C76.3261 90.9484 76.5181 91.6684 76.9021 92.3298C77.2861 92.9911 77.8087 93.5138 78.4701 93.8978C79.1314 94.2818 79.8567 94.4738 80.6461 94.4738C81.2327 94.4738 81.8087 94.3564 82.3741 94.1218C82.9394 93.8764 83.4407 93.5458 83.8781 93.1298L84.8061 94.1378C84.2407 94.6924 83.5847 95.1298 82.8381 95.4498C82.0914 95.7591 81.3341 95.9138 80.5661 95.9138C79.4994 95.9138 78.5234 95.6631 77.6381 95.1618C76.7527 94.6498 76.0541 93.9564 75.5421 93.0818C75.0301 92.2071 74.7741 91.2418 74.7741 90.1858C74.7741 89.1404 75.0301 88.1858 75.5421 87.3218C76.0647 86.4471 76.7741 85.7591 77.6701 85.2578C78.5661 84.7564 79.5527 84.5058 80.6301 84.5058C81.4087 84.5058 82.1607 84.6551 82.8861 84.9538C83.6221 85.2418 84.2567 85.6524 84.7901 86.1858L83.8781 87.2898ZM90.0796 87.2898C90.9222 87.2898 91.6689 87.4711 92.3196 87.8338C92.9809 88.1964 93.4929 88.7031 93.8556 89.3538C94.2289 89.9938 94.4156 90.7298 94.4156 91.5618C94.4156 92.3938 94.2289 93.1351 93.8556 93.7858C93.4929 94.4364 92.9809 94.9431 92.3196 95.3058C91.6689 95.6684 90.9222 95.8498 90.0796 95.8498C89.2262 95.8498 88.4689 95.6684 87.8076 95.3058C87.1569 94.9431 86.6449 94.4418 86.2716 93.8018C85.9089 93.1511 85.7276 92.4044 85.7276 91.5618C85.7276 90.7298 85.9089 89.9938 86.2716 89.3538C86.6449 88.7031 87.1569 88.1964 87.8076 87.8338C88.4689 87.4711 89.2262 87.2898 90.0796 87.2898ZM90.0796 88.5858C89.5249 88.5858 89.0289 88.7138 88.5916 88.9698C88.1649 89.2258 87.8289 89.5831 87.5836 90.0418C87.3489 90.4898 87.2316 91.0018 87.2316 91.5778C87.2316 92.1644 87.3489 92.6871 87.5836 93.1458C87.8289 93.6044 88.1649 93.9618 88.5916 94.2178C89.0289 94.4631 89.5249 94.5858 90.0796 94.5858C90.6236 94.5858 91.1089 94.4631 91.5356 94.2178C91.9729 93.9618 92.3089 93.6044 92.5436 93.1458C92.7889 92.6871 92.9116 92.1644 92.9116 91.5778C92.9116 91.0018 92.7889 90.4898 92.5436 90.0418C92.3089 89.5831 91.9729 89.2258 91.5356 88.9698C91.1089 88.7138 90.6236 88.5858 90.0796 88.5858ZM96.5771 83.9298H98.0651V95.8018H96.5771V83.9298ZM104.58 87.2898C105.422 87.2898 106.169 87.4711 106.82 87.8338C107.481 88.1964 107.993 88.7031 108.356 89.3538C108.729 89.9938 108.916 90.7298 108.916 91.5618C108.916 92.3938 108.729 93.1351 108.356 93.7858C107.993 94.4364 107.481 94.9431 106.82 95.3058C106.169 95.6684 105.422 95.8498 104.58 95.8498C103.726 95.8498 102.969 95.6684 102.308 95.3058C101.657 94.9431 101.145 94.4418 100.772 93.8018C100.409 93.1511 100.228 92.4044 100.228 91.5618C100.228 90.7298 100.409 89.9938 100.772 89.3538C101.145 88.7031 101.657 88.1964 102.308 87.8338C102.969 87.4711 103.726 87.2898 104.58 87.2898ZM104.58 88.5858C104.025 88.5858 103.529 88.7138 103.092 88.9698C102.665 89.2258 102.329 89.5831 102.084 90.0418C101.849 90.4898 101.732 91.0018 101.732 91.5778C101.732 92.1644 101.849 92.6871 102.084 93.1458C102.329 93.6044 102.665 93.9618 103.092 94.2178C103.529 94.4631 104.025 94.5858 104.58 94.5858C105.124 94.5858 105.609 94.4631 106.036 94.2178C106.473 93.9618 106.809 93.6044 107.044 93.1458C107.289 92.6871 107.412 92.1644 107.412 91.5778C107.412 91.0018 107.289 90.4898 107.044 90.0418C106.809 89.5831 106.473 89.2258 106.036 88.9698C105.609 88.7138 105.124 88.5858 104.58 88.5858ZM112.485 89.1618C112.762 88.5538 113.157 88.0951 113.669 87.7858C114.181 87.4658 114.789 87.3004 115.493 87.2898V88.7298C114.629 88.6978 113.93 88.9218 113.397 89.4018C112.864 89.8818 112.56 90.5271 112.485 91.3378V95.8018H110.997V87.3378H112.485V89.1618Z" fill="#333333"/>
<rect y="130.326" width="153.785" height="72.9828" fill="#CC198F"/>
<path d="M52.8783 166.033H50.8483L50.5263 168.693H52.5003L52.4163 169.687H50.4003L50.0923 172.221H49.1123L49.4203 169.687H46.7323L46.4243 172.221H45.4443L45.7523 169.687H43.7783L43.8623 168.693H45.8783L46.2003 166.033H44.2263L44.3103 165.039H46.3263L46.6483 162.421H47.6423L47.3203 165.039H49.9943L50.3163 162.421H51.2963L50.9743 165.039H52.9623L52.8783 166.033ZM49.5463 168.693L49.8683 166.033H47.1943L46.8583 168.693H49.5463ZM61.9182 164.773C61.5449 164.381 61.1109 164.077 60.6162 163.863C60.1215 163.639 59.6129 163.527 59.0902 163.527C58.3995 163.527 57.7649 163.695 57.1862 164.031C56.6075 164.367 56.1502 164.824 55.8142 165.403C55.4782 165.972 55.3102 166.602 55.3102 167.293C55.3102 167.974 55.4782 168.604 55.8142 169.183C56.1502 169.761 56.6075 170.219 57.1862 170.555C57.7649 170.891 58.3995 171.059 59.0902 171.059C59.6035 171.059 60.1075 170.956 60.6022 170.751C61.0969 170.536 61.5355 170.247 61.9182 169.883L62.7302 170.765C62.2355 171.25 61.6615 171.633 61.0082 171.913C60.3549 172.183 59.6922 172.319 59.0202 172.319C58.0869 172.319 57.2329 172.099 56.4582 171.661C55.6835 171.213 55.0722 170.606 54.6242 169.841C54.1762 169.075 53.9522 168.231 53.9522 167.307C53.9522 166.392 54.1762 165.557 54.6242 164.801C55.0815 164.035 55.7022 163.433 56.4862 162.995C57.2702 162.556 58.1335 162.337 59.0762 162.337C59.7575 162.337 60.4155 162.467 61.0502 162.729C61.6942 162.981 62.2495 163.34 62.7162 163.807L61.9182 164.773ZM71.4885 164.773C71.1152 164.381 70.6812 164.077 70.1865 163.863C69.6918 163.639 69.1832 163.527 68.6605 163.527C67.9698 163.527 67.3352 163.695 66.7565 164.031C66.1778 164.367 65.7205 164.824 65.3845 165.403C65.0485 165.972 64.8805 166.602 64.8805 167.293C64.8805 167.974 65.0485 168.604 65.3845 169.183C65.7205 169.761 66.1778 170.219 66.7565 170.555C67.3352 170.891 67.9698 171.059 68.6605 171.059C69.1738 171.059 69.6778 170.956 70.1725 170.751C70.6672 170.536 71.1058 170.247 71.4885 169.883L72.3005 170.765C71.8058 171.25 71.2318 171.633 70.5785 171.913C69.9252 172.183 69.2625 172.319 68.5905 172.319C67.6572 172.319 66.8032 172.099 66.0285 171.661C65.2538 171.213 64.6425 170.606 64.1945 169.841C63.7465 169.075 63.5225 168.231 63.5225 167.307C63.5225 166.392 63.7465 165.557 64.1945 164.801C64.6518 164.035 65.2725 163.433 66.0565 162.995C66.8405 162.556 67.7038 162.337 68.6465 162.337C69.3278 162.337 69.9858 162.467 70.6205 162.729C71.2645 162.981 71.8198 163.34 72.2865 163.807L71.4885 164.773ZM72.8636 162.421H76.4336V172.221H75.0896V163.639H72.8636V162.421ZM79.6135 170.541C79.9309 170.737 80.2809 170.891 80.6635 171.003C81.0555 171.105 81.4429 171.157 81.8255 171.157C82.7589 171.157 83.4729 170.83 83.9675 170.177C84.4715 169.514 84.7235 168.613 84.7235 167.475C84.7235 167.297 84.7189 167.162 84.7095 167.069C84.4762 167.61 84.1169 168.021 83.6315 168.301C83.1555 168.581 82.5769 168.721 81.8955 168.721C80.9249 168.721 80.1595 168.441 79.5995 167.881C79.0395 167.321 78.7595 166.565 78.7595 165.613C78.7595 164.95 78.8995 164.376 79.1795 163.891C79.4595 163.396 79.8515 163.018 80.3555 162.757C80.8689 162.495 81.4615 162.365 82.1335 162.365C82.9362 162.365 83.6315 162.551 84.2195 162.925C84.8075 163.298 85.2555 163.839 85.5635 164.549C85.8809 165.258 86.0395 166.107 86.0395 167.097C86.0395 168.133 85.8715 169.043 85.5355 169.827C85.1995 170.611 84.7189 171.217 84.0935 171.647C83.4682 172.076 82.7402 172.291 81.9095 172.291C81.4522 172.291 80.9669 172.225 80.4535 172.095C79.9402 171.955 79.4829 171.777 79.0815 171.563L79.6135 170.541ZM82.2175 163.527C81.5549 163.527 81.0229 163.713 80.6215 164.087C80.2202 164.46 80.0195 164.973 80.0195 165.627C80.0195 166.243 80.2109 166.733 80.5935 167.097C80.9762 167.461 81.4895 167.643 82.1335 167.643C82.6095 167.643 83.0202 167.549 83.3655 167.363C83.7202 167.167 83.9909 166.91 84.1775 166.593C84.3642 166.266 84.4575 165.916 84.4575 165.543C84.4575 165.225 84.3735 164.913 84.2055 164.605C84.0469 164.287 83.7995 164.031 83.4635 163.835C83.1275 163.629 82.7122 163.527 82.2175 163.527ZM91.2866 162.365C92.2759 162.365 93.0553 162.589 93.6246 163.037C94.1939 163.475 94.4786 164.082 94.4786 164.857C94.4786 165.342 94.3433 165.771 94.0726 166.145C93.8113 166.509 93.4426 166.789 92.9666 166.985C93.5919 167.181 94.0819 167.498 94.4366 167.937C94.7913 168.366 94.9686 168.879 94.9686 169.477C94.9686 170.345 94.6373 171.031 93.9746 171.535C93.3213 172.039 92.4299 172.291 91.3006 172.291C90.1713 172.291 89.2753 172.043 88.6126 171.549C87.9593 171.045 87.6326 170.363 87.6326 169.505C87.6326 168.898 87.8146 168.375 88.1786 167.937C88.5426 167.498 89.0466 167.181 89.6906 166.985C89.1866 166.77 88.7946 166.481 88.5146 166.117C88.2439 165.743 88.1086 165.309 88.1086 164.815C88.1086 164.059 88.3933 163.461 88.9626 163.023C89.5319 162.584 90.3066 162.365 91.2866 162.365ZM91.3006 163.345C90.6566 163.345 90.1526 163.485 89.7886 163.765C89.4339 164.045 89.2566 164.432 89.2566 164.927C89.2566 165.431 89.4339 165.823 89.7886 166.103C90.1526 166.383 90.6566 166.523 91.3006 166.523C91.9446 166.523 92.4439 166.383 92.7986 166.103C93.1533 165.823 93.3306 165.431 93.3306 164.927C93.3306 164.432 93.1533 164.045 92.7986 163.765C92.4439 163.485 91.9446 163.345 91.3006 163.345ZM91.2866 167.587C90.5399 167.587 89.9566 167.745 89.5366 168.063C89.1166 168.371 88.9066 168.8 88.9066 169.351C88.9066 169.939 89.1166 170.396 89.5366 170.723C89.9566 171.049 90.5446 171.213 91.3006 171.213C92.0473 171.213 92.6306 171.049 93.0506 170.723C93.4799 170.396 93.6946 169.943 93.6946 169.365C93.6946 168.814 93.4799 168.38 93.0506 168.063C92.6306 167.745 92.0426 167.587 91.2866 167.587ZM97.121 162.421H103.505L103.491 163.639H98.465V166.859H102.987V168.077H98.465V172.221H97.121V162.421Z" fill="white"/>
<path d="M10.8078 217.617C10.3811 217.169 9.88509 216.822 9.31976 216.577C8.75442 216.321 8.17309 216.193 7.57576 216.193C6.78642 216.193 6.06109 216.385 5.39976 216.769C4.73842 217.153 4.21576 217.676 3.83176 218.337C3.44776 218.988 3.25576 219.708 3.25576 220.497C3.25576 221.276 3.44776 221.996 3.83176 222.657C4.21576 223.318 4.73842 223.841 5.39976 224.225C6.06109 224.609 6.78642 224.801 7.57576 224.801C8.16242 224.801 8.73842 224.684 9.30376 224.449C9.86909 224.204 10.3704 223.873 10.8078 223.457L11.7358 224.465C11.1704 225.02 10.5144 225.457 9.76776 225.777C9.02109 226.086 8.26376 226.241 7.49576 226.241C6.42909 226.241 5.45309 225.99 4.56776 225.489C3.68242 224.977 2.98376 224.284 2.47176 223.409C1.95976 222.534 1.70376 221.569 1.70376 220.513C1.70376 219.468 1.95976 218.513 2.47176 217.649C2.99442 216.774 3.70376 216.086 4.59976 215.585C5.49576 215.084 6.48242 214.833 7.55976 214.833C8.33842 214.833 9.09042 214.982 9.81576 215.281C10.5518 215.569 11.1864 215.98 11.7198 216.513L10.8078 217.617ZM12.4433 214.929H21.1953V216.337H17.5793V226.129H16.0433V216.337H12.4433V214.929ZM30.2033 226.129L29.0193 223.409H23.1153L21.9473 226.129H20.3313L25.3073 214.929H26.9073L31.8673 226.129H30.2033ZM23.7233 222.017H28.4273L26.0593 216.577L23.7233 222.017ZM42.2401 217.617C43.0295 217.617 43.7335 217.798 44.3521 218.161C44.9708 218.524 45.4508 219.03 45.7921 219.681C46.1335 220.332 46.3041 221.078 46.3041 221.921C46.3041 222.753 46.1335 223.494 45.7921 224.145C45.4615 224.785 44.9868 225.286 44.3681 225.649C43.7601 226.001 43.0615 226.177 42.2721 226.177C41.5575 226.177 40.9281 226.028 40.3841 225.729C39.8401 225.43 39.4135 225.004 39.1041 224.449V226.129H37.6161V214.257H39.1041V219.345C39.4135 218.79 39.8348 218.364 40.3681 218.065C40.9121 217.766 41.5361 217.617 42.2401 217.617ZM41.9521 224.881C42.4961 224.881 42.9815 224.753 43.4081 224.497C43.8455 224.241 44.1815 223.884 44.4161 223.425C44.6615 222.966 44.7841 222.449 44.7841 221.873C44.7841 221.308 44.6615 220.796 44.4161 220.337C44.1708 219.878 43.8348 219.521 43.4081 219.265C42.9815 219.009 42.4961 218.881 41.9521 218.881C41.4081 218.881 40.9175 219.009 40.4801 219.265C40.0535 219.521 39.7175 219.878 39.4721 220.337C39.2268 220.796 39.1041 221.308 39.1041 221.873C39.1041 222.46 39.2268 222.982 39.4721 223.441C39.7175 223.889 40.0535 224.241 40.4801 224.497C40.9175 224.753 41.4081 224.881 41.9521 224.881ZM55.8679 217.665V226.129H54.3639V224.337C53.8092 225.542 52.7639 226.156 51.2279 226.177C50.2465 226.177 49.4785 225.889 48.9239 225.313C48.3692 224.726 48.0919 223.921 48.0919 222.897V217.665H49.5959V222.497C49.5959 223.212 49.7879 223.772 50.1719 224.177C50.5665 224.572 51.1052 224.769 51.7879 224.769C52.5772 224.758 53.2012 224.481 53.6599 223.937C54.1292 223.382 54.3639 222.678 54.3639 221.825V217.665H55.8679ZM63.3145 225.569C62.6638 225.985 62.0025 226.193 61.3305 226.193C60.6585 226.193 60.1145 225.996 59.6985 225.601C59.2825 225.196 59.0745 224.588 59.0745 223.777V219.089H57.8745V217.953H59.0745V215.681H60.5785V217.953H63.1705V219.089H60.5785V223.505C60.5785 223.974 60.6638 224.31 60.8345 224.513C61.0052 224.716 61.2612 224.817 61.6025 224.817C62.0078 224.817 62.4452 224.684 62.9145 224.417L63.3145 225.569ZM69.6739 225.569C69.0232 225.985 68.3619 226.193 67.6899 226.193C67.0179 226.193 66.4739 225.996 66.0579 225.601C65.6419 225.196 65.4339 224.588 65.4339 223.777V219.089H64.2339V217.953H65.4339V215.681H66.9379V217.953H69.5299V219.089H66.9379V223.505C66.9379 223.974 67.0232 224.31 67.1939 224.513C67.3645 224.716 67.6205 224.817 67.9619 224.817C68.3672 224.817 68.8045 224.684 69.2739 224.417L69.6739 225.569ZM74.8999 217.617C75.7425 217.617 76.4892 217.798 77.1399 218.161C77.8012 218.524 78.3132 219.03 78.6759 219.681C79.0492 220.321 79.2359 221.057 79.2359 221.889C79.2359 222.721 79.0492 223.462 78.6759 224.113C78.3132 224.764 77.8012 225.27 77.1399 225.633C76.4892 225.996 75.7425 226.177 74.8999 226.177C74.0465 226.177 73.2892 225.996 72.6279 225.633C71.9772 225.27 71.4652 224.769 71.0919 224.129C70.7292 223.478 70.5479 222.732 70.5479 221.889C70.5479 221.057 70.7292 220.321 71.0919 219.681C71.4652 219.03 71.9772 218.524 72.6279 218.161C73.2892 217.798 74.0465 217.617 74.8999 217.617ZM74.8999 218.913C74.3452 218.913 73.8492 219.041 73.4119 219.297C72.9852 219.553 72.6492 219.91 72.4039 220.369C72.1692 220.817 72.0519 221.329 72.0519 221.905C72.0519 222.492 72.1692 223.014 72.4039 223.473C72.6492 223.932 72.9852 224.289 73.4119 224.545C73.8492 224.79 74.3452 224.913 74.8999 224.913C75.4439 224.913 75.9292 224.79 76.3559 224.545C76.7932 224.289 77.1292 223.932 77.3639 223.473C77.6092 223.014 77.7319 222.492 77.7319 221.905C77.7319 221.329 77.6092 220.817 77.3639 220.369C77.1292 219.91 76.7932 219.553 76.3559 219.297C75.9292 219.041 75.4439 218.913 74.8999 218.913ZM86.0214 217.617C87.0134 217.617 87.792 217.91 88.3574 218.497C88.9227 219.073 89.2054 219.873 89.2054 220.897V226.129H87.7174V221.297C87.7174 220.582 87.5147 220.028 87.1094 219.633C86.7147 219.228 86.1654 219.025 85.4614 219.025C84.704 219.036 84.0854 219.281 83.6054 219.761C83.136 220.23 82.8694 220.844 82.8054 221.601V226.129H81.3174V217.665H82.8054V219.457C83.3707 218.252 84.4427 217.638 86.0214 217.617ZM96.4883 219.537C96.1363 219.324 95.7469 219.153 95.3203 219.025C94.9043 218.897 94.5043 218.833 94.1203 218.833C93.6723 218.833 93.3096 218.918 93.0323 219.089C92.7656 219.249 92.6323 219.5 92.6323 219.841C92.6323 220.182 92.7816 220.444 93.0803 220.625C93.3896 220.796 93.8536 220.972 94.4723 221.153C95.0589 221.324 95.5389 221.494 95.9123 221.665C96.2856 221.836 96.6003 222.086 96.8563 222.417C97.1229 222.748 97.2563 223.185 97.2563 223.729C97.2563 224.529 96.9523 225.137 96.3443 225.553C95.7469 225.969 95.0003 226.177 94.1043 226.177C93.4749 226.177 92.8616 226.076 92.2643 225.873C91.6776 225.67 91.1816 225.382 90.7763 225.009L91.3363 223.921C91.6883 224.241 92.1203 224.497 92.6323 224.689C93.1549 224.881 93.6616 224.977 94.1523 224.977C94.6429 224.977 95.0376 224.886 95.3363 224.705C95.6349 224.524 95.7843 224.246 95.7843 223.873C95.7843 223.489 95.6243 223.201 95.3043 223.009C94.9949 222.817 94.5203 222.625 93.8803 222.433C93.3149 222.273 92.8509 222.113 92.4883 221.953C92.1363 221.782 91.8323 221.537 91.5763 221.217C91.3309 220.897 91.2083 220.481 91.2083 219.969C91.2083 219.18 91.4963 218.588 92.0723 218.193C92.6483 217.798 93.3683 217.601 94.2323 217.601C94.7443 217.601 95.2456 217.676 95.7363 217.825C96.2376 217.964 96.6696 218.156 97.0323 218.401L96.4883 219.537ZM111.539 226.369L109.715 224.577C109.214 225.1 108.67 225.5 108.083 225.777C107.507 226.054 106.91 226.193 106.291 226.193C105.662 226.193 105.086 226.06 104.563 225.793C104.04 225.526 103.624 225.158 103.315 224.689C103.016 224.209 102.867 223.676 102.867 223.089C102.867 222.364 103.086 221.766 103.523 221.297C103.971 220.817 104.584 220.369 105.363 219.953C104.979 219.452 104.696 218.993 104.515 218.577C104.334 218.15 104.243 217.734 104.243 217.329C104.243 216.604 104.504 216.012 105.027 215.553C105.55 215.094 106.227 214.865 107.059 214.865C107.859 214.865 108.51 215.078 109.011 215.505C109.512 215.932 109.763 216.481 109.763 217.153C109.763 217.633 109.635 218.06 109.379 218.433C109.134 218.796 108.819 219.11 108.435 219.377C108.062 219.633 107.587 219.91 107.011 220.209C107.544 220.828 108.403 221.724 109.587 222.897C110.014 222.246 110.371 221.542 110.659 220.785L111.651 221.521C111.32 222.31 110.915 223.046 110.435 223.729L112.323 225.569L111.539 226.369ZM105.459 217.313C105.459 217.9 105.763 218.609 106.371 219.441C107.086 219.068 107.624 218.716 107.987 218.385C108.36 218.054 108.547 217.649 108.547 217.169C108.547 216.764 108.414 216.438 108.147 216.193C107.88 215.948 107.523 215.825 107.075 215.825C106.584 215.825 106.19 215.969 105.891 216.257C105.603 216.534 105.459 216.886 105.459 217.313ZM106.339 225.041C107.224 225.041 108.078 224.614 108.899 223.761C107.64 222.513 106.675 221.505 106.003 220.737C105.406 221.068 104.942 221.409 104.611 221.761C104.291 222.113 104.131 222.524 104.131 222.993C104.131 223.59 104.344 224.081 104.771 224.465C105.198 224.849 105.72 225.041 106.339 225.041ZM118.163 214.257H119.651V226.129H118.163V214.257ZM122.646 217.665H124.134V226.129H122.646V217.665ZM123.382 214.289C123.648 214.289 123.867 214.38 124.038 214.561C124.219 214.742 124.31 214.972 124.31 215.249C124.31 215.526 124.219 215.756 124.038 215.937C123.867 216.118 123.648 216.209 123.382 216.209C123.115 216.209 122.891 216.118 122.71 215.937C122.539 215.756 122.454 215.526 122.454 215.249C122.454 214.972 122.539 214.742 122.71 214.561C122.891 214.38 123.115 214.289 123.382 214.289ZM131.74 217.617C132.732 217.617 133.511 217.91 134.076 218.497C134.641 219.073 134.924 219.873 134.924 220.897V226.129H133.436V221.297C133.436 220.582 133.233 220.028 132.828 219.633C132.433 219.228 131.884 219.025 131.18 219.025C130.423 219.036 129.804 219.281 129.324 219.761C128.855 220.23 128.588 220.844 128.524 221.601V226.129H127.036V217.665H128.524V219.457C129.089 218.252 130.161 217.638 131.74 217.617ZM143.503 226.129L140.799 222.017L139.151 223.729V226.129H137.663V214.257H139.151V221.825L143.247 217.665H144.991L141.839 220.945L145.295 226.129H143.503ZM151.41 219.537C151.058 219.324 150.669 219.153 150.242 219.025C149.826 218.897 149.426 218.833 149.042 218.833C148.594 218.833 148.231 218.918 147.954 219.089C147.687 219.249 147.554 219.5 147.554 219.841C147.554 220.182 147.703 220.444 148.002 220.625C148.311 220.796 148.775 220.972 149.394 221.153C149.981 221.324 150.461 221.494 150.834 221.665C151.207 221.836 151.522 222.086 151.778 222.417C152.045 222.748 152.178 223.185 152.178 223.729C152.178 224.529 151.874 225.137 151.266 225.553C150.669 225.969 149.922 226.177 149.026 226.177C148.397 226.177 147.783 226.076 147.186 225.873C146.599 225.67 146.103 225.382 145.698 225.009L146.258 223.921C146.61 224.241 147.042 224.497 147.554 224.689C148.077 224.881 148.583 224.977 149.074 224.977C149.565 224.977 149.959 224.886 150.258 224.705C150.557 224.524 150.706 224.246 150.706 223.873C150.706 223.489 150.546 223.201 150.226 223.009C149.917 222.817 149.442 222.625 148.802 222.433C148.237 222.273 147.773 222.113 147.41 221.953C147.058 221.782 146.754 221.537 146.498 221.217C146.253 220.897 146.13 220.481 146.13 219.969C146.13 219.18 146.418 218.588 146.994 218.193C147.57 217.798 148.29 217.601 149.154 217.601C149.666 217.601 150.167 217.676 150.658 217.825C151.159 217.964 151.591 218.156 151.954 218.401L151.41 219.537Z" fill="#333333"/>
<rect y="260.652" width="153.785" height="72.9828" fill="#D7FDF6"/>
<path d="M50.6567 296.361H48.6267L48.3047 299.021H50.2787L50.1947 300.015H48.1787L47.8707 302.549H46.8907L47.1987 300.015H44.5107L44.2027 302.549H43.2227L43.5307 300.015H41.5567L41.6407 299.021H43.6567L43.9787 296.361H42.0047L42.0887 295.367H44.1047L44.4267 292.749H45.4207L45.0987 295.367H47.7727L48.0947 292.749H49.0747L48.7527 295.367H50.7407L50.6567 296.361ZM47.3247 299.021L47.6467 296.361H44.9727L44.6367 299.021H47.3247ZM56.5885 292.749C57.5405 292.749 58.3992 292.963 59.1645 293.393C59.9392 293.813 60.5458 294.396 60.9845 295.143C61.4232 295.889 61.6425 296.725 61.6425 297.649C61.6425 298.573 61.4185 299.408 60.9705 300.155C60.5318 300.901 59.9252 301.489 59.1505 301.919C58.3758 302.339 57.5078 302.549 56.5465 302.549H52.5985V292.749H56.5885ZM56.6165 301.331C57.2978 301.331 57.9138 301.172 58.4645 300.855C59.0245 300.537 59.4632 300.099 59.7805 299.539C60.1072 298.979 60.2705 298.353 60.2705 297.663C60.2705 296.963 60.1072 296.333 59.7805 295.773C59.4538 295.213 59.0058 294.774 58.4365 294.457C57.8765 294.13 57.2512 293.967 56.5605 293.967H53.9425V301.331H56.6165ZM62.3594 292.749H69.6954V293.799L65.4254 302.549H63.9974L68.1834 293.967H63.5774L63.5634 295.381H62.3594V292.749ZM71.5067 292.749H77.8907L77.8767 293.967H72.8507V297.187H77.3727V298.405H72.8507V302.549H71.5067V292.749ZM83.4537 292.749C84.4057 292.749 85.2644 292.963 86.0297 293.393C86.8044 293.813 87.4111 294.396 87.8497 295.143C88.2884 295.889 88.5077 296.725 88.5077 297.649C88.5077 298.573 88.2837 299.408 87.8357 300.155C87.3971 300.901 86.7904 301.489 86.0157 301.919C85.2411 302.339 84.3731 302.549 83.4117 302.549H79.4637V292.749H83.4537ZM83.4817 301.331C84.1631 301.331 84.7791 301.172 85.3297 300.855C85.8897 300.537 86.3284 300.099 86.6457 299.539C86.9724 298.979 87.1357 298.353 87.1357 297.663C87.1357 296.963 86.9724 296.333 86.6457 295.773C86.3191 295.213 85.8711 294.774 85.3017 294.457C84.7417 294.13 84.1164 293.967 83.4257 293.967H80.8077V301.331H83.4817ZM90.4286 292.749H96.8126L96.7986 293.967H91.7726V297.187H96.2946V298.405H91.7726V302.549H90.4286V292.749ZM104.308 294.429C104 294.233 103.645 294.083 103.244 293.981C102.852 293.869 102.464 293.813 102.082 293.813C101.139 293.813 100.416 294.139 99.9116 294.793C99.4076 295.446 99.1556 296.342 99.1556 297.481C99.1556 297.658 99.1603 297.793 99.1696 297.887C99.4123 297.355 99.7763 296.949 100.262 296.669C100.747 296.389 101.33 296.249 102.012 296.249C102.992 296.249 103.762 296.529 104.322 297.089C104.891 297.649 105.176 298.405 105.176 299.357C105.176 300.019 105.036 300.598 104.756 301.093C104.476 301.578 104.079 301.956 103.566 302.227C103.052 302.488 102.455 302.619 101.774 302.619C100.962 302.619 100.257 302.432 99.6596 302.059C99.0716 301.685 98.619 301.144 98.3016 300.435C97.9936 299.716 97.8396 298.857 97.8396 297.859C97.8396 296.823 98.0076 295.917 98.3436 295.143C98.689 294.359 99.1696 293.757 99.7856 293.337C100.411 292.907 101.144 292.693 101.984 292.693C102.45 292.693 102.94 292.758 103.454 292.889C103.976 293.019 104.438 293.192 104.84 293.407L104.308 294.429ZM101.774 297.327C101.298 297.327 100.882 297.425 100.528 297.621C100.173 297.807 99.8976 298.059 99.7016 298.377C99.515 298.694 99.4263 299.039 99.4356 299.413C99.4263 299.739 99.5056 300.057 99.6736 300.365C99.8416 300.673 100.094 300.929 100.43 301.135C100.775 301.34 101.195 301.443 101.69 301.443C102.362 301.443 102.898 301.256 103.3 300.883C103.71 300.509 103.916 299.996 103.916 299.343C103.916 298.727 103.72 298.237 103.328 297.873C102.945 297.509 102.427 297.327 101.774 297.327Z" fill="#333333"/>
<path d="M13.2766 344.733C14.418 344.733 15.314 344.983 15.9646 345.485C16.626 345.975 16.9566 346.658 16.9566 347.533C16.9566 348.173 16.7753 348.717 16.4126 349.165C16.05 349.602 15.554 349.895 14.9246 350.045C15.7033 350.162 16.3113 350.477 16.7486 350.989C17.1966 351.49 17.4206 352.119 17.4206 352.877C17.4206 353.837 17.058 354.589 16.3326 355.133C15.618 355.666 14.626 355.933 13.3566 355.933H8.49263V344.733H13.2766ZM13.1966 349.485C13.89 349.485 14.4233 349.341 14.7966 349.053C15.1806 348.754 15.3726 348.333 15.3726 347.789C15.3726 347.255 15.1806 346.845 14.7966 346.557C14.4233 346.269 13.89 346.13 13.1966 346.141H10.0286V349.485H13.1966ZM13.1966 354.525C14.0286 354.535 14.6793 354.381 15.1486 354.061C15.618 353.73 15.8526 353.271 15.8526 352.685C15.8526 352.119 15.618 351.677 15.1486 351.357C14.6793 351.037 14.0286 350.877 13.1966 350.877H10.0286V354.525H13.1966ZM24.9073 355.933V354.749C24.2779 355.581 23.2913 355.997 21.9473 355.997C21.3606 355.997 20.8433 355.885 20.3953 355.661C19.9579 355.437 19.6166 355.127 19.3713 354.733C19.1366 354.338 19.0193 353.895 19.0193 353.405C19.0193 352.647 19.2966 352.05 19.8513 351.613C20.4166 351.165 21.2006 350.935 22.2033 350.925H24.8913V350.525C24.8913 349.927 24.7046 349.469 24.3313 349.149C23.9686 348.818 23.4353 348.653 22.7313 348.653C21.8779 348.653 21.0086 348.957 20.1233 349.565L19.4993 348.541C20.1073 348.146 20.6673 347.863 21.1793 347.693C21.7019 347.511 22.3206 347.421 23.0353 347.421C24.0913 347.421 24.9073 347.682 25.4833 348.205C26.0593 348.717 26.3526 349.437 26.3633 350.365L26.3793 355.933H24.9073ZM22.2513 354.765C22.9446 354.765 23.5313 354.599 24.0113 354.269C24.5019 353.927 24.7953 353.479 24.8913 352.925V352.077H22.4113C21.7393 352.077 21.2379 352.178 20.9073 352.381C20.5873 352.583 20.4273 352.903 20.4273 353.341C20.4273 353.778 20.5926 354.125 20.9233 354.381C21.2539 354.637 21.6966 354.765 22.2513 354.765ZM34.9721 349.725C34.3001 349.074 33.4948 348.749 32.5561 348.749C32.0015 348.749 31.5055 348.871 31.0681 349.117C30.6415 349.362 30.3055 349.709 30.0601 350.157C29.8148 350.605 29.6921 351.122 29.6921 351.709C29.6921 352.295 29.8095 352.813 30.0441 353.261C30.2895 353.709 30.6201 354.061 31.0361 354.317C31.4628 354.562 31.9481 354.685 32.4921 354.685C33.0361 354.685 33.5268 354.594 33.9641 354.413C34.4015 354.231 34.7641 353.97 35.0521 353.629L35.9001 354.493C35.5161 354.973 35.0255 355.341 34.4281 355.597C33.8415 355.853 33.1748 355.981 32.4281 355.981C31.6068 355.981 30.8761 355.799 30.2361 355.437C29.5961 355.074 29.0948 354.573 28.7321 353.933C28.3801 353.282 28.2041 352.541 28.2041 351.709C28.2041 350.877 28.3801 350.135 28.7321 349.485C29.0948 348.834 29.5961 348.327 30.2361 347.965C30.8761 347.602 31.6068 347.421 32.4281 347.421C33.1428 347.421 33.7828 347.533 34.3481 347.757C34.9241 347.97 35.4041 348.285 35.7881 348.701L34.9721 349.725ZM43.9405 355.933L41.2365 351.821L39.5885 353.533V355.933H38.1005V344.061H39.5885V351.629L43.6845 347.469H45.4285L42.2765 350.749L45.7325 355.933H43.9405ZM54.4304 347.469V355.069C54.4304 355.879 54.249 356.589 53.8864 357.197C53.5344 357.805 53.033 358.269 52.3824 358.589C51.7317 358.919 50.9744 359.085 50.1104 359.085C48.8624 359.085 47.6997 358.69 46.6224 357.901L47.2784 356.813C47.6944 357.154 48.1264 357.405 48.5744 357.565C49.0224 357.735 49.513 357.821 50.0464 357.821C50.921 357.821 51.6197 357.575 52.1424 357.085C52.665 356.594 52.9264 355.938 52.9264 355.117V353.933C52.6277 354.445 52.2224 354.845 51.7104 355.133C51.1984 355.41 50.6117 355.549 49.9504 355.549C49.193 355.549 48.521 355.378 47.9344 355.037C47.3584 354.685 46.9104 354.199 46.5904 353.581C46.2704 352.962 46.1104 352.253 46.1104 351.453C46.1104 350.663 46.2704 349.965 46.5904 349.357C46.9104 348.749 47.3584 348.274 47.9344 347.933C48.521 347.591 49.193 347.421 49.9504 347.421C50.6224 347.421 51.209 347.559 51.7104 347.837C52.2224 348.114 52.6277 348.509 52.9264 349.021V347.469H54.4304ZM50.2384 354.349C50.761 354.349 51.225 354.226 51.6304 353.981C52.0357 353.735 52.3504 353.399 52.5744 352.973C52.809 352.535 52.9264 352.045 52.9264 351.501C52.9264 350.946 52.809 350.455 52.5744 350.029C52.3504 349.591 52.0357 349.25 51.6304 349.005C51.225 348.759 50.761 348.637 50.2384 348.637C49.7157 348.637 49.2464 348.759 48.8304 349.005C48.425 349.25 48.105 349.591 47.8704 350.029C47.6357 350.455 47.5184 350.946 47.5184 351.501C47.529 352.333 47.785 353.015 48.2864 353.549C48.7877 354.082 49.4384 354.349 50.2384 354.349ZM58.6335 349.293C58.9108 348.685 59.3055 348.226 59.8175 347.917C60.3295 347.597 60.9375 347.431 61.6415 347.421V348.861C60.7775 348.829 60.0788 349.053 59.5455 349.533C59.0122 350.013 58.7082 350.658 58.6335 351.469V355.933H57.1455V347.469H58.6335V349.293ZM66.7749 347.421C67.6175 347.421 68.3642 347.602 69.0149 347.965C69.6762 348.327 70.1882 348.834 70.5509 349.485C70.9242 350.125 71.1109 350.861 71.1109 351.693C71.1109 352.525 70.9242 353.266 70.5509 353.917C70.1882 354.567 69.6762 355.074 69.0149 355.437C68.3642 355.799 67.6175 355.981 66.7749 355.981C65.9215 355.981 65.1642 355.799 64.5029 355.437C63.8522 355.074 63.3402 354.573 62.9669 353.933C62.6042 353.282 62.4229 352.535 62.4229 351.693C62.4229 350.861 62.6042 350.125 62.9669 349.485C63.3402 348.834 63.8522 348.327 64.5029 347.965C65.1642 347.602 65.9215 347.421 66.7749 347.421ZM66.7749 348.717C66.2202 348.717 65.7242 348.845 65.2869 349.101C64.8602 349.357 64.5242 349.714 64.2789 350.173C64.0442 350.621 63.9269 351.133 63.9269 351.709C63.9269 352.295 64.0442 352.818 64.2789 353.277C64.5242 353.735 64.8602 354.093 65.2869 354.349C65.7242 354.594 66.2202 354.717 66.7749 354.717C67.3189 354.717 67.8042 354.594 68.2309 354.349C68.6682 354.093 69.0042 353.735 69.2389 353.277C69.4842 352.818 69.6069 352.295 69.6069 351.709C69.6069 351.133 69.4842 350.621 69.2389 350.173C69.0042 349.714 68.6682 349.357 68.2309 349.101C67.8042 348.845 67.3189 348.717 66.7749 348.717ZM80.6804 347.469V355.933H79.1764V354.141C78.6217 355.346 77.5764 355.959 76.0404 355.981C75.059 355.981 74.291 355.693 73.7364 355.117C73.1817 354.53 72.9044 353.725 72.9044 352.701V347.469H74.4084V352.301C74.4084 353.015 74.6004 353.575 74.9844 353.981C75.379 354.375 75.9177 354.573 76.6004 354.573C77.3897 354.562 78.0137 354.285 78.4724 353.741C78.9417 353.186 79.1764 352.482 79.1764 351.629V347.469H80.6804ZM88.287 347.421C89.279 347.421 90.0577 347.714 90.623 348.301C91.1883 348.877 91.471 349.677 91.471 350.701V355.933H89.983V351.101C89.983 350.386 89.7803 349.831 89.375 349.437C88.9803 349.031 88.431 348.829 87.727 348.829C86.9697 348.839 86.351 349.085 85.871 349.565C85.4017 350.034 85.135 350.647 85.071 351.405V355.933H83.583V347.469H85.071V349.261C85.6363 348.055 86.7083 347.442 88.287 347.421ZM102.018 344.061V355.933H100.53V354.253C100.21 354.818 99.7779 355.255 99.2339 355.565C98.7005 355.863 98.0765 356.013 97.3619 356.013C96.5619 356.013 95.8525 355.831 95.2339 355.469C94.6259 355.095 94.1512 354.583 93.8099 353.933C93.4685 353.271 93.2979 352.519 93.2979 351.677C93.2979 350.845 93.4685 350.109 93.8099 349.469C94.1512 348.818 94.6259 348.311 95.2339 347.949C95.8525 347.586 96.5565 347.405 97.3459 347.405C98.0712 347.405 98.7059 347.554 99.2499 347.853C99.7939 348.151 100.221 348.583 100.53 349.149V344.061H102.018ZM97.6659 354.733C98.2205 354.733 98.7112 354.605 99.1379 354.349C99.5752 354.093 99.9165 353.735 100.162 353.277C100.407 352.818 100.53 352.301 100.53 351.725C100.53 351.138 100.407 350.615 100.162 350.157C99.9165 349.698 99.5752 349.341 99.1379 349.085C98.7112 348.829 98.2205 348.701 97.6659 348.701C97.1112 348.701 96.6152 348.834 96.1779 349.101C95.7512 349.357 95.4152 349.714 95.1699 350.173C94.9245 350.631 94.8019 351.149 94.8019 351.725C94.8019 352.301 94.9245 352.818 95.1699 353.277C95.4152 353.735 95.7512 354.093 96.1779 354.349C96.6152 354.605 97.1112 354.733 97.6659 354.733ZM115.128 349.725C114.456 349.074 113.651 348.749 112.712 348.749C112.158 348.749 111.662 348.871 111.224 349.117C110.798 349.362 110.462 349.709 110.216 350.157C109.971 350.605 109.848 351.122 109.848 351.709C109.848 352.295 109.966 352.813 110.2 353.261C110.446 353.709 110.776 354.061 111.192 354.317C111.619 354.562 112.104 354.685 112.648 354.685C113.192 354.685 113.683 354.594 114.12 354.413C114.558 354.231 114.92 353.97 115.208 353.629L116.056 354.493C115.672 354.973 115.182 355.341 114.584 355.597C113.998 355.853 113.331 355.981 112.584 355.981C111.763 355.981 111.032 355.799 110.392 355.437C109.752 355.074 109.251 354.573 108.888 353.933C108.536 353.282 108.36 352.541 108.36 351.709C108.36 350.877 108.536 350.135 108.888 349.485C109.251 348.834 109.752 348.327 110.392 347.965C111.032 347.602 111.763 347.421 112.584 347.421C113.299 347.421 113.939 347.533 114.504 347.757C115.08 347.97 115.56 348.285 115.944 348.701L115.128 349.725ZM121.322 347.421C122.164 347.421 122.911 347.602 123.562 347.965C124.223 348.327 124.735 348.834 125.098 349.485C125.471 350.125 125.658 350.861 125.658 351.693C125.658 352.525 125.471 353.266 125.098 353.917C124.735 354.567 124.223 355.074 123.562 355.437C122.911 355.799 122.164 355.981 121.322 355.981C120.468 355.981 119.711 355.799 119.05 355.437C118.399 355.074 117.887 354.573 117.514 353.933C117.151 353.282 116.97 352.535 116.97 351.693C116.97 350.861 117.151 350.125 117.514 349.485C117.887 348.834 118.399 348.327 119.05 347.965C119.711 347.602 120.468 347.421 121.322 347.421ZM121.322 348.717C120.767 348.717 120.271 348.845 119.834 349.101C119.407 349.357 119.071 349.714 118.826 350.173C118.591 350.621 118.474 351.133 118.474 351.709C118.474 352.295 118.591 352.818 118.826 353.277C119.071 353.735 119.407 354.093 119.834 354.349C120.271 354.594 120.767 354.717 121.322 354.717C121.866 354.717 122.351 354.594 122.778 354.349C123.215 354.093 123.551 353.735 123.786 353.277C124.031 352.818 124.154 352.295 124.154 351.709C124.154 351.133 124.031 350.621 123.786 350.173C123.551 349.714 123.215 349.357 122.778 349.101C122.351 348.845 121.866 348.717 121.322 348.717ZM127.819 344.061H129.307V355.933H127.819V344.061ZM135.822 347.421C136.664 347.421 137.411 347.602 138.062 347.965C138.723 348.327 139.235 348.834 139.598 349.485C139.971 350.125 140.158 350.861 140.158 351.693C140.158 352.525 139.971 353.266 139.598 353.917C139.235 354.567 138.723 355.074 138.062 355.437C137.411 355.799 136.664 355.981 135.822 355.981C134.968 355.981 134.211 355.799 133.55 355.437C132.899 355.074 132.387 354.573 132.014 353.933C131.651 353.282 131.47 352.535 131.47 351.693C131.47 350.861 131.651 350.125 132.014 349.485C132.387 348.834 132.899 348.327 133.55 347.965C134.211 347.602 134.968 347.421 135.822 347.421ZM135.822 348.717C135.267 348.717 134.771 348.845 134.334 349.101C133.907 349.357 133.571 349.714 133.326 350.173C133.091 350.621 132.974 351.133 132.974 351.709C132.974 352.295 133.091 352.818 133.326 353.277C133.571 353.735 133.907 354.093 134.334 354.349C134.771 354.594 135.267 354.717 135.822 354.717C136.366 354.717 136.851 354.594 137.278 354.349C137.715 354.093 138.051 353.735 138.286 353.277C138.531 352.818 138.654 352.295 138.654 351.709C138.654 351.133 138.531 350.621 138.286 350.173C138.051 349.714 137.715 349.357 137.278 349.101C136.851 348.845 136.366 348.717 135.822 348.717ZM143.727 349.293C144.005 348.685 144.399 348.226 144.911 347.917C145.423 347.597 146.031 347.431 146.735 347.421V348.861C145.871 348.829 145.173 349.053 144.639 349.533C144.106 350.013 143.802 350.658 143.727 351.469V355.933H142.239V347.469H143.727V349.293Z" fill="#333333"/>
<rect x="218.948" y="260.652" width="153.785" height="72.9828" fill="#E1F1EE"/>
<path d="M274.09 296.361H272.06L271.738 299.021H273.712L273.628 300.015H271.612L271.304 302.549H270.324L270.632 300.015H267.944L267.636 302.549H266.656L266.964 300.015H264.99L265.074 299.021H267.09L267.412 296.361H265.438L265.522 295.367H267.538L267.86 292.749H268.854L268.532 295.367H271.206L271.528 292.749H272.508L272.186 295.367H274.174L274.09 296.361ZM270.758 299.021L271.08 296.361H268.406L268.07 299.021H270.758ZM276.031 292.749H282.835V293.967H277.375V296.991H282.261V298.209H277.375V301.331H283.003V302.549H276.031V292.749ZM283.862 292.749H287.432V302.549H286.088V293.967H283.862V292.749ZM290.346 292.749H296.73L296.716 293.967H291.69V297.187H296.212V298.405H291.69V302.549H290.346V292.749ZM296.987 292.749H300.557V302.549H299.213V293.967H296.987V292.749ZM303.471 292.749H310.275V293.967H304.815V296.991H309.701V298.209H304.815V301.331H310.443V302.549H303.471V292.749ZM312.617 292.749H319.421V293.967H313.961V296.991H318.847V298.209H313.961V301.331H319.589V302.549H312.617V292.749Z" fill="#333333"/>
<path d="M232.225 344.733C233.366 344.733 234.262 344.983 234.913 345.485C235.574 345.975 235.905 346.658 235.905 347.533C235.905 348.173 235.724 348.717 235.361 349.165C234.998 349.602 234.502 349.895 233.873 350.045C234.652 350.162 235.26 350.477 235.697 350.989C236.145 351.49 236.369 352.119 236.369 352.877C236.369 353.837 236.006 354.589 235.281 355.133C234.566 355.666 233.574 355.933 232.305 355.933H227.441V344.733H232.225ZM232.145 349.485C232.838 349.485 233.372 349.341 233.745 349.053C234.129 348.754 234.321 348.333 234.321 347.789C234.321 347.255 234.129 346.845 233.745 346.557C233.372 346.269 232.838 346.13 232.145 346.141H228.977V349.485H232.145ZM232.145 354.525C232.977 354.535 233.628 354.381 234.097 354.061C234.566 353.73 234.801 353.271 234.801 352.685C234.801 352.119 234.566 351.677 234.097 351.357C233.628 351.037 232.977 350.877 232.145 350.877H228.977V354.525H232.145ZM243.856 355.933V354.749C243.226 355.581 242.24 355.997 240.896 355.997C240.309 355.997 239.792 355.885 239.344 355.661C238.906 355.437 238.565 355.127 238.32 354.733C238.085 354.338 237.968 353.895 237.968 353.405C237.968 352.647 238.245 352.05 238.8 351.613C239.365 351.165 240.149 350.935 241.152 350.925H243.84V350.525C243.84 349.927 243.653 349.469 243.28 349.149C242.917 348.818 242.384 348.653 241.68 348.653C240.826 348.653 239.957 348.957 239.072 349.565L238.448 348.541C239.056 348.146 239.616 347.863 240.128 347.693C240.65 347.511 241.269 347.421 241.984 347.421C243.04 347.421 243.856 347.682 244.432 348.205C245.008 348.717 245.301 349.437 245.312 350.365L245.328 355.933H243.856ZM241.2 354.765C241.893 354.765 242.48 354.599 242.96 354.269C243.45 353.927 243.744 353.479 243.84 352.925V352.077H241.36C240.688 352.077 240.186 352.178 239.856 352.381C239.536 352.583 239.376 352.903 239.376 353.341C239.376 353.778 239.541 354.125 239.872 354.381C240.202 354.637 240.645 354.765 241.2 354.765ZM253.921 349.725C253.249 349.074 252.443 348.749 251.505 348.749C250.95 348.749 250.454 348.871 250.017 349.117C249.59 349.362 249.254 349.709 249.009 350.157C248.763 350.605 248.641 351.122 248.641 351.709C248.641 352.295 248.758 352.813 248.993 353.261C249.238 353.709 249.569 354.061 249.985 354.317C250.411 354.562 250.897 354.685 251.441 354.685C251.985 354.685 252.475 354.594 252.913 354.413C253.35 354.231 253.713 353.97 254.001 353.629L254.849 354.493C254.465 354.973 253.974 355.341 253.377 355.597C252.79 355.853 252.123 355.981 251.377 355.981C250.555 355.981 249.825 355.799 249.185 355.437C248.545 355.074 248.043 354.573 247.681 353.933C247.329 353.282 247.153 352.541 247.153 351.709C247.153 350.877 247.329 350.135 247.681 349.485C248.043 348.834 248.545 348.327 249.185 347.965C249.825 347.602 250.555 347.421 251.377 347.421C252.091 347.421 252.731 347.533 253.297 347.757C253.873 347.97 254.353 348.285 254.737 348.701L253.921 349.725ZM262.889 355.933L260.185 351.821L258.537 353.533V355.933H257.049V344.061H258.537V351.629L262.633 347.469H264.377L261.225 350.749L264.681 355.933H262.889ZM273.379 347.469V355.069C273.379 355.879 273.198 356.589 272.835 357.197C272.483 357.805 271.982 358.269 271.331 358.589C270.68 358.919 269.923 359.085 269.059 359.085C267.811 359.085 266.648 358.69 265.571 357.901L266.227 356.813C266.643 357.154 267.075 357.405 267.523 357.565C267.971 357.735 268.462 357.821 268.995 357.821C269.87 357.821 270.568 357.575 271.091 357.085C271.614 356.594 271.875 355.938 271.875 355.117V353.933C271.576 354.445 271.171 354.845 270.659 355.133C270.147 355.41 269.56 355.549 268.899 355.549C268.142 355.549 267.47 355.378 266.883 355.037C266.307 354.685 265.859 354.199 265.539 353.581C265.219 352.962 265.059 352.253 265.059 351.453C265.059 350.663 265.219 349.965 265.539 349.357C265.859 348.749 266.307 348.274 266.883 347.933C267.47 347.591 268.142 347.421 268.899 347.421C269.571 347.421 270.158 347.559 270.659 347.837C271.171 348.114 271.576 348.509 271.875 349.021V347.469H273.379ZM269.187 354.349C269.71 354.349 270.174 354.226 270.579 353.981C270.984 353.735 271.299 353.399 271.523 352.973C271.758 352.535 271.875 352.045 271.875 351.501C271.875 350.946 271.758 350.455 271.523 350.029C271.299 349.591 270.984 349.25 270.579 349.005C270.174 348.759 269.71 348.637 269.187 348.637C268.664 348.637 268.195 348.759 267.779 349.005C267.374 349.25 267.054 349.591 266.819 350.029C266.584 350.455 266.467 350.946 266.467 351.501C266.478 352.333 266.734 353.015 267.235 353.549C267.736 354.082 268.387 354.349 269.187 354.349ZM277.582 349.293C277.859 348.685 278.254 348.226 278.766 347.917C279.278 347.597 279.886 347.431 280.59 347.421V348.861C279.726 348.829 279.027 349.053 278.494 349.533C277.961 350.013 277.657 350.658 277.582 351.469V355.933H276.094V347.469H277.582V349.293ZM285.723 347.421C286.566 347.421 287.313 347.602 287.963 347.965C288.625 348.327 289.137 348.834 289.499 349.485C289.873 350.125 290.059 350.861 290.059 351.693C290.059 352.525 289.873 353.266 289.499 353.917C289.137 354.567 288.625 355.074 287.963 355.437C287.313 355.799 286.566 355.981 285.723 355.981C284.87 355.981 284.113 355.799 283.451 355.437C282.801 355.074 282.289 354.573 281.915 353.933C281.553 353.282 281.371 352.535 281.371 351.693C281.371 350.861 281.553 350.125 281.915 349.485C282.289 348.834 282.801 348.327 283.451 347.965C284.113 347.602 284.87 347.421 285.723 347.421ZM285.723 348.717C285.169 348.717 284.673 348.845 284.235 349.101C283.809 349.357 283.473 349.714 283.227 350.173C282.993 350.621 282.875 351.133 282.875 351.709C282.875 352.295 282.993 352.818 283.227 353.277C283.473 353.735 283.809 354.093 284.235 354.349C284.673 354.594 285.169 354.717 285.723 354.717C286.267 354.717 286.753 354.594 287.179 354.349C287.617 354.093 287.953 353.735 288.187 353.277C288.433 352.818 288.555 352.295 288.555 351.709C288.555 351.133 288.433 350.621 288.187 350.173C287.953 349.714 287.617 349.357 287.179 349.101C286.753 348.845 286.267 348.717 285.723 348.717ZM299.629 347.469V355.933H298.125V354.141C297.57 355.346 296.525 355.959 294.989 355.981C294.008 355.981 293.24 355.693 292.685 355.117C292.13 354.53 291.853 353.725 291.853 352.701V347.469H293.357V352.301C293.357 353.015 293.549 353.575 293.933 353.981C294.328 354.375 294.866 354.573 295.549 354.573C296.338 354.562 296.962 354.285 297.421 353.741C297.89 353.186 298.125 352.482 298.125 351.629V347.469H299.629ZM307.235 347.421C308.227 347.421 309.006 347.714 309.571 348.301C310.137 348.877 310.419 349.677 310.419 350.701V355.933H308.931V351.101C308.931 350.386 308.729 349.831 308.323 349.437C307.929 349.031 307.379 348.829 306.675 348.829C305.918 348.839 305.299 349.085 304.819 349.565C304.35 350.034 304.083 350.647 304.019 351.405V355.933H302.531V347.469H304.019V349.261C304.585 348.055 305.657 347.442 307.235 347.421ZM320.966 344.061V355.933H319.478V354.253C319.158 354.818 318.726 355.255 318.182 355.565C317.649 355.863 317.025 356.013 316.31 356.013C315.51 356.013 314.801 355.831 314.182 355.469C313.574 355.095 313.1 354.583 312.758 353.933C312.417 353.271 312.246 352.519 312.246 351.677C312.246 350.845 312.417 350.109 312.758 349.469C313.1 348.818 313.574 348.311 314.182 347.949C314.801 347.586 315.505 347.405 316.294 347.405C317.02 347.405 317.654 347.554 318.198 347.853C318.742 348.151 319.169 348.583 319.478 349.149V344.061H320.966ZM316.614 354.733C317.169 354.733 317.66 354.605 318.086 354.349C318.524 354.093 318.865 353.735 319.11 353.277C319.356 352.818 319.478 352.301 319.478 351.725C319.478 351.138 319.356 350.615 319.11 350.157C318.865 349.698 318.524 349.341 318.086 349.085C317.66 348.829 317.169 348.701 316.614 348.701C316.06 348.701 315.564 348.834 315.126 349.101C314.7 349.357 314.364 349.714 314.118 350.173C313.873 350.631 313.75 351.149 313.75 351.725C313.75 352.301 313.873 352.818 314.118 353.277C314.364 353.735 314.7 354.093 315.126 354.349C315.564 354.605 316.06 354.733 316.614 354.733ZM334.077 349.725C333.405 349.074 332.6 348.749 331.661 348.749C331.106 348.749 330.61 348.871 330.173 349.117C329.746 349.362 329.41 349.709 329.165 350.157C328.92 350.605 328.797 351.122 328.797 351.709C328.797 352.295 328.914 352.813 329.149 353.261C329.394 353.709 329.725 354.061 330.141 354.317C330.568 354.562 331.053 354.685 331.597 354.685C332.141 354.685 332.632 354.594 333.069 354.413C333.506 354.231 333.869 353.97 334.157 353.629L335.005 354.493C334.621 354.973 334.13 355.341 333.533 355.597C332.946 355.853 332.28 355.981 331.533 355.981C330.712 355.981 329.981 355.799 329.341 355.437C328.701 355.074 328.2 354.573 327.837 353.933C327.485 353.282 327.309 352.541 327.309 351.709C327.309 350.877 327.485 350.135 327.837 349.485C328.2 348.834 328.701 348.327 329.341 347.965C329.981 347.602 330.712 347.421 331.533 347.421C332.248 347.421 332.888 347.533 333.453 347.757C334.029 347.97 334.509 348.285 334.893 348.701L334.077 349.725ZM340.27 347.421C341.113 347.421 341.86 347.602 342.51 347.965C343.172 348.327 343.684 348.834 344.046 349.485C344.42 350.125 344.606 350.861 344.606 351.693C344.606 352.525 344.42 353.266 344.046 353.917C343.684 354.567 343.172 355.074 342.51 355.437C341.86 355.799 341.113 355.981 340.27 355.981C339.417 355.981 338.66 355.799 337.998 355.437C337.348 355.074 336.836 354.573 336.462 353.933C336.1 353.282 335.918 352.535 335.918 351.693C335.918 350.861 336.1 350.125 336.462 349.485C336.836 348.834 337.348 348.327 337.998 347.965C338.66 347.602 339.417 347.421 340.27 347.421ZM340.27 348.717C339.716 348.717 339.22 348.845 338.782 349.101C338.356 349.357 338.02 349.714 337.774 350.173C337.54 350.621 337.422 351.133 337.422 351.709C337.422 352.295 337.54 352.818 337.774 353.277C338.02 353.735 338.356 354.093 338.782 354.349C339.22 354.594 339.716 354.717 340.27 354.717C340.814 354.717 341.3 354.594 341.726 354.349C342.164 354.093 342.5 353.735 342.734 353.277C342.98 352.818 343.102 352.295 343.102 351.709C343.102 351.133 342.98 350.621 342.734 350.173C342.5 349.714 342.164 349.357 341.726 349.101C341.3 348.845 340.814 348.717 340.27 348.717ZM346.768 344.061H348.256V355.933H346.768V344.061ZM354.77 347.421C355.613 347.421 356.36 347.602 357.01 347.965C357.672 348.327 358.184 348.834 358.546 349.485C358.92 350.125 359.106 350.861 359.106 351.693C359.106 352.525 358.92 353.266 358.546 353.917C358.184 354.567 357.672 355.074 357.01 355.437C356.36 355.799 355.613 355.981 354.77 355.981C353.917 355.981 353.16 355.799 352.498 355.437C351.848 355.074 351.336 354.573 350.962 353.933C350.6 353.282 350.418 352.535 350.418 351.693C350.418 350.861 350.6 350.125 350.962 349.485C351.336 348.834 351.848 348.327 352.498 347.965C353.16 347.602 353.917 347.421 354.77 347.421ZM354.77 348.717C354.216 348.717 353.72 348.845 353.282 349.101C352.856 349.357 352.52 349.714 352.274 350.173C352.04 350.621 351.922 351.133 351.922 351.709C351.922 352.295 352.04 352.818 352.274 353.277C352.52 353.735 352.856 354.093 353.282 354.349C353.72 354.594 354.216 354.717 354.77 354.717C355.314 354.717 355.8 354.594 356.226 354.349C356.664 354.093 357 353.735 357.234 353.277C357.48 352.818 357.602 352.295 357.602 351.709C357.602 351.133 357.48 350.621 357.234 350.173C357 349.714 356.664 349.357 356.226 349.101C355.8 348.845 355.314 348.717 354.77 348.717ZM362.676 349.293C362.953 348.685 363.348 348.226 363.86 347.917C364.372 347.597 364.98 347.431 365.684 347.421V348.861C364.82 348.829 364.121 349.053 363.588 349.533C363.054 350.013 362.75 350.658 362.676 351.469V355.933H361.188V347.469H362.676V349.293Z" fill="#333333"/>
<rect x="218.948" y="130.326" width="153.785" height="72.9828" fill="#225358"/>
<path d="M275.199 166.215H273.239L272.959 168.511H274.877L274.737 169.883H272.791L272.497 172.221H271.153L271.447 169.883H269.109L268.815 172.221H267.471L267.765 169.883H265.833L265.973 168.511H267.933L268.213 166.215H266.295L266.421 164.857H268.381L268.689 162.421H270.019L269.725 164.857H272.063L272.371 162.421H273.701L273.407 164.857H275.339L275.199 166.215ZM271.615 168.511L271.895 166.215H269.557L269.277 168.511H271.615ZM283.467 170.583V172.221H276.215V170.863L279.911 167.055C280.266 166.7 280.55 166.35 280.765 166.005C280.98 165.659 281.087 165.361 281.087 165.109C281.087 164.754 280.947 164.479 280.667 164.283C280.387 164.077 280 163.975 279.505 163.975C279.076 163.975 278.618 164.082 278.133 164.297C277.648 164.511 277.19 164.81 276.761 165.193L276.019 163.751C276.598 163.303 277.204 162.957 277.839 162.715C278.483 162.463 279.127 162.337 279.771 162.337C280.415 162.337 280.984 162.439 281.479 162.645C281.974 162.85 282.356 163.144 282.627 163.527C282.907 163.9 283.047 164.334 283.047 164.829C283.047 165.305 282.884 165.809 282.557 166.341C282.23 166.873 281.773 167.447 281.185 168.063L278.693 170.583H283.467ZM291.725 170.583V172.221H284.473V170.863L288.169 167.055C288.523 166.7 288.808 166.35 289.023 166.005C289.237 165.659 289.345 165.361 289.345 165.109C289.345 164.754 289.205 164.479 288.925 164.283C288.645 164.077 288.257 163.975 287.763 163.975C287.333 163.975 286.876 164.082 286.391 164.297C285.905 164.511 285.448 164.81 285.019 165.193L284.277 163.751C284.855 163.303 285.462 162.957 286.097 162.715C286.741 162.463 287.385 162.337 288.029 162.337C288.673 162.337 289.242 162.439 289.737 162.645C290.231 162.85 290.614 163.144 290.885 163.527C291.165 163.9 291.305 164.334 291.305 164.829C291.305 165.305 291.141 165.809 290.815 166.341C290.488 166.873 290.031 167.447 289.443 168.063L286.951 170.583H291.725ZM296.623 166.005C297.36 166.005 298.009 166.131 298.569 166.383C299.129 166.635 299.558 166.989 299.857 167.447C300.165 167.895 300.319 168.403 300.319 168.973C300.319 169.635 300.16 170.219 299.843 170.723C299.525 171.227 299.077 171.619 298.499 171.899C297.92 172.169 297.248 172.305 296.483 172.305C295.867 172.305 295.223 172.202 294.551 171.997C293.888 171.782 293.3 171.497 292.787 171.143L293.529 169.673C293.949 169.999 294.397 170.256 294.873 170.443C295.349 170.62 295.825 170.709 296.301 170.709C296.917 170.709 297.402 170.569 297.757 170.289C298.121 169.999 298.303 169.607 298.303 169.113C298.303 168.637 298.125 168.268 297.771 168.007C297.416 167.745 296.889 167.615 296.189 167.615C295.853 167.615 295.409 167.629 294.859 167.657C294.308 167.675 293.883 167.699 293.585 167.727V162.421H299.885V164.059H295.321V166.005H296.623ZM305.584 166.509C306.489 166.593 307.208 166.868 307.74 167.335C308.281 167.801 308.552 168.413 308.552 169.169C308.552 169.785 308.393 170.331 308.076 170.807C307.759 171.273 307.306 171.642 306.718 171.913C306.13 172.174 305.444 172.305 304.66 172.305C303.997 172.305 303.339 172.207 302.686 172.011C302.042 171.805 301.491 171.535 301.034 171.199L301.776 169.743C302.168 170.069 302.602 170.321 303.078 170.499C303.554 170.667 304.039 170.751 304.534 170.751C305.215 170.751 305.747 170.611 306.13 170.331C306.522 170.051 306.718 169.673 306.718 169.197C306.718 168.711 306.527 168.343 306.144 168.091C305.761 167.829 305.215 167.699 304.506 167.699H303.022V166.565L305.654 164.017H301.524L301.51 162.421H308.062V163.583L305.066 166.453L305.584 166.509ZM313.603 166.005C314.34 166.005 314.989 166.131 315.549 166.383C316.109 166.635 316.538 166.989 316.837 167.447C317.145 167.895 317.299 168.403 317.299 168.973C317.299 169.635 317.14 170.219 316.823 170.723C316.506 171.227 316.058 171.619 315.479 171.899C314.9 172.169 314.228 172.305 313.463 172.305C312.847 172.305 312.203 172.202 311.531 171.997C310.868 171.782 310.28 171.497 309.767 171.143L310.509 169.673C310.929 169.999 311.377 170.256 311.853 170.443C312.329 170.62 312.805 170.709 313.281 170.709C313.897 170.709 314.382 170.569 314.737 170.289C315.101 169.999 315.283 169.607 315.283 169.113C315.283 168.637 315.106 168.268 314.751 168.007C314.396 167.745 313.869 167.615 313.169 167.615C312.833 167.615 312.39 167.629 311.839 167.657C311.288 167.675 310.864 167.699 310.565 167.727V162.421H316.865V164.059H312.301V166.005H313.603ZM322.257 162.337C323.283 162.337 324.091 162.57 324.679 163.037C325.276 163.494 325.575 164.119 325.575 164.913C325.575 165.361 325.453 165.767 325.211 166.131C324.968 166.495 324.632 166.779 324.203 166.985C324.781 167.199 325.234 167.526 325.561 167.965C325.897 168.403 326.065 168.907 326.065 169.477C326.065 170.046 325.911 170.545 325.603 170.975C325.295 171.404 324.851 171.735 324.273 171.969C323.703 172.193 323.036 172.305 322.271 172.305C321.505 172.305 320.833 172.193 320.255 171.969C319.685 171.735 319.247 171.409 318.939 170.989C318.631 170.569 318.477 170.074 318.477 169.505C318.477 168.926 318.649 168.417 318.995 167.979C319.34 167.531 319.816 167.199 320.423 166.985C319.965 166.761 319.606 166.462 319.345 166.089C319.093 165.715 318.967 165.3 318.967 164.843C318.967 164.077 319.261 163.471 319.849 163.023C320.446 162.565 321.249 162.337 322.257 162.337ZM322.271 163.681C321.729 163.681 321.305 163.797 320.997 164.031C320.698 164.264 320.549 164.591 320.549 165.011C320.549 165.431 320.698 165.757 320.997 165.991C321.305 166.224 321.729 166.341 322.271 166.341C322.812 166.341 323.232 166.224 323.531 165.991C323.829 165.757 323.979 165.431 323.979 165.011C323.979 164.591 323.829 164.264 323.531 164.031C323.232 163.797 322.812 163.681 322.271 163.681ZM322.257 167.797C321.622 167.797 321.127 167.927 320.773 168.189C320.418 168.45 320.241 168.819 320.241 169.295C320.241 169.78 320.418 170.158 320.773 170.429C321.127 170.699 321.627 170.835 322.271 170.835C322.905 170.835 323.4 170.704 323.755 170.443C324.119 170.172 324.301 169.794 324.301 169.309C324.301 168.833 324.119 168.464 323.755 168.203C323.4 167.932 322.901 167.797 322.257 167.797Z" fill="white"/>
<path d="M260.058 215.449H261.594V220.441H267.994V215.449H269.546V226.649H267.994V221.833H261.594V226.649H260.058V215.449ZM275.994 218.137C277.306 218.137 278.298 218.527 278.97 219.305C279.642 220.073 279.978 221.145 279.978 222.521C279.978 222.735 279.972 222.895 279.962 223.001H273.274C273.391 223.759 273.706 224.361 274.218 224.809C274.74 225.257 275.38 225.481 276.138 225.481C276.639 225.481 277.103 225.391 277.53 225.209C277.967 225.028 278.346 224.772 278.666 224.441L279.482 225.289C279.066 225.737 278.564 226.084 277.978 226.329C277.391 226.575 276.74 226.697 276.026 226.697C275.194 226.697 274.452 226.521 273.802 226.169C273.162 225.807 272.66 225.3 272.298 224.649C271.946 223.999 271.77 223.257 271.77 222.425C271.77 221.593 271.946 220.857 272.298 220.217C272.66 219.567 273.162 219.06 273.802 218.697C274.442 218.324 275.172 218.137 275.994 218.137ZM278.634 221.849C278.591 221.081 278.335 220.479 277.866 220.041C277.396 219.593 276.778 219.369 276.01 219.369C275.263 219.369 274.639 219.593 274.138 220.041C273.647 220.489 273.354 221.092 273.258 221.849H278.634ZM287.176 226.649V225.465C286.547 226.297 285.56 226.713 284.216 226.713C283.629 226.713 283.112 226.601 282.664 226.377C282.227 226.153 281.885 225.844 281.64 225.449C281.405 225.055 281.288 224.612 281.288 224.121C281.288 223.364 281.565 222.767 282.12 222.329C282.685 221.881 283.469 221.652 284.472 221.641H287.16V221.241C287.16 220.644 286.973 220.185 286.6 219.865C286.237 219.535 285.704 219.369 285 219.369C284.147 219.369 283.277 219.673 282.392 220.281L281.768 219.257C282.376 218.863 282.936 218.58 283.448 218.409C283.971 218.228 284.589 218.137 285.304 218.137C286.36 218.137 287.176 218.399 287.752 218.921C288.328 219.433 288.621 220.153 288.632 221.081L288.648 226.649H287.176ZM284.52 225.481C285.213 225.481 285.8 225.316 286.28 224.985C286.771 224.644 287.064 224.196 287.16 223.641V222.793H284.68C284.008 222.793 283.507 222.895 283.176 223.097C282.856 223.3 282.696 223.62 282.696 224.057C282.696 224.495 282.861 224.841 283.192 225.097C283.523 225.353 283.965 225.481 284.52 225.481ZM299.193 214.777V226.649H297.705V224.969C297.385 225.535 296.953 225.972 296.409 226.281C295.876 226.58 295.252 226.729 294.537 226.729C293.737 226.729 293.028 226.548 292.409 226.185C291.801 225.812 291.326 225.3 290.985 224.649C290.644 223.988 290.473 223.236 290.473 222.393C290.473 221.561 290.644 220.825 290.985 220.185C291.326 219.535 291.801 219.028 292.409 218.665C293.028 218.303 293.732 218.121 294.521 218.121C295.246 218.121 295.881 218.271 296.425 218.569C296.969 218.868 297.396 219.3 297.705 219.865V214.777H299.193ZM294.841 225.449C295.396 225.449 295.886 225.321 296.313 225.065C296.75 224.809 297.092 224.452 297.337 223.993C297.582 223.535 297.705 223.017 297.705 222.441C297.705 221.855 297.582 221.332 297.337 220.873C297.092 220.415 296.75 220.057 296.313 219.801C295.886 219.545 295.396 219.417 294.841 219.417C294.286 219.417 293.79 219.551 293.353 219.817C292.926 220.073 292.59 220.431 292.345 220.889C292.1 221.348 291.977 221.865 291.977 222.441C291.977 223.017 292.1 223.535 292.345 223.993C292.59 224.452 292.926 224.809 293.353 225.065C293.79 225.321 294.286 225.449 294.841 225.449ZM302.18 218.185H303.668V226.649H302.18V218.185ZM302.916 214.809C303.183 214.809 303.401 214.9 303.572 215.081C303.753 215.263 303.844 215.492 303.844 215.769C303.844 216.047 303.753 216.276 303.572 216.457C303.401 216.639 303.183 216.729 302.916 216.729C302.649 216.729 302.425 216.639 302.244 216.457C302.073 216.276 301.988 216.047 301.988 215.769C301.988 215.492 302.073 215.263 302.244 215.081C302.425 214.9 302.649 214.809 302.916 214.809ZM311.275 218.137C312.267 218.137 313.045 218.431 313.611 219.017C314.176 219.593 314.459 220.393 314.459 221.417V226.649H312.971V221.817C312.971 221.103 312.768 220.548 312.363 220.153C311.968 219.748 311.419 219.545 310.715 219.545C309.957 219.556 309.339 219.801 308.859 220.281C308.389 220.751 308.123 221.364 308.059 222.121V226.649H306.571V218.185H308.059V219.977C308.624 218.772 309.696 218.159 311.275 218.137ZM324.605 218.185V225.785C324.605 226.596 324.424 227.305 324.061 227.913C323.709 228.521 323.208 228.985 322.557 229.305C321.907 229.636 321.149 229.801 320.285 229.801C319.037 229.801 317.875 229.407 316.797 228.617L317.453 227.529C317.869 227.871 318.301 228.121 318.749 228.281C319.197 228.452 319.688 228.537 320.221 228.537C321.096 228.537 321.795 228.292 322.317 227.801C322.84 227.311 323.101 226.655 323.101 225.833V224.649C322.803 225.161 322.397 225.561 321.885 225.849C321.373 226.127 320.787 226.265 320.125 226.265C319.368 226.265 318.696 226.095 318.109 225.753C317.533 225.401 317.085 224.916 316.765 224.297C316.445 223.679 316.285 222.969 316.285 222.169C316.285 221.38 316.445 220.681 316.765 220.073C317.085 219.465 317.533 218.991 318.109 218.649C318.696 218.308 319.368 218.137 320.125 218.137C320.797 218.137 321.384 218.276 321.885 218.553C322.397 218.831 322.803 219.225 323.101 219.737V218.185H324.605ZM320.413 225.065C320.936 225.065 321.4 224.943 321.805 224.697C322.211 224.452 322.525 224.116 322.749 223.689C322.984 223.252 323.101 222.761 323.101 222.217C323.101 221.663 322.984 221.172 322.749 220.745C322.525 220.308 322.211 219.967 321.805 219.721C321.4 219.476 320.936 219.353 320.413 219.353C319.891 219.353 319.421 219.476 319.005 219.721C318.6 219.967 318.28 220.308 318.045 220.745C317.811 221.172 317.693 221.663 317.693 222.217C317.704 223.049 317.96 223.732 318.461 224.265C318.963 224.799 319.613 225.065 320.413 225.065ZM331.945 220.057C331.593 219.844 331.203 219.673 330.777 219.545C330.361 219.417 329.961 219.353 329.577 219.353C329.129 219.353 328.766 219.439 328.489 219.609C328.222 219.769 328.089 220.02 328.089 220.361C328.089 220.703 328.238 220.964 328.537 221.145C328.846 221.316 329.31 221.492 329.929 221.673C330.515 221.844 330.995 222.015 331.369 222.185C331.742 222.356 332.057 222.607 332.313 222.937C332.579 223.268 332.713 223.705 332.713 224.249C332.713 225.049 332.409 225.657 331.801 226.073C331.203 226.489 330.457 226.697 329.561 226.697C328.931 226.697 328.318 226.596 327.721 226.393C327.134 226.191 326.638 225.903 326.233 225.529L326.793 224.441C327.145 224.761 327.577 225.017 328.089 225.209C328.611 225.401 329.118 225.497 329.609 225.497C330.099 225.497 330.494 225.407 330.793 225.225C331.091 225.044 331.241 224.767 331.241 224.393C331.241 224.009 331.081 223.721 330.761 223.529C330.451 223.337 329.977 223.145 329.337 222.953C328.771 222.793 328.307 222.633 327.945 222.473C327.593 222.303 327.289 222.057 327.033 221.737C326.787 221.417 326.665 221.001 326.665 220.489C326.665 219.7 326.953 219.108 327.529 218.713C328.105 218.319 328.825 218.121 329.689 218.121C330.201 218.121 330.702 218.196 331.193 218.345C331.694 218.484 332.126 218.676 332.489 218.921L331.945 220.057Z" fill="#333333"/>
<rect x="218.948" width="153.785" height="72.9828" fill="#4CAEB7"/>
<path d="M272.995 35.7075H270.965L270.643 38.3675H272.617L272.533 39.3615H270.517L270.209 41.8955H269.229L269.537 39.3615H266.849L266.541 41.8955H265.561L265.869 39.3615H263.895L263.979 38.3675H265.995L266.317 35.7075H264.343L264.427 34.7135H266.443L266.765 32.0955H267.759L267.437 34.7135H270.111L270.433 32.0955H271.413L271.091 34.7135H273.079L272.995 35.7075ZM269.663 38.3675L269.985 35.7075H267.311L266.975 38.3675H269.663ZM281.39 38.1715V39.3755H279.878V41.8955H278.618V39.3755H273.76V38.3395L277.26 32.0955H278.576L275.216 38.1715H278.618V35.6655H279.878V38.1715H281.39ZM290.306 34.4475C289.933 34.0555 289.499 33.7522 289.004 33.5375C288.509 33.3135 288.001 33.2015 287.478 33.2015C286.787 33.2015 286.153 33.3695 285.574 33.7055C284.995 34.0415 284.538 34.4988 284.202 35.0775C283.866 35.6468 283.698 36.2768 283.698 36.9675C283.698 37.6488 283.866 38.2788 284.202 38.8575C284.538 39.4362 284.995 39.8935 285.574 40.2295C286.153 40.5655 286.787 40.7335 287.478 40.7335C287.991 40.7335 288.495 40.6308 288.99 40.4255C289.485 40.2108 289.923 39.9215 290.306 39.5575L291.118 40.4395C290.623 40.9248 290.049 41.3075 289.396 41.5875C288.743 41.8582 288.08 41.9935 287.408 41.9935C286.475 41.9935 285.621 41.7742 284.846 41.3355C284.071 40.8875 283.46 40.2808 283.012 39.5155C282.564 38.7502 282.34 37.9055 282.34 36.9815C282.34 36.0668 282.564 35.2315 283.012 34.4755C283.469 33.7102 284.09 33.1082 284.874 32.6695C285.658 32.2308 286.521 32.0115 287.464 32.0115C288.145 32.0115 288.803 32.1422 289.438 32.4035C290.082 32.6555 290.637 33.0148 291.104 33.4815L290.306 34.4475ZM300.222 41.8955L299.186 39.5155H294.02L292.998 41.8955H291.584L295.938 32.0955H297.338L301.678 41.8955H300.222ZM294.552 38.2975H298.668L296.596 33.5375L294.552 38.2975ZM303.1 32.0955H309.904V33.3135H304.444V36.3375H309.33V37.5555H304.444V40.6775H310.072V41.8955H303.1V32.0955ZM316.433 32.0955C317.432 32.0955 318.216 32.3148 318.785 32.7535C319.364 33.1828 319.653 33.7802 319.653 34.5455C319.653 35.1055 319.494 35.5815 319.177 35.9735C318.86 36.3562 318.426 36.6128 317.875 36.7435C318.556 36.8462 319.088 37.1215 319.471 37.5695C319.863 38.0082 320.059 38.5588 320.059 39.2215C320.059 40.0615 319.742 40.7195 319.107 41.1955C318.482 41.6622 317.614 41.8955 316.503 41.8955H312.247V32.0955H316.433ZM316.363 36.2535C316.97 36.2535 317.436 36.1275 317.763 35.8755C318.099 35.6142 318.267 35.2455 318.267 34.7695C318.267 34.3028 318.099 33.9435 317.763 33.6915C317.436 33.4395 316.97 33.3182 316.363 33.3275H313.591V36.2535H316.363ZM316.363 40.6635C317.091 40.6728 317.66 40.5375 318.071 40.2575C318.482 39.9682 318.687 39.5668 318.687 39.0535C318.687 38.5588 318.482 38.1715 318.071 37.8915C317.66 37.6115 317.091 37.4715 316.363 37.4715H313.591V40.6635H316.363ZM321.01 32.0955H328.346V33.1455L324.076 41.8955H322.648L326.834 33.3135H322.228L322.214 34.7275H321.01V32.0955Z" fill="white"/>
<path d="M255.574 96.3232L254.39 93.6032H248.486L247.318 96.3232H245.702L250.678 85.1232H252.278L257.238 96.3232H255.574ZM249.094 92.2112H253.798L251.43 86.7712L249.094 92.2112ZM264.217 90.1152C263.545 89.4646 262.74 89.1392 261.801 89.1392C261.247 89.1392 260.751 89.2619 260.313 89.5072C259.887 89.7526 259.551 90.0992 259.305 90.5472C259.06 90.9952 258.937 91.5126 258.937 92.0992C258.937 92.6859 259.055 93.2032 259.289 93.6512C259.535 94.0992 259.865 94.4512 260.281 94.7072C260.708 94.9526 261.193 95.0752 261.737 95.0752C262.281 95.0752 262.772 94.9846 263.209 94.8032C263.647 94.6219 264.009 94.3606 264.297 94.0192L265.145 94.8832C264.761 95.3632 264.271 95.7312 263.673 95.9872C263.087 96.2432 262.42 96.3712 261.673 96.3712C260.852 96.3712 260.121 96.1899 259.481 95.8272C258.841 95.4646 258.34 94.9632 257.977 94.3232C257.625 93.6726 257.449 92.9312 257.449 92.0992C257.449 91.2672 257.625 90.5259 257.977 89.8752C258.34 89.2246 258.841 88.7179 259.481 88.3552C260.121 87.9926 260.852 87.8112 261.673 87.8112C262.388 87.8112 263.028 87.9232 263.593 88.1472C264.169 88.3606 264.649 88.6752 265.033 89.0912L264.217 90.1152ZM272.827 90.1152C272.155 89.4646 271.35 89.1392 270.411 89.1392C269.856 89.1392 269.36 89.2619 268.923 89.5072C268.496 89.7526 268.16 90.0992 267.915 90.5472C267.67 90.9952 267.547 91.5126 267.547 92.0992C267.547 92.6859 267.664 93.2032 267.899 93.6512C268.144 94.0992 268.475 94.4512 268.891 94.7072C269.318 94.9526 269.803 95.0752 270.347 95.0752C270.891 95.0752 271.382 94.9846 271.819 94.8032C272.256 94.6219 272.619 94.3606 272.907 94.0192L273.755 94.8832C273.371 95.3632 272.88 95.7312 272.283 95.9872C271.696 96.2432 271.03 96.3712 270.283 96.3712C269.462 96.3712 268.731 96.1899 268.091 95.8272C267.451 95.4646 266.95 94.9632 266.587 94.3232C266.235 93.6726 266.059 92.9312 266.059 92.0992C266.059 91.2672 266.235 90.5259 266.587 89.8752C266.95 89.2246 267.451 88.7179 268.091 88.3552C268.731 87.9926 269.462 87.8112 270.283 87.8112C270.998 87.8112 271.638 87.9232 272.203 88.1472C272.779 88.3606 273.259 88.6752 273.643 89.0912L272.827 90.1152ZM278.892 87.8112C280.204 87.8112 281.196 88.2006 281.868 88.9792C282.54 89.7472 282.876 90.8192 282.876 92.1952C282.876 92.4086 282.871 92.5686 282.86 92.6752H276.172C276.29 93.4326 276.604 94.0352 277.116 94.4832C277.639 94.9312 278.279 95.1552 279.036 95.1552C279.538 95.1552 280.002 95.0646 280.428 94.8832C280.866 94.7019 281.244 94.4459 281.564 94.1152L282.38 94.9632C281.964 95.4112 281.463 95.7579 280.876 96.0032C280.29 96.2486 279.639 96.3712 278.924 96.3712C278.092 96.3712 277.351 96.1952 276.7 95.8432C276.06 95.4806 275.559 94.9739 275.196 94.3232C274.844 93.6726 274.668 92.9312 274.668 92.0992C274.668 91.2672 274.844 90.5312 275.196 89.8912C275.559 89.2406 276.06 88.7339 276.7 88.3712C277.34 87.9979 278.071 87.8112 278.892 87.8112ZM281.532 91.5232C281.49 90.7552 281.234 90.1526 280.764 89.7152C280.295 89.2672 279.676 89.0432 278.908 89.0432C278.162 89.0432 277.538 89.2672 277.036 89.7152C276.546 90.1632 276.252 90.7659 276.156 91.5232H281.532ZM289.61 87.8112C290.602 87.8112 291.381 88.1046 291.946 88.6912C292.512 89.2672 292.794 90.0672 292.794 91.0912V96.3232H291.306V91.4912C291.306 90.7766 291.104 90.2219 290.698 89.8272C290.304 89.4219 289.754 89.2192 289.05 89.2192C288.293 89.2299 287.674 89.4752 287.194 89.9552C286.725 90.4246 286.458 91.0379 286.394 91.7952V96.3232H284.906V87.8592H286.394V89.6512C286.96 88.4459 288.032 87.8326 289.61 87.8112ZM299.997 95.7632C299.347 96.1792 298.685 96.3872 298.013 96.3872C297.341 96.3872 296.797 96.1899 296.381 95.7952C295.965 95.3899 295.757 94.7819 295.757 93.9712V89.2832H294.557V88.1472H295.757V85.8752H297.261V88.1472H299.853V89.2832H297.261V93.6992C297.261 94.1686 297.347 94.5046 297.517 94.7072C297.688 94.9099 297.944 95.0112 298.285 95.0112C298.691 95.0112 299.128 94.8779 299.597 94.6112L299.997 95.7632ZM314.256 87.8112C313.83 87.3632 313.334 87.0166 312.768 86.7712C312.203 86.5152 311.622 86.3872 311.024 86.3872C310.235 86.3872 309.51 86.5792 308.848 86.9632C308.187 87.3472 307.664 87.8699 307.28 88.5312C306.896 89.1819 306.704 89.9019 306.704 90.6912C306.704 91.4699 306.896 92.1899 307.28 92.8512C307.664 93.5126 308.187 94.0352 308.848 94.4192C309.51 94.8032 310.235 94.9952 311.024 94.9952C311.611 94.9952 312.187 94.8779 312.752 94.6432C313.318 94.3979 313.819 94.0672 314.256 93.6512L315.184 94.6592C314.619 95.2139 313.963 95.6512 313.216 95.9712C312.47 96.2806 311.712 96.4352 310.944 96.4352C309.878 96.4352 308.902 96.1846 308.016 95.6832C307.131 95.1712 306.432 94.4779 305.92 93.6032C305.408 92.7286 305.152 91.7632 305.152 90.7072C305.152 89.6619 305.408 88.7072 305.92 87.8432C306.443 86.9686 307.152 86.2806 308.048 85.7792C308.944 85.2779 309.931 85.0272 311.008 85.0272C311.787 85.0272 312.539 85.1766 313.264 85.4752C314 85.7632 314.635 86.1739 315.168 86.7072L314.256 87.8112ZM320.458 87.8112C321.3 87.8112 322.047 87.9926 322.698 88.3552C323.359 88.7179 323.871 89.2246 324.234 89.8752C324.607 90.5152 324.794 91.2512 324.794 92.0832C324.794 92.9152 324.607 93.6566 324.234 94.3072C323.871 94.9579 323.359 95.4646 322.698 95.8272C322.047 96.1899 321.3 96.3712 320.458 96.3712C319.604 96.3712 318.847 96.1899 318.186 95.8272C317.535 95.4646 317.023 94.9632 316.65 94.3232C316.287 93.6726 316.106 92.9259 316.106 92.0832C316.106 91.2512 316.287 90.5152 316.65 89.8752C317.023 89.2246 317.535 88.7179 318.186 88.3552C318.847 87.9926 319.604 87.8112 320.458 87.8112ZM320.458 89.1072C319.903 89.1072 319.407 89.2352 318.97 89.4912C318.543 89.7472 318.207 90.1046 317.962 90.5632C317.727 91.0112 317.61 91.5232 317.61 92.0992C317.61 92.6859 317.727 93.2086 317.962 93.6672C318.207 94.1259 318.543 94.4832 318.97 94.7392C319.407 94.9846 319.903 95.1072 320.458 95.1072C321.002 95.1072 321.487 94.9846 321.914 94.7392C322.351 94.4832 322.687 94.1259 322.922 93.6672C323.167 93.2086 323.29 92.6859 323.29 92.0992C323.29 91.5232 323.167 91.0112 322.922 90.5632C322.687 90.1046 322.351 89.7472 321.914 89.4912C321.487 89.2352 321.002 89.1072 320.458 89.1072ZM326.955 84.4512H328.443V96.3232H326.955V84.4512ZM334.958 87.8112C335.8 87.8112 336.547 87.9926 337.198 88.3552C337.859 88.7179 338.371 89.2246 338.734 89.8752C339.107 90.5152 339.294 91.2512 339.294 92.0832C339.294 92.9152 339.107 93.6566 338.734 94.3072C338.371 94.9579 337.859 95.4646 337.198 95.8272C336.547 96.1899 335.8 96.3712 334.958 96.3712C334.104 96.3712 333.347 96.1899 332.686 95.8272C332.035 95.4646 331.523 94.9632 331.15 94.3232C330.787 93.6726 330.606 92.9259 330.606 92.0832C330.606 91.2512 330.787 90.5152 331.15 89.8752C331.523 89.2246 332.035 88.7179 332.686 88.3552C333.347 87.9926 334.104 87.8112 334.958 87.8112ZM334.958 89.1072C334.403 89.1072 333.907 89.2352 333.47 89.4912C333.043 89.7472 332.707 90.1046 332.462 90.5632C332.227 91.0112 332.11 91.5232 332.11 92.0992C332.11 92.6859 332.227 93.2086 332.462 93.6672C332.707 94.1259 333.043 94.4832 333.47 94.7392C333.907 94.9846 334.403 95.1072 334.958 95.1072C335.502 95.1072 335.987 94.9846 336.414 94.7392C336.851 94.4832 337.187 94.1259 337.422 93.6672C337.667 93.2086 337.79 92.6859 337.79 92.0992C337.79 91.5232 337.667 91.0112 337.422 90.5632C337.187 90.1046 336.851 89.7472 336.414 89.4912C335.987 89.2352 335.502 89.1072 334.958 89.1072ZM342.863 89.6832C343.141 89.0752 343.535 88.6166 344.047 88.3072C344.559 87.9872 345.167 87.8219 345.871 87.8112V89.2512C345.007 89.2192 344.309 89.4432 343.775 89.9232C343.242 90.4032 342.938 91.0486 342.863 91.8592V96.3232H341.375V87.8592H342.863V89.6832Z" fill="#333333"/>
</svg>
