<svg width="228" height="40" viewBox="0 0 228 40" fill="none" xmlns="http://www.w3.org/2000/svg">
<path fill-rule="evenodd" clip-rule="evenodd" d="M16.7104 33.3799C16.6742 33.3776 17.0828 33.3011 17.9365 33.1505C18.1405 33.1505 18.319 33.125 18.472 33.074H19.1605C21.8635 33.074 23.215 34.196 23.215 36.44C23.215 38.684 21.7105 39.806 18.7015 39.806C17.8345 39.806 16.7635 39.7295 15.4885 39.5765C14.6725 39.4745 13.933 39.398 13.27 39.347C12.607 39.296 11.995 39.2705 11.434 39.2705C10.873 39.2705 9.87848 39.347 8.45047 39.5C7.37946 39.602 6.52522 39.6785 5.88772 39.7295C5.25022 39.7805 4.80397 39.806 4.54897 39.806C1.79495 39.806 0.417969 38.633 0.417969 36.287C0.417969 34.145 1.74396 33.074 4.39597 33.074H4.93147C5.08447 33.125 5.23747 33.1505 5.39047 33.1505L7.53247 33.533C7.94047 33.278 8.16997 32.4365 8.22097 31.0085C8.22097 30.2945 8.24647 29.606 8.29747 28.943C8.34847 28.28 8.37397 27.5915 8.37397 26.8775V15.785C8.37397 13.796 8.33572 12.1895 8.25922 10.9655C8.18272 9.7415 8.09347 8.8745 7.99147 8.3645C7.94047 7.8545 7.76197 7.5995 7.45597 7.5995L6.69097 7.829L5.46697 7.982C5.36497 7.982 5.30122 7.99475 5.27572 8.02025C5.25022 8.04575 5.21197 8.0585 5.16097 8.0585H5.39047C5.23747 8.1095 5.05897 8.135 4.85497 8.135H4.31947C1.71846 8.135 0.417969 7.01301 0.417969 4.769C0.417969 2.47399 1.79495 1.3265 4.54897 1.3265C4.85497 1.3265 5.18647 1.33925 5.54347 1.36475C5.90047 1.39025 6.28297 1.4285 6.69097 1.4795C7.09897 1.5305 7.53247 1.56875 7.99147 1.59425C8.45047 1.61975 8.83297 1.6325 9.13897 1.6325C9.29197 1.6325 9.47047 1.607 9.67447 1.556H10.4395L12.2755 1.3265C14.0095 1.3265 15.0295 2.09149 15.3355 3.6215C16.7125 2.29549 18.1277 1.36475 19.5812 0.829251C21.0347 0.293748 22.807 0.026001 24.898 0.026001C27.295 0.026001 29.335 0.382997 31.018 1.097C32.701 1.811 34.1545 2.98399 35.3785 4.616C36.8575 3.18799 38.5277 2.066 40.3892 1.25C42.2507 0.433997 44.4055 0.026001 46.8535 0.026001C49.7605 0.026001 52.4125 0.637995 54.8095 1.862C57.4105 3.34101 59.272 5.35549 60.394 7.9055C60.751 8.7725 61.006 9.86899 61.159 11.195C61.312 12.521 61.3885 14.051 61.3885 15.785V22.823L61.312 28.2545V30.5495C61.312 31.1105 61.3375 31.5185 61.3885 31.7735C61.5415 32.8955 61.7455 33.4565 62.0005 33.4565C62.2555 33.4565 62.638 33.4055 63.148 33.3035C63.505 33.3035 63.9512 33.278 64.4867 33.227C65.0222 33.176 65.239 33.125 65.137 33.074C67.585 33.176 68.809 34.2215 68.809 36.2105C68.809 38.6075 67.4575 39.806 64.7545 39.806C64.3465 39.806 63.8492 39.7805 63.2627 39.7295C62.6762 39.6785 62.0005 39.602 61.2355 39.5C59.7565 39.347 58.6855 39.2705 58.0225 39.2705C57.6655 39.2705 57.181 39.2832 56.569 39.3088C55.957 39.3343 55.294 39.398 54.58 39.5C53.866 39.602 53.1775 39.6785 52.5145 39.7295C51.8515 39.7805 51.316 39.806 50.908 39.806C48.052 39.806 46.624 38.6075 46.624 36.2105C46.624 34.1195 47.797 33.074 50.143 33.074C50.245 33.074 50.3342 33.0868 50.4107 33.1123C50.4872 33.1378 50.602 33.1505 50.755 33.1505C50.857 33.1505 51.0227 33.1632 51.2522 33.1888C51.4817 33.2143 51.6985 33.227 51.9025 33.227C52.1065 33.278 52.387 33.3035 52.744 33.3035C52.948 33.3035 53.0755 33.1505 53.1265 32.8445C53.3305 32.0285 53.458 30.065 53.509 26.954C53.509 26.24 53.5217 25.5005 53.5472 24.7355C53.5727 23.9705 53.5855 23.231 53.5855 22.517V17.774C53.5855 14.612 53.3687 12.3298 52.9352 10.9273C52.5017 9.52474 51.6985 8.46651 50.5255 7.7525C49.3525 6.9875 47.9755 6.605 46.3945 6.605C43.5385 6.605 41.4985 7.62499 40.2745 9.665C39.3055 11.399 38.821 14.51 38.821 18.998V24.1235C38.821 26.2655 38.8465 28.0377 38.8975 29.4403C38.9485 30.8428 39.025 31.85 39.127 32.462C39.229 33.023 39.4075 33.3035 39.6625 33.3035H40.045C40.249 33.3035 40.4785 33.278 40.7335 33.227C40.9885 33.176 41.3072 33.125 41.6897 33.074C42.0722 33.023 42.238 32.9975 42.187 32.9975C43.207 32.9975 44.0612 33.3162 44.7497 33.9538C45.4382 34.5913 45.7825 35.3945 45.7825 36.3635C45.7825 38.6585 44.2525 39.806 41.1925 39.806C40.7335 39.806 40.2107 39.7805 39.6242 39.7295C39.0377 39.6785 38.3875 39.602 37.6735 39.5C36.9595 39.398 36.3602 39.3215 35.8757 39.2705C35.3912 39.2195 34.996 39.194 34.69 39.194C34.282 39.194 33.7847 39.2195 33.1982 39.2705C32.6117 39.3215 32.038 39.398 31.477 39.5C30.916 39.602 30.355 39.6785 29.794 39.7295C29.233 39.7805 28.6975 39.806 28.1875 39.806C25.3825 39.806 23.98 38.633 23.98 36.287C23.98 34.145 25.1275 33.074 27.4225 33.074C28.0345 33.074 28.5445 33.125 28.9525 33.227C29.2585 33.278 29.5135 33.3162 29.7175 33.3418C29.9215 33.3673 30.0745 33.38 30.1765 33.38C30.4825 33.38 30.661 32.4875 30.712 30.7025C30.712 30.1415 30.7247 29.5805 30.7502 29.0195C30.7757 28.4585 30.7885 27.8975 30.7885 27.3365C30.8395 26.7755 30.865 26.2273 30.865 25.6918V24.1235C30.916 23.7155 30.9415 23.4095 30.9415 23.2055V16.856C30.9415 14.918 30.8267 13.2988 30.5972 11.9983C30.3677 10.6977 29.998 9.6395 29.488 8.8235C28.978 8.0075 28.315 7.43375 27.499 7.10225C26.683 6.77075 25.663 6.605 24.439 6.605C21.634 6.605 19.543 7.62499 18.166 9.665C16.891 11.297 16.2535 14.3825 16.2535 18.9215V28.5605C16.2535 30.4985 16.279 31.595 16.33 31.85C16.4821 32.8643 16.6091 33.3743 16.7108 33.38L16.7104 33.3799Z" fill="#F6ECF5"/>
<path fill-rule="evenodd" clip-rule="evenodd" d="M64 33.3307C65.2205 33.2407 66.2602 32.8653 67.1192 32.2045C68.1138 31.4395 68.611 30.496 68.611 29.374V28.9915L68.4197 29.068C68.5472 29.017 68.56 28.9915 68.458 28.9915C67.387 28.9915 66.4308 28.5835 65.5892 27.7675C64.7477 26.9515 64.327 26.0335 64.327 25.0135C64.327 23.7385 64.8242 22.6675 65.8187 21.8005C66.8133 20.9335 68.05 20.5 69.529 20.5C71.671 20.5 73.3795 21.2522 74.6545 22.7568C75.9295 24.2613 76.567 26.2375 76.567 28.6855C76.567 30.3685 76.261 31.8985 75.649 33.2755C75.037 34.6525 74.17 35.8382 73.048 36.8327C71.926 37.8273 70.6 38.5922 69.07 39.1278C67.5757 39.6508 65.8382 39.7991 64 39.8058V33.3307Z" fill="#F6ECF5"/>
<path d="M90.7321 15.2H92.8741L96.1221 21.514L99.3421 15.2H101.484V25H99.7621V17.972L96.7101 23.992H95.5061L92.4401 17.972V25H90.7321V15.2ZM103.898 15.2H111.08V16.838H105.774V19.26H110.534V20.898H105.774V23.362H111.248V25H103.898V15.2ZM121.036 15.2L117.466 21.794V25H115.59V21.864L111.936 15.2H113.84L116.514 19.806L119.146 15.2H121.036ZM121.154 15.2H129.148V16.866H126.096V25H124.206V16.866H121.154V15.2ZM136.73 25L135.862 22.928H131.074L130.206 25H128.26L132.558 15.2H134.504L138.746 25H136.73ZM131.746 21.318H135.19L133.482 17.202L131.746 21.318ZM139.937 15.2H141.813V23.306H146.041V25H139.937V15.2ZM157.103 17.72C156.599 17.412 156.081 17.174 155.549 17.006C155.026 16.838 154.564 16.754 154.163 16.754C153.715 16.754 153.36 16.838 153.099 17.006C152.838 17.174 152.707 17.4073 152.707 17.706C152.707 17.9767 152.796 18.2053 152.973 18.392C153.16 18.5693 153.388 18.7187 153.659 18.84C153.939 18.952 154.317 19.078 154.793 19.218C155.456 19.414 155.997 19.61 156.417 19.806C156.846 20.002 157.21 20.2913 157.509 20.674C157.808 21.0567 157.957 21.5607 157.957 22.186C157.957 22.7833 157.794 23.306 157.467 23.754C157.15 24.1927 156.706 24.5287 156.137 24.762C155.577 24.9953 154.933 25.112 154.205 25.112C153.44 25.112 152.693 24.972 151.965 24.692C151.237 24.4027 150.602 24.02 150.061 23.544L150.845 21.948C151.34 22.4053 151.895 22.7647 152.511 23.026C153.127 23.2873 153.701 23.418 154.233 23.418C154.756 23.418 155.166 23.32 155.465 23.124C155.764 22.9187 155.913 22.6433 155.913 22.298C155.913 22.018 155.82 21.7893 155.633 21.612C155.456 21.4253 155.227 21.276 154.947 21.164C154.667 21.052 154.284 20.926 153.799 20.786C153.136 20.59 152.595 20.3987 152.175 20.212C151.755 20.0253 151.396 19.7453 151.097 19.372C150.798 18.9893 150.649 18.49 150.649 17.874C150.649 17.3047 150.798 16.81 151.097 16.39C151.405 15.9607 151.834 15.6293 152.385 15.396C152.945 15.1627 153.589 15.046 154.317 15.046C154.952 15.046 155.577 15.1393 156.193 15.326C156.818 15.5127 157.374 15.7647 157.859 16.082L157.103 17.72ZM158.642 15.2H166.636V16.866H163.584V25H161.694V16.866H158.642V15.2ZM174.219 25L173.351 22.928H168.563L167.695 25H165.749L170.047 15.2H171.993L176.235 25H174.219ZM169.235 21.318H172.679L170.971 17.202L169.235 21.318ZM184.257 15.2H186.077V25H184.299L179.259 18.252V25H177.425V15.2H179.203L184.257 21.962V15.2ZM195.584 18.028C195.239 17.6267 194.828 17.314 194.352 17.09C193.885 16.866 193.409 16.754 192.924 16.754C192.317 16.754 191.762 16.8987 191.258 17.188C190.754 17.4773 190.357 17.8787 190.068 18.392C189.779 18.896 189.634 19.4513 189.634 20.058C189.634 20.6647 189.779 21.2247 190.068 21.738C190.357 22.242 190.754 22.6433 191.258 22.942C191.762 23.2313 192.317 23.376 192.924 23.376C193.391 23.376 193.857 23.2733 194.324 23.068C194.8 22.8627 195.22 22.578 195.584 22.214L196.69 23.446C196.177 23.9687 195.579 24.384 194.898 24.692C194.217 24.9907 193.526 25.14 192.826 25.14C191.883 25.14 191.02 24.916 190.236 24.468C189.452 24.02 188.836 23.4133 188.388 22.648C187.94 21.8733 187.716 21.0193 187.716 20.086C187.716 19.1527 187.945 18.3033 188.402 17.538C188.859 16.7727 189.48 16.1707 190.264 15.732C191.057 15.2933 191.935 15.074 192.896 15.074C193.596 15.074 194.282 15.214 194.954 15.494C195.626 15.774 196.2 16.1613 196.676 16.656L195.584 18.028ZM198.234 15.2H205.416V16.838H200.11V19.26H204.87V20.898H200.11V23.362H205.584V25H198.234V15.2ZM216.24 25H213.986L210.906 20.8L209.366 22.494V25H207.49V15.2H209.366V20.086L213.79 15.2H216.002L212.236 19.344L216.24 25Z" fill="#F6ECF5"/>
</svg>
