<svg width="91" height="53" viewBox="0 0 91 53" fill="none" xmlns="http://www.w3.org/2000/svg">
<path fill-rule="evenodd" clip-rule="evenodd" d="M30.2855 23.4073C30.2604 23.4057 30.5434 23.3529 31.1347 23.2487C31.276 23.2487 31.3997 23.2311 31.5057 23.1958H31.9826C33.8549 23.1958 34.7911 23.9715 34.7911 25.523C34.7911 27.0745 33.7489 27.8502 31.6646 27.8502C31.0641 27.8502 30.3222 27.7973 29.4391 27.6915C28.8738 27.621 28.3616 27.5681 27.9023 27.5328C27.4431 27.4976 27.0192 27.4799 26.6306 27.4799C26.242 27.4799 25.5531 27.5328 24.564 27.6386C23.8221 27.7091 23.2304 27.762 22.7888 27.7973C22.3472 27.8325 22.0381 27.8502 21.8615 27.8502C19.9538 27.8502 19 27.0392 19 25.4172C19 23.9363 19.9185 23.1958 21.7555 23.1958H22.1264C22.2324 23.2311 22.3384 23.2487 22.4444 23.2487L23.9281 23.5132C24.2107 23.3369 24.3697 22.7551 24.405 21.7678C24.405 21.2741 24.4227 20.7981 24.458 20.3397C24.4933 19.8814 24.511 19.4053 24.511 18.9117V11.2426C24.511 9.86743 24.4845 8.75675 24.4315 7.9105C24.3785 7.06424 24.3167 6.46483 24.246 6.11222C24.2107 5.75962 24.0871 5.58332 23.8751 5.58332L23.3452 5.74199L22.4973 5.84777C22.4267 5.84777 22.3825 5.85658 22.3649 5.87421C22.3472 5.89185 22.3207 5.90066 22.2854 5.90066H22.4444C22.3384 5.93592 22.2147 5.95355 22.0734 5.95355H21.7025C19.9008 5.95355 19 5.17783 19 3.62637C19 2.03965 19.9538 1.2463 21.8615 1.2463C22.0734 1.2463 22.3031 1.25512 22.5503 1.27275C22.7976 1.29038 23.0626 1.31683 23.3452 1.35209C23.6278 1.38735 23.9281 1.41379 24.246 1.43142C24.564 1.44905 24.8289 1.45787 25.0409 1.45787C25.1469 1.45787 25.2705 1.44024 25.4118 1.40498H25.9417L27.2135 1.2463C28.4146 1.2463 29.1211 1.7752 29.3331 2.83302C30.2869 1.91625 31.2672 1.27275 32.274 0.902517C33.2808 0.532283 34.5084 0.347168 35.9568 0.347168C37.6172 0.347168 39.0303 0.593987 40.1961 1.08763C41.3618 1.58128 42.3686 2.39226 43.2165 3.52059C44.241 2.5333 45.3979 1.75758 46.6873 1.19341C47.9768 0.629247 49.4693 0.347168 51.165 0.347168C53.1786 0.347168 55.0156 0.770287 56.676 1.61654C58.4777 2.63909 59.7671 4.03186 60.5443 5.79488C60.7916 6.39431 60.9682 7.1524 61.0742 8.06917C61.1801 8.98594 61.2331 10.0437 61.2331 11.2426V16.1085L61.1801 19.8637V21.4504C61.1801 21.8383 61.1978 22.1204 61.2331 22.2967C61.3391 23.0724 61.4804 23.4603 61.6571 23.4603C61.8337 23.4603 62.0986 23.425 62.4519 23.3545C62.6992 23.3545 63.0083 23.3369 63.3792 23.3016C63.7502 23.2663 63.9003 23.2311 63.8297 23.1958C65.5254 23.2663 66.3732 23.9892 66.3732 25.3643C66.3732 27.0216 65.437 27.8502 63.5647 27.8502C63.2821 27.8502 62.9377 27.8325 62.5314 27.7973C62.1251 27.762 61.6571 27.7091 61.1272 27.6386C60.1027 27.5328 59.3608 27.4799 58.9016 27.4799C58.6543 27.4799 58.3187 27.4888 57.8948 27.5064C57.4708 27.524 57.0116 27.5681 56.517 27.6386C56.0224 27.7091 55.5455 27.762 55.0863 27.7973C54.627 27.8325 54.2561 27.8502 53.9735 27.8502C51.9952 27.8502 51.006 27.0216 51.006 25.3643C51.006 23.9186 51.8186 23.1958 53.4436 23.1958C53.5142 23.1958 53.5761 23.2046 53.6291 23.2223C53.682 23.2399 53.7615 23.2487 53.8675 23.2487C53.9382 23.2487 54.053 23.2575 54.2119 23.2752C54.3709 23.2928 54.5211 23.3016 54.6624 23.3016C54.8037 23.3369 54.998 23.3545 55.2453 23.3545C55.3866 23.3545 55.4749 23.2487 55.5102 23.0372C55.6515 22.473 55.7398 21.1155 55.7752 18.9646C55.7752 18.4709 55.784 17.9597 55.8017 17.4308C55.8193 16.9019 55.8281 16.3906 55.8281 15.8969V12.6177C55.8281 10.4316 55.678 8.85371 55.3777 7.88405C55.0774 6.91439 54.5211 6.18274 53.7085 5.6891C52.896 5.16019 51.9422 4.89574 50.8471 4.89574C48.8688 4.89574 47.4557 5.60094 46.6079 7.01136C45.9367 8.21021 45.601 10.3611 45.601 13.464V17.0076C45.601 18.4886 45.6187 19.7139 45.654 20.6835C45.6894 21.6532 45.7424 22.3496 45.813 22.7727C45.8837 23.1606 46.0073 23.3545 46.1839 23.3545H46.4489C46.5902 23.3545 46.7492 23.3369 46.9258 23.3016C47.1024 23.2663 47.3232 23.2311 47.5882 23.1958C47.8531 23.1606 47.9679 23.1429 47.9326 23.1429C48.6392 23.1429 49.2309 23.3633 49.7078 23.8041C50.1847 24.2448 50.4232 24.8002 50.4232 25.4701C50.4232 27.0568 49.3634 27.8502 47.2437 27.8502C46.9258 27.8502 46.5637 27.8325 46.1574 27.7973C45.7512 27.762 45.3008 27.7091 44.8062 27.6386C44.3116 27.5681 43.8965 27.5152 43.5609 27.4799C43.2253 27.4447 42.9515 27.4271 42.7396 27.4271C42.457 27.4271 42.1125 27.4447 41.7063 27.4799C41.3 27.5152 40.9026 27.5681 40.514 27.6386C40.1254 27.7091 39.7368 27.762 39.3482 27.7973C38.9596 27.8325 38.5887 27.8502 38.2354 27.8502C36.2924 27.8502 35.321 27.0392 35.321 25.4172C35.321 23.9363 36.1158 23.1958 37.7055 23.1958C38.1294 23.1958 38.4827 23.2311 38.7653 23.3016C38.9773 23.3369 39.1539 23.3633 39.2952 23.3809C39.4365 23.3986 39.5425 23.4074 39.6132 23.4074C39.8251 23.4074 39.9488 22.7903 39.9841 21.5562C39.9841 21.1684 39.9929 20.7805 40.0106 20.3926C40.0283 20.0048 40.0371 19.6169 40.0371 19.229C40.0724 18.8412 40.0901 18.4621 40.0901 18.0919V17.0076C40.1254 16.7256 40.1431 16.514 40.1431 16.373V11.9831C40.1431 10.6432 40.0636 9.52366 39.9046 8.62452C39.7456 7.72538 39.4895 6.99373 39.1363 6.42956C38.783 5.8654 38.3237 5.46872 37.7585 5.23953C37.1933 5.01034 36.4867 4.89574 35.6389 4.89574C33.6959 4.89574 32.2475 5.60094 31.2937 7.01136C30.4105 8.13969 29.969 10.2729 29.969 13.4111V20.0753C29.969 21.4152 29.9866 22.1733 30.0219 22.3496C30.1273 23.0509 30.2153 23.4035 30.2857 23.4074L30.2855 23.4073Z" fill="#DFD0E3"/>
<path fill-rule="evenodd" clip-rule="evenodd" d="M63.0421 23.373C63.8875 23.3108 64.6077 23.0512 65.2028 22.5944C65.8916 22.0655 66.2361 21.4132 66.2361 20.6375V20.373L66.1036 20.4259C66.1919 20.3906 66.2007 20.373 66.1301 20.373C65.3882 20.373 64.7259 20.0909 64.143 19.5268C63.5601 18.9626 63.2686 18.3279 63.2686 17.6227C63.2686 16.7412 63.6131 16.0008 64.3019 15.4013C64.9908 14.8019 65.8475 14.5022 66.872 14.5022C68.3557 14.5022 69.5391 15.0223 70.4223 16.0625C71.3055 17.1026 71.7471 18.469 71.7471 20.1614C71.7471 21.325 71.5351 22.3828 71.1112 23.3349C70.6872 24.2869 70.0867 25.1067 69.3095 25.7942C68.5323 26.4818 67.6138 27.0107 66.554 27.381C65.5189 27.7425 64.3154 27.8451 63.0421 27.8497V23.373Z" fill="#DFD0E3"/>
<path d="M0.86 38H2.39L4.71 42.51L7.01 38H8.54V45H7.31V39.98L5.13 44.28H4.27L2.08 39.98V45H0.86V38ZM10.2643 38H15.3943V39.17H11.6043V40.9H15.0043V42.07H11.6043V43.83H15.5143V45H10.2643V38ZM22.5056 38L19.9556 42.71V45H18.6156V42.76L16.0056 38H17.3656L19.2756 41.29L21.1556 38H22.5056ZM22.5898 38H28.2998V39.19H26.1198V45H24.7698V39.19H22.5898V38ZM33.7158 45L33.0958 43.52H29.6758L29.0558 45H27.6658L30.7358 38H32.1258L35.1558 45H33.7158ZM30.1558 42.37H32.6158L31.3958 39.43L30.1558 42.37ZM36.0065 38H37.3465V43.79H40.3665V45H36.0065V38ZM48.2678 39.8C47.9078 39.58 47.5378 39.41 47.1578 39.29C46.7845 39.17 46.4545 39.11 46.1678 39.11C45.8478 39.11 45.5945 39.17 45.4078 39.29C45.2211 39.41 45.1278 39.5767 45.1278 39.79C45.1278 39.9833 45.1911 40.1467 45.3178 40.28C45.4511 40.4067 45.6145 40.5133 45.8078 40.6C46.0078 40.68 46.2778 40.77 46.6178 40.87C47.0911 41.01 47.4778 41.15 47.7778 41.29C48.0845 41.43 48.3445 41.6367 48.5578 41.91C48.7711 42.1833 48.8778 42.5433 48.8778 42.99C48.8778 43.4167 48.7611 43.79 48.5278 44.11C48.3011 44.4233 47.9845 44.6633 47.5778 44.83C47.1778 44.9967 46.7178 45.08 46.1978 45.08C45.6511 45.08 45.1178 44.98 44.5978 44.78C44.0778 44.5733 43.6245 44.3 43.2378 43.96L43.7978 42.82C44.1511 43.1467 44.5478 43.4033 44.9878 43.59C45.4278 43.7767 45.8378 43.87 46.2178 43.87C46.5911 43.87 46.8845 43.8 47.0978 43.66C47.3111 43.5133 47.4178 43.3167 47.4178 43.07C47.4178 42.87 47.3511 42.7067 47.2178 42.58C47.0911 42.4467 46.9278 42.34 46.7278 42.26C46.5278 42.18 46.2545 42.09 45.9078 41.99C45.4345 41.85 45.0478 41.7133 44.7478 41.58C44.4478 41.4467 44.1911 41.2467 43.9778 40.98C43.7645 40.7067 43.6578 40.35 43.6578 39.91C43.6578 39.5033 43.7645 39.15 43.9778 38.85C44.1978 38.5433 44.5045 38.3067 44.8978 38.14C45.2978 37.9733 45.7578 37.89 46.2778 37.89C46.7311 37.89 47.1778 37.9567 47.6178 38.09C48.0645 38.2233 48.4611 38.4033 48.8078 38.63L48.2678 39.8ZM49.3671 38H55.0771V39.19H52.8971V45H51.5471V39.19H49.3671V38ZM60.4931 45L59.8731 43.52H56.4531L55.8331 45H54.4431L57.5131 38H58.9031L61.9331 45H60.4931ZM56.9331 42.37H59.3931L58.1731 39.43L56.9331 42.37ZM67.6638 38H68.9638V45H67.6938L64.0938 40.18V45H62.7838V38H64.0538L67.6638 42.83V38ZM75.7542 40.02C75.5076 39.7333 75.2142 39.51 74.8742 39.35C74.5409 39.19 74.2009 39.11 73.8542 39.11C73.4209 39.11 73.0242 39.2133 72.6642 39.42C72.3042 39.6267 72.0209 39.9133 71.8142 40.28C71.6076 40.64 71.5042 41.0367 71.5042 41.47C71.5042 41.9033 71.6076 42.3033 71.8142 42.67C72.0209 43.03 72.3042 43.3167 72.6642 43.53C73.0242 43.7367 73.4209 43.84 73.8542 43.84C74.1876 43.84 74.5209 43.7667 74.8542 43.62C75.1942 43.4733 75.4942 43.27 75.7542 43.01L76.5442 43.89C76.1776 44.2633 75.7509 44.56 75.2642 44.78C74.7776 44.9933 74.2842 45.1 73.7842 45.1C73.1109 45.1 72.4942 44.94 71.9342 44.62C71.3742 44.3 70.9342 43.8667 70.6142 43.32C70.2942 42.7667 70.1342 42.1567 70.1342 41.49C70.1342 40.8233 70.2976 40.2167 70.6242 39.67C70.9509 39.1233 71.3942 38.6933 71.9542 38.38C72.5209 38.0667 73.1476 37.91 73.8342 37.91C74.3342 37.91 74.8242 38.01 75.3042 38.21C75.7842 38.41 76.1942 38.6867 76.5342 39.04L75.7542 40.02ZM77.6471 38H82.7771V39.17H78.9871V40.9H82.3871V42.07H78.9871V43.83H82.8971V45H77.6471V38ZM90.5084 45H88.8984L86.6984 42L85.5984 43.21V45H84.2584V38H85.5984V41.49L88.7584 38H90.3384L87.6484 40.96L90.5084 45Z" fill="#DFD0E3"/>
</svg>
