<svg width="495" height="67" viewBox="0 0 495 67" fill="none" xmlns="http://www.w3.org/2000/svg">
<path d="M36.207 32C36.207 25.44 35.367 20.72 33.687 17.84C32.087 14.88 29.047 13.4 24.567 13.4C22.967 13.4 21.207 13.52 19.287 13.76C17.367 14 15.927 14.2 14.967 14.36V65H0.447032V4.27999C3.24703 3.48 6.88703 2.72 11.367 2C15.927 1.28 20.727 0.919995 25.767 0.919995C30.087 0.919995 33.607 1.48 36.327 2.6C39.127 3.72 41.447 5.2 43.287 7.04C44.167 6.4 45.287 5.72 46.647 5C48.007 4.28 49.527 3.64 51.207 3.08C52.887 2.43999 54.647 1.91999 56.487 1.51999C58.407 1.12 60.327 0.919995 62.247 0.919995C67.127 0.919995 71.127 1.64 74.247 3.08C77.447 4.44 79.927 6.4 81.687 8.96C83.527 11.44 84.767 14.48 85.407 18.08C86.127 21.6 86.487 25.48 86.487 29.72V65H71.967V32C71.967 25.44 71.167 20.72 69.567 17.84C67.967 14.88 64.887 13.4 60.327 13.4C58.007 13.4 55.807 13.8 53.727 14.6C51.647 15.32 50.087 16.04 49.047 16.76C49.687 18.76 50.127 20.88 50.367 23.12C50.607 25.36 50.727 27.76 50.727 30.32V65H36.207V32ZM126.355 54.8C130.835 54.8 134.235 54.56 136.555 54.08V38C135.755 37.76 134.595 37.52 133.075 37.28C131.555 37.04 129.875 36.92 128.035 36.92C126.435 36.92 124.795 37.04 123.115 37.28C121.515 37.52 120.035 37.96 118.675 38.6C117.395 39.24 116.355 40.16 115.555 41.36C114.755 42.48 114.355 43.92 114.355 45.68C114.355 49.12 115.435 51.52 117.595 52.88C119.755 54.16 122.675 54.8 126.355 54.8ZM125.155 0.679998C129.955 0.679998 133.995 1.28 137.275 2.48C140.555 3.68 143.155 5.36 145.075 7.52C147.075 9.68 148.475 12.32 149.275 15.44C150.155 18.48 150.595 21.84 150.595 25.52V63.56C148.355 64.04 144.955 64.6 140.395 65.24C135.915 65.96 130.835 66.32 125.155 66.32C121.395 66.32 117.955 65.96 114.835 65.24C111.715 64.52 109.035 63.36 106.795 61.76C104.635 60.16 102.915 58.08 101.635 55.52C100.435 52.96 99.8352 49.8 99.8352 46.04C99.8352 42.44 100.515 39.4 101.875 36.92C103.315 34.44 105.235 32.44 107.635 30.92C110.035 29.32 112.795 28.2 115.915 27.56C119.115 26.84 122.435 26.48 125.875 26.48C127.475 26.48 129.155 26.6 130.915 26.84C132.675 27 134.555 27.32 136.555 27.8V25.4C136.555 23.72 136.355 22.12 135.955 20.6C135.555 19.08 134.835 17.76 133.795 16.64C132.835 15.44 131.515 14.52 129.835 13.88C128.235 13.24 126.195 12.92 123.715 12.92C120.355 12.92 117.275 13.16 114.475 13.64C111.675 14.12 109.395 14.68 107.635 15.32L105.835 3.56C107.675 2.92 110.355 2.28 113.875 1.64C117.395 0.999999 121.155 0.679998 125.155 0.679998ZM164.897 33.68C164.897 29.04 165.617 24.72 167.057 20.72C168.497 16.64 170.537 13.12 173.177 10.16C175.897 7.2 179.177 4.88 183.017 3.19999C186.857 1.52 191.177 0.679998 195.977 0.679998C201.897 0.679998 207.497 1.76 212.777 3.92L209.657 15.8C207.977 15.08 206.057 14.48 203.897 14C201.817 13.52 199.577 13.28 197.177 13.28C191.497 13.28 187.177 15.08 184.217 18.68C181.257 22.2 179.777 27.2 179.777 33.68C179.777 39.92 181.177 44.88 183.977 48.56C186.777 52.16 191.497 53.96 198.137 53.96C200.617 53.96 203.057 53.72 205.457 53.24C207.857 52.76 209.937 52.16 211.697 51.44L213.737 63.44C212.137 64.24 209.697 64.96 206.417 65.6C203.217 66.24 199.897 66.56 196.457 66.56C191.097 66.56 186.417 65.76 182.417 64.16C178.497 62.48 175.217 60.2 172.577 57.32C170.017 54.36 168.097 50.88 166.817 46.88C165.537 42.8 164.897 38.4 164.897 33.68ZM260.738 15.32C259.538 14.92 257.858 14.52 255.698 14.12C253.618 13.64 251.178 13.4 248.378 13.4C246.778 13.4 245.058 13.56 243.218 13.88C241.458 14.2 240.218 14.48 239.498 14.72V65H224.978V5.24C227.778 4.2 231.258 3.24 235.418 2.36C239.658 1.4 244.338 0.919995 249.458 0.919995C250.418 0.919995 251.538 0.999997 252.818 1.16C254.098 1.24 255.378 1.4 256.658 1.64C257.938 1.8 259.178 2.04 260.378 2.36C261.578 2.6 262.538 2.83999 263.258 3.08L260.738 15.32ZM295.457 54.8C299.937 54.8 303.337 54.56 305.657 54.08V38C304.857 37.76 303.697 37.52 302.177 37.28C300.657 37.04 298.977 36.92 297.137 36.92C295.537 36.92 293.897 37.04 292.217 37.28C290.617 37.52 289.137 37.96 287.777 38.6C286.497 39.24 285.457 40.16 284.657 41.36C283.857 42.48 283.457 43.92 283.457 45.68C283.457 49.12 284.537 51.52 286.697 52.88C288.857 54.16 291.777 54.8 295.457 54.8ZM294.257 0.679998C299.057 0.679998 303.097 1.28 306.377 2.48C309.657 3.68 312.257 5.36 314.177 7.52C316.177 9.68 317.577 12.32 318.377 15.44C319.257 18.48 319.697 21.84 319.697 25.52V63.56C317.457 64.04 314.057 64.6 309.497 65.24C305.017 65.96 299.937 66.32 294.257 66.32C290.497 66.32 287.057 65.96 283.937 65.24C280.817 64.52 278.137 63.36 275.897 61.76C273.737 60.16 272.017 58.08 270.737 55.52C269.537 52.96 268.937 49.8 268.937 46.04C268.937 42.44 269.617 39.4 270.977 36.92C272.417 34.44 274.337 32.44 276.737 30.92C279.137 29.32 281.897 28.2 285.017 27.56C288.217 26.84 291.537 26.48 294.977 26.48C296.577 26.48 298.257 26.6 300.017 26.84C301.777 27 303.657 27.32 305.657 27.8V25.4C305.657 23.72 305.457 22.12 305.057 20.6C304.657 19.08 303.937 17.76 302.897 16.64C301.937 15.44 300.617 14.52 298.937 13.88C297.337 13.24 295.297 12.92 292.817 12.92C289.457 12.92 286.377 13.16 283.577 13.64C280.777 14.12 278.497 14.68 276.737 15.32L274.937 3.56C276.777 2.92 279.457 2.28 282.977 1.64C286.497 0.999999 290.257 0.679998 294.257 0.679998ZM373.238 32C373.238 25.44 372.398 20.72 370.718 17.84C369.118 14.88 366.078 13.4 361.598 13.4C359.998 13.4 358.238 13.52 356.318 13.76C354.398 14 352.958 14.2 351.998 14.36V65H337.478V4.27999C340.278 3.48 343.918 2.72 348.398 2C352.958 1.28 357.758 0.919995 362.798 0.919995C367.118 0.919995 370.638 1.48 373.358 2.6C376.158 3.72 378.478 5.2 380.318 7.04C381.198 6.4 382.318 5.72 383.678 5C385.038 4.28 386.558 3.64 388.238 3.08C389.918 2.43999 391.678 1.91999 393.518 1.51999C395.438 1.12 397.358 0.919995 399.278 0.919995C404.158 0.919995 408.158 1.64 411.278 3.08C414.478 4.44 416.958 6.4 418.718 8.96C420.558 11.44 421.798 14.48 422.438 18.08C423.158 21.6 423.518 25.48 423.518 29.72V65H408.998V32C408.998 25.44 408.198 20.72 406.598 17.84C404.998 14.88 401.918 13.4 397.358 13.4C395.038 13.4 392.838 13.8 390.758 14.6C388.678 15.32 387.118 16.04 386.078 16.76C386.718 18.76 387.158 20.88 387.398 23.12C387.638 25.36 387.758 27.76 387.758 30.32V65H373.238V32ZM437.826 33.92C437.826 28.4 438.626 23.56 440.226 19.4C441.906 15.24 444.106 11.8 446.826 9.08C449.546 6.28 452.666 4.2 456.186 2.84C459.706 1.4 463.306 0.679998 466.986 0.679998C475.626 0.679998 482.346 3.36 487.146 8.72C492.026 14.08 494.466 22.08 494.466 32.72C494.466 33.52 494.426 34.44 494.346 35.48C494.346 36.44 494.306 37.32 494.226 38.12H452.826C453.226 43.16 454.986 47.08 458.106 49.88C461.306 52.6 465.906 53.96 471.906 53.96C475.426 53.96 478.626 53.64 481.506 53C484.466 52.36 486.786 51.68 488.466 50.96L490.386 62.84C489.586 63.24 488.466 63.68 487.026 64.16C485.666 64.56 484.066 64.92 482.226 65.24C480.466 65.64 478.546 65.96 476.466 66.2C474.386 66.44 472.266 66.56 470.106 66.56C464.586 66.56 459.786 65.76 455.706 64.16C451.626 62.48 448.266 60.2 445.626 57.32C442.986 54.36 441.026 50.92 439.746 47C438.466 43 437.826 38.64 437.826 33.92ZM479.946 27.44C479.946 25.44 479.666 23.56 479.106 21.8C478.546 19.96 477.706 18.4 476.586 17.12C475.546 15.76 474.226 14.72 472.626 14C471.106 13.2 469.266 12.8 467.106 12.8C464.866 12.8 462.906 13.24 461.226 14.12C459.546 14.92 458.106 16 456.906 17.36C455.786 18.72 454.906 20.28 454.266 22.04C453.626 23.8 453.186 25.6 452.946 27.44H479.946Z" fill="#5EBABC"/>
</svg>
