<svg width="382" height="307" viewBox="0 0 382 307" fill="none" xmlns="http://www.w3.org/2000/svg">
<g filter="url(#filter0_d)">
<rect x="4" width="374" height="298.471" fill="#4CAEB7"/>
</g>
<rect x="101.666" y="138.934" width="177.19" height="28.2031" rx="14.1016" fill="#CC198F"/>
<path d="M153.729 151.304V156.548C153.729 157.068 153.665 157.536 153.537 157.952C153.409 158.376 153.209 158.732 152.937 159.02C152.673 159.316 152.337 159.544 151.929 159.704C151.521 159.864 151.037 159.944 150.477 159.944C150.245 159.944 149.997 159.924 149.733 159.884C149.477 159.844 149.221 159.784 148.965 159.704C148.717 159.624 148.477 159.524 148.245 159.404C148.013 159.284 147.805 159.148 147.621 158.996L148.449 157.88C148.729 158.144 149.045 158.344 149.397 158.48C149.749 158.624 150.105 158.696 150.465 158.696C150.809 158.696 151.097 158.644 151.329 158.54C151.569 158.444 151.757 158.308 151.893 158.132C152.037 157.956 152.137 157.748 152.193 157.508C152.257 157.268 152.289 157.004 152.289 156.716V156.296H152.265C152.057 156.576 151.789 156.792 151.461 156.944C151.141 157.088 150.781 157.16 150.381 157.16C149.949 157.16 149.557 157.08 149.205 156.92C148.853 156.76 148.553 156.544 148.305 156.272C148.065 156 147.877 155.684 147.741 155.324C147.605 154.956 147.537 154.568 147.537 154.16C147.537 153.744 147.601 153.352 147.729 152.984C147.865 152.616 148.053 152.296 148.293 152.024C148.541 151.752 148.837 151.536 149.181 151.376C149.533 151.216 149.925 151.136 150.357 151.136C150.765 151.136 151.145 151.22 151.497 151.388C151.849 151.556 152.129 151.816 152.337 152.168H152.361V151.304H153.729ZM150.657 152.312C150.393 152.312 150.157 152.36 149.949 152.456C149.749 152.552 149.577 152.684 149.433 152.852C149.297 153.012 149.189 153.204 149.109 153.428C149.037 153.652 149.001 153.892 149.001 154.148C149.001 154.38 149.037 154.604 149.109 154.82C149.189 155.036 149.297 155.232 149.433 155.408C149.577 155.576 149.749 155.712 149.949 155.816C150.157 155.92 150.389 155.972 150.645 155.972C150.909 155.972 151.145 155.924 151.353 155.828C151.569 155.724 151.749 155.588 151.893 155.42C152.045 155.252 152.161 155.06 152.241 154.844C152.321 154.62 152.361 154.388 152.361 154.148C152.361 153.9 152.321 153.664 152.241 153.44C152.161 153.216 152.045 153.02 151.893 152.852C151.749 152.684 151.573 152.552 151.365 152.456C151.157 152.36 150.921 152.312 150.657 152.312ZM155.119 154.16C155.119 153.704 155.199 153.292 155.359 152.924C155.527 152.548 155.751 152.228 156.031 151.964C156.311 151.7 156.643 151.496 157.027 151.352C157.411 151.208 157.819 151.136 158.251 151.136C158.683 151.136 159.091 151.208 159.475 151.352C159.859 151.496 160.191 151.7 160.471 151.964C160.751 152.228 160.971 152.548 161.131 152.924C161.299 153.292 161.383 153.704 161.383 154.16C161.383 154.616 161.299 155.032 161.131 155.408C160.971 155.784 160.751 156.108 160.471 156.38C160.191 156.644 159.859 156.852 159.475 157.004C159.091 157.156 158.683 157.232 158.251 157.232C157.819 157.232 157.411 157.156 157.027 157.004C156.643 156.852 156.311 156.644 156.031 156.38C155.751 156.108 155.527 155.784 155.359 155.408C155.199 155.032 155.119 154.616 155.119 154.16ZM156.583 154.16C156.583 154.384 156.615 154.608 156.679 154.832C156.751 155.056 156.855 155.256 156.991 155.432C157.127 155.608 157.299 155.752 157.507 155.864C157.715 155.976 157.963 156.032 158.251 156.032C158.539 156.032 158.787 155.976 158.995 155.864C159.203 155.752 159.375 155.608 159.511 155.432C159.647 155.256 159.747 155.056 159.811 154.832C159.883 154.608 159.919 154.384 159.919 154.16C159.919 153.936 159.883 153.716 159.811 153.5C159.747 153.276 159.647 153.076 159.511 152.9C159.375 152.724 159.203 152.584 158.995 152.48C158.787 152.368 158.539 152.312 158.251 152.312C157.963 152.312 157.715 152.368 157.507 152.48C157.299 152.584 157.127 152.724 156.991 152.9C156.855 153.076 156.751 153.276 156.679 153.5C156.615 153.716 156.583 153.936 156.583 154.16ZM164.951 152.456V151.304H165.959V149.636H167.375V151.304H168.815V152.456H167.375V155.132C167.375 155.388 167.419 155.6 167.507 155.768C167.603 155.936 167.811 156.02 168.131 156.02C168.227 156.02 168.331 156.012 168.443 155.996C168.555 155.972 168.655 155.94 168.743 155.9L168.791 157.028C168.663 157.076 168.511 157.112 168.335 157.136C168.159 157.168 167.991 157.184 167.831 157.184C167.447 157.184 167.135 157.132 166.895 157.028C166.655 156.916 166.463 156.768 166.319 156.584C166.183 156.392 166.087 156.176 166.031 155.936C165.983 155.688 165.959 155.424 165.959 155.144V152.456H164.951ZM169.521 154.16C169.521 153.704 169.601 153.292 169.761 152.924C169.929 152.548 170.153 152.228 170.433 151.964C170.713 151.7 171.045 151.496 171.429 151.352C171.813 151.208 172.221 151.136 172.653 151.136C173.085 151.136 173.493 151.208 173.877 151.352C174.261 151.496 174.593 151.7 174.873 151.964C175.153 152.228 175.373 152.548 175.533 152.924C175.701 153.292 175.785 153.704 175.785 154.16C175.785 154.616 175.701 155.032 175.533 155.408C175.373 155.784 175.153 156.108 174.873 156.38C174.593 156.644 174.261 156.852 173.877 157.004C173.493 157.156 173.085 157.232 172.653 157.232C172.221 157.232 171.813 157.156 171.429 157.004C171.045 156.852 170.713 156.644 170.433 156.38C170.153 156.108 169.929 155.784 169.761 155.408C169.601 155.032 169.521 154.616 169.521 154.16ZM170.985 154.16C170.985 154.384 171.017 154.608 171.081 154.832C171.153 155.056 171.257 155.256 171.393 155.432C171.529 155.608 171.701 155.752 171.909 155.864C172.117 155.976 172.365 156.032 172.653 156.032C172.941 156.032 173.189 155.976 173.397 155.864C173.605 155.752 173.777 155.608 173.913 155.432C174.049 155.256 174.149 155.056 174.213 154.832C174.285 154.608 174.321 154.384 174.321 154.16C174.321 153.936 174.285 153.716 174.213 153.5C174.149 153.276 174.049 153.076 173.913 152.9C173.777 152.724 173.605 152.584 173.397 152.48C173.189 152.368 172.941 152.312 172.653 152.312C172.365 152.312 172.117 152.368 171.909 152.48C171.701 152.584 171.529 152.724 171.393 152.9C171.257 153.076 171.153 153.276 171.081 153.5C171.017 153.716 170.985 153.936 170.985 154.16ZM180.253 148.568H183.265C183.817 148.568 184.373 148.64 184.933 148.784C185.493 148.928 185.997 149.168 186.445 149.504C186.893 149.832 187.257 150.268 187.537 150.812C187.817 151.348 187.957 152.016 187.957 152.816C187.957 153.56 187.817 154.2 187.537 154.736C187.257 155.272 186.893 155.712 186.445 156.056C185.997 156.4 185.493 156.656 184.933 156.824C184.373 156.984 183.817 157.064 183.265 157.064H180.253V148.568ZM183.025 155.744C183.417 155.744 183.809 155.7 184.201 155.612C184.593 155.516 184.945 155.36 185.257 155.144C185.577 154.92 185.837 154.62 186.037 154.244C186.237 153.868 186.337 153.392 186.337 152.816C186.337 152.208 186.237 151.712 186.037 151.328C185.837 150.944 185.577 150.644 185.257 150.428C184.945 150.212 184.593 150.064 184.201 149.984C183.809 149.904 183.417 149.864 183.025 149.864H181.765V155.744H183.025ZM192.921 156.332H192.885C192.741 156.588 192.509 156.8 192.189 156.968C191.869 157.128 191.505 157.208 191.097 157.208C190.865 157.208 190.621 157.176 190.365 157.112C190.117 157.056 189.885 156.96 189.669 156.824C189.461 156.68 189.285 156.496 189.141 156.272C189.005 156.04 188.937 155.756 188.937 155.42C188.937 154.988 189.057 154.644 189.297 154.388C189.545 154.132 189.861 153.936 190.245 153.8C190.629 153.664 191.053 153.576 191.517 153.536C191.989 153.488 192.449 153.464 192.897 153.464V153.32C192.897 152.96 192.765 152.696 192.501 152.528C192.245 152.352 191.937 152.264 191.577 152.264C191.273 152.264 190.981 152.328 190.701 152.456C190.421 152.584 190.189 152.74 190.005 152.924L189.261 152.048C189.589 151.744 189.965 151.516 190.389 151.364C190.821 151.212 191.257 151.136 191.697 151.136C192.209 151.136 192.629 151.208 192.957 151.352C193.293 151.496 193.557 151.684 193.749 151.916C193.941 152.148 194.073 152.408 194.145 152.696C194.225 152.984 194.265 153.272 194.265 153.56V157.064H192.921V156.332ZM192.897 154.436H192.573C192.341 154.436 192.097 154.448 191.841 154.472C191.585 154.488 191.349 154.532 191.133 154.604C190.917 154.668 190.737 154.764 190.593 154.892C190.449 155.012 190.377 155.18 190.377 155.396C190.377 155.532 190.405 155.648 190.461 155.744C190.525 155.832 190.605 155.904 190.701 155.96C190.797 156.016 190.905 156.056 191.025 156.08C191.145 156.104 191.265 156.116 191.385 156.116C191.881 156.116 192.257 155.984 192.513 155.72C192.769 155.456 192.897 155.096 192.897 154.64V154.436ZM199.099 152.84C198.971 152.672 198.795 152.528 198.571 152.408C198.347 152.28 198.103 152.216 197.839 152.216C197.607 152.216 197.395 152.264 197.203 152.36C197.011 152.456 196.915 152.616 196.915 152.84C196.915 153.064 197.019 153.224 197.227 153.32C197.443 153.408 197.755 153.5 198.163 153.596C198.379 153.644 198.595 153.708 198.811 153.788C199.035 153.868 199.235 153.976 199.411 154.112C199.595 154.24 199.743 154.404 199.855 154.604C199.967 154.796 200.023 155.032 200.023 155.312C200.023 155.664 199.955 155.964 199.819 156.212C199.691 156.452 199.515 156.648 199.291 156.8C199.075 156.952 198.819 157.06 198.523 157.124C198.235 157.196 197.935 157.232 197.623 157.232C197.175 157.232 196.739 157.152 196.315 156.992C195.891 156.824 195.539 156.588 195.259 156.284L196.207 155.396C196.367 155.604 196.575 155.776 196.831 155.912C197.087 156.048 197.371 156.116 197.683 156.116C197.787 156.116 197.891 156.104 197.995 156.08C198.107 156.056 198.207 156.02 198.295 155.972C198.391 155.916 198.467 155.844 198.523 155.756C198.579 155.668 198.607 155.56 198.607 155.432C198.607 155.192 198.495 155.02 198.271 154.916C198.055 154.812 197.727 154.708 197.287 154.604C197.071 154.556 196.859 154.496 196.651 154.424C196.451 154.344 196.271 154.244 196.111 154.124C195.951 153.996 195.823 153.84 195.727 153.656C195.631 153.472 195.583 153.244 195.583 152.972C195.583 152.652 195.647 152.376 195.775 152.144C195.911 151.912 196.087 151.724 196.303 151.58C196.519 151.428 196.763 151.316 197.035 151.244C197.307 151.172 197.587 151.136 197.875 151.136C198.291 151.136 198.695 151.208 199.087 151.352C199.487 151.496 199.803 151.716 200.035 152.012L199.099 152.84ZM204.479 151.136C204.855 151.136 205.175 151.204 205.439 151.34C205.711 151.468 205.931 151.64 206.099 151.856C206.275 152.072 206.403 152.32 206.483 152.6C206.563 152.88 206.603 153.168 206.603 153.464V157.064H205.163V153.896C205.163 153.728 205.151 153.556 205.127 153.38C205.103 153.196 205.051 153.032 204.971 152.888C204.899 152.736 204.791 152.612 204.647 152.516C204.511 152.42 204.327 152.372 204.095 152.372C203.863 152.372 203.663 152.416 203.495 152.504C203.327 152.592 203.187 152.712 203.075 152.864C202.963 153.008 202.879 153.172 202.823 153.356C202.767 153.54 202.739 153.728 202.739 153.92V157.064H201.299V147.992H202.739V152.108H202.763C202.819 151.988 202.899 151.872 203.003 151.76C203.115 151.64 203.243 151.536 203.387 151.448C203.531 151.352 203.695 151.276 203.879 151.22C204.063 151.164 204.263 151.136 204.479 151.136ZM209.747 147.992V152.036H209.783C209.855 151.94 209.947 151.84 210.059 151.736C210.171 151.632 210.303 151.536 210.455 151.448C210.615 151.36 210.799 151.288 211.007 151.232C211.215 151.168 211.451 151.136 211.715 151.136C212.123 151.136 212.499 151.216 212.843 151.376C213.187 151.528 213.483 151.74 213.731 152.012C213.979 152.284 214.171 152.604 214.307 152.972C214.443 153.34 214.511 153.736 214.511 154.16C214.511 154.584 214.443 154.984 214.307 155.36C214.179 155.728 213.991 156.052 213.743 156.332C213.503 156.604 213.207 156.824 212.855 156.992C212.511 157.152 212.119 157.232 211.679 157.232C211.271 157.232 210.887 157.144 210.527 156.968C210.175 156.792 209.899 156.536 209.699 156.2H209.675V157.064H208.307V147.992H209.747ZM213.047 154.16C213.047 153.936 213.011 153.716 212.939 153.5C212.875 153.276 212.775 153.076 212.639 152.9C212.503 152.724 212.331 152.584 212.123 152.48C211.915 152.368 211.671 152.312 211.391 152.312C211.127 152.312 210.891 152.368 210.683 152.48C210.475 152.592 210.295 152.736 210.143 152.912C209.999 153.088 209.887 153.288 209.807 153.512C209.735 153.736 209.699 153.96 209.699 154.184C209.699 154.408 209.735 154.632 209.807 154.856C209.887 155.072 209.999 155.268 210.143 155.444C210.295 155.62 210.475 155.764 210.683 155.876C210.891 155.98 211.127 156.032 211.391 156.032C211.671 156.032 211.915 155.976 212.123 155.864C212.331 155.752 212.503 155.608 212.639 155.432C212.775 155.256 212.875 155.056 212.939 154.832C213.011 154.608 213.047 154.384 213.047 154.16ZM215.564 154.16C215.564 153.704 215.644 153.292 215.804 152.924C215.972 152.548 216.196 152.228 216.476 151.964C216.756 151.7 217.088 151.496 217.472 151.352C217.856 151.208 218.264 151.136 218.696 151.136C219.128 151.136 219.536 151.208 219.92 151.352C220.304 151.496 220.636 151.7 220.916 151.964C221.196 152.228 221.416 152.548 221.576 152.924C221.744 153.292 221.828 153.704 221.828 154.16C221.828 154.616 221.744 155.032 221.576 155.408C221.416 155.784 221.196 156.108 220.916 156.38C220.636 156.644 220.304 156.852 219.92 157.004C219.536 157.156 219.128 157.232 218.696 157.232C218.264 157.232 217.856 157.156 217.472 157.004C217.088 156.852 216.756 156.644 216.476 156.38C216.196 156.108 215.972 155.784 215.804 155.408C215.644 155.032 215.564 154.616 215.564 154.16ZM217.028 154.16C217.028 154.384 217.06 154.608 217.124 154.832C217.196 155.056 217.3 155.256 217.436 155.432C217.572 155.608 217.744 155.752 217.952 155.864C218.16 155.976 218.408 156.032 218.696 156.032C218.984 156.032 219.232 155.976 219.44 155.864C219.648 155.752 219.82 155.608 219.956 155.432C220.092 155.256 220.192 155.056 220.256 154.832C220.328 154.608 220.364 154.384 220.364 154.16C220.364 153.936 220.328 153.716 220.256 153.5C220.192 153.276 220.092 153.076 219.956 152.9C219.82 152.724 219.648 152.584 219.44 152.48C219.232 152.368 218.984 152.312 218.696 152.312C218.408 152.312 218.16 152.368 217.952 152.48C217.744 152.584 217.572 152.724 217.436 152.9C217.3 153.076 217.196 153.276 217.124 153.5C217.06 153.716 217.028 153.936 217.028 154.16ZM223.224 151.304H224.604V152.264H224.628C224.788 151.928 225.012 151.656 225.3 151.448C225.588 151.24 225.924 151.136 226.308 151.136C226.364 151.136 226.424 151.14 226.488 151.148C226.552 151.148 226.608 151.156 226.656 151.172V152.492C226.56 152.468 226.476 152.452 226.404 152.444C226.34 152.436 226.276 152.432 226.212 152.432C225.884 152.432 225.62 152.492 225.42 152.612C225.22 152.732 225.064 152.876 224.952 153.044C224.84 153.212 224.764 153.384 224.724 153.56C224.684 153.736 224.664 153.876 224.664 153.98V157.064H223.224V151.304ZM233.24 157.064H231.872V156.2H231.848C231.648 156.536 231.368 156.792 231.008 156.968C230.656 157.144 230.276 157.232 229.868 157.232C229.428 157.232 229.032 157.152 228.68 156.992C228.336 156.824 228.04 156.604 227.792 156.332C227.552 156.052 227.364 155.728 227.228 155.36C227.1 154.984 227.036 154.584 227.036 154.16C227.036 153.736 227.104 153.34 227.24 152.972C227.376 152.604 227.568 152.284 227.816 152.012C228.064 151.74 228.36 151.528 228.704 151.376C229.048 151.216 229.424 151.136 229.832 151.136C230.096 151.136 230.332 151.168 230.54 151.232C230.748 151.288 230.928 151.36 231.08 151.448C231.24 151.536 231.376 151.632 231.488 151.736C231.6 151.84 231.692 151.94 231.764 152.036H231.8V147.992H233.24V157.064ZM228.5 154.16C228.5 154.384 228.532 154.608 228.596 154.832C228.668 155.056 228.772 155.256 228.908 155.432C229.044 155.608 229.216 155.752 229.424 155.864C229.632 155.976 229.876 156.032 230.156 156.032C230.42 156.032 230.656 155.98 230.864 155.876C231.072 155.764 231.248 155.62 231.392 155.444C231.544 155.268 231.656 155.072 231.728 154.856C231.808 154.632 231.848 154.408 231.848 154.184C231.848 153.96 231.808 153.736 231.728 153.512C231.656 153.288 231.544 153.088 231.392 152.912C231.248 152.736 231.072 152.592 230.864 152.48C230.656 152.368 230.42 152.312 230.156 152.312C229.876 152.312 229.632 152.368 229.424 152.48C229.216 152.584 229.044 152.724 228.908 152.9C228.772 153.076 228.668 153.276 228.596 153.5C228.532 153.716 228.5 153.936 228.5 154.16Z" fill="white"/>
<rect x="101.666" y="186.062" width="177.19" height="28.2043" rx="14.1021" fill="#225358"/>
<path d="M152.879 198.433V203.677C152.879 204.197 152.815 204.665 152.687 205.081C152.559 205.505 152.359 205.861 152.087 206.149C151.823 206.445 151.487 206.673 151.079 206.833C150.671 206.993 150.187 207.073 149.627 207.073C149.395 207.073 149.147 207.053 148.883 207.013C148.627 206.973 148.371 206.913 148.115 206.833C147.867 206.753 147.627 206.653 147.395 206.533C147.163 206.413 146.955 206.277 146.771 206.125L147.599 205.009C147.879 205.273 148.195 205.473 148.547 205.609C148.899 205.753 149.255 205.825 149.615 205.825C149.959 205.825 150.247 205.773 150.479 205.669C150.719 205.573 150.907 205.437 151.043 205.261C151.187 205.085 151.287 204.877 151.343 204.637C151.407 204.397 151.439 204.133 151.439 203.845V203.425H151.415C151.207 203.705 150.939 203.921 150.611 204.073C150.291 204.217 149.931 204.289 149.531 204.289C149.099 204.289 148.707 204.209 148.355 204.049C148.003 203.889 147.703 203.673 147.455 203.401C147.215 203.129 147.027 202.813 146.891 202.453C146.755 202.085 146.687 201.697 146.687 201.289C146.687 200.873 146.751 200.481 146.879 200.113C147.015 199.745 147.203 199.425 147.443 199.153C147.691 198.881 147.987 198.665 148.331 198.505C148.683 198.345 149.075 198.265 149.507 198.265C149.915 198.265 150.295 198.349 150.647 198.517C150.999 198.685 151.279 198.945 151.487 199.297H151.511V198.433H152.879ZM149.807 199.441C149.543 199.441 149.307 199.489 149.099 199.585C148.899 199.681 148.727 199.813 148.583 199.981C148.447 200.141 148.339 200.333 148.259 200.557C148.187 200.781 148.151 201.021 148.151 201.277C148.151 201.509 148.187 201.733 148.259 201.949C148.339 202.165 148.447 202.361 148.583 202.537C148.727 202.705 148.899 202.841 149.099 202.945C149.307 203.049 149.539 203.101 149.795 203.101C150.059 203.101 150.295 203.053 150.503 202.957C150.719 202.853 150.899 202.717 151.043 202.549C151.195 202.381 151.311 202.189 151.391 201.973C151.471 201.749 151.511 201.517 151.511 201.277C151.511 201.029 151.471 200.793 151.391 200.569C151.311 200.345 151.195 200.149 151.043 199.981C150.899 199.813 150.723 199.681 150.515 199.585C150.307 199.489 150.071 199.441 149.807 199.441ZM154.269 201.289C154.269 200.833 154.349 200.421 154.509 200.053C154.677 199.677 154.901 199.357 155.181 199.093C155.461 198.829 155.793 198.625 156.177 198.481C156.561 198.337 156.969 198.265 157.401 198.265C157.833 198.265 158.241 198.337 158.625 198.481C159.009 198.625 159.341 198.829 159.621 199.093C159.901 199.357 160.121 199.677 160.281 200.053C160.449 200.421 160.533 200.833 160.533 201.289C160.533 201.745 160.449 202.161 160.281 202.537C160.121 202.913 159.901 203.237 159.621 203.509C159.341 203.773 159.009 203.981 158.625 204.133C158.241 204.285 157.833 204.361 157.401 204.361C156.969 204.361 156.561 204.285 156.177 204.133C155.793 203.981 155.461 203.773 155.181 203.509C154.901 203.237 154.677 202.913 154.509 202.537C154.349 202.161 154.269 201.745 154.269 201.289ZM155.733 201.289C155.733 201.513 155.765 201.737 155.829 201.961C155.901 202.185 156.005 202.385 156.141 202.561C156.277 202.737 156.449 202.881 156.657 202.993C156.865 203.105 157.113 203.161 157.401 203.161C157.689 203.161 157.937 203.105 158.145 202.993C158.353 202.881 158.525 202.737 158.661 202.561C158.797 202.385 158.897 202.185 158.961 201.961C159.033 201.737 159.069 201.513 159.069 201.289C159.069 201.065 159.033 200.845 158.961 200.629C158.897 200.405 158.797 200.205 158.661 200.029C158.525 199.853 158.353 199.713 158.145 199.609C157.937 199.497 157.689 199.441 157.401 199.441C157.113 199.441 156.865 199.497 156.657 199.609C156.449 199.713 156.277 199.853 156.141 200.029C156.005 200.205 155.901 200.405 155.829 200.629C155.765 200.845 155.733 201.065 155.733 201.289ZM164.101 199.585V198.433H165.109V196.765H166.525V198.433H167.965V199.585H166.525V202.261C166.525 202.517 166.569 202.729 166.657 202.897C166.753 203.065 166.961 203.149 167.281 203.149C167.377 203.149 167.481 203.141 167.593 203.125C167.705 203.101 167.805 203.069 167.893 203.029L167.941 204.157C167.813 204.205 167.661 204.241 167.485 204.265C167.309 204.297 167.141 204.313 166.981 204.313C166.597 204.313 166.285 204.261 166.045 204.157C165.805 204.045 165.613 203.897 165.469 203.713C165.333 203.521 165.237 203.305 165.181 203.065C165.133 202.817 165.109 202.553 165.109 202.273V199.585H164.101ZM168.671 201.289C168.671 200.833 168.751 200.421 168.911 200.053C169.079 199.677 169.303 199.357 169.583 199.093C169.863 198.829 170.195 198.625 170.579 198.481C170.963 198.337 171.371 198.265 171.803 198.265C172.235 198.265 172.643 198.337 173.027 198.481C173.411 198.625 173.743 198.829 174.023 199.093C174.303 199.357 174.523 199.677 174.683 200.053C174.851 200.421 174.935 200.833 174.935 201.289C174.935 201.745 174.851 202.161 174.683 202.537C174.523 202.913 174.303 203.237 174.023 203.509C173.743 203.773 173.411 203.981 173.027 204.133C172.643 204.285 172.235 204.361 171.803 204.361C171.371 204.361 170.963 204.285 170.579 204.133C170.195 203.981 169.863 203.773 169.583 203.509C169.303 203.237 169.079 202.913 168.911 202.537C168.751 202.161 168.671 201.745 168.671 201.289ZM170.135 201.289C170.135 201.513 170.167 201.737 170.231 201.961C170.303 202.185 170.407 202.385 170.543 202.561C170.679 202.737 170.851 202.881 171.059 202.993C171.267 203.105 171.515 203.161 171.803 203.161C172.091 203.161 172.339 203.105 172.547 202.993C172.755 202.881 172.927 202.737 173.063 202.561C173.199 202.385 173.299 202.185 173.363 201.961C173.435 201.737 173.471 201.513 173.471 201.289C173.471 201.065 173.435 200.845 173.363 200.629C173.299 200.405 173.199 200.205 173.063 200.029C172.927 199.853 172.755 199.713 172.547 199.609C172.339 199.497 172.091 199.441 171.803 199.441C171.515 199.441 171.267 199.497 171.059 199.609C170.851 199.713 170.679 199.853 170.543 200.029C170.407 200.205 170.303 200.405 170.231 200.629C170.167 200.845 170.135 201.065 170.135 201.289ZM179.404 195.697H181.408L185.356 202.057H185.38V195.697H186.892V204.193H184.972L180.94 197.629H180.916V204.193H179.404V195.697ZM192.751 200.737C192.751 200.553 192.723 200.377 192.667 200.209C192.619 200.041 192.539 199.893 192.427 199.765C192.315 199.637 192.171 199.537 191.995 199.465C191.827 199.385 191.627 199.345 191.395 199.345C190.963 199.345 190.595 199.477 190.291 199.741C189.995 199.997 189.831 200.329 189.799 200.737H192.751ZM194.191 201.385C194.191 201.449 194.191 201.513 194.191 201.577C194.191 201.641 194.187 201.705 194.179 201.769H189.799C189.815 201.977 189.867 202.169 189.955 202.345C190.051 202.513 190.175 202.661 190.327 202.789C190.479 202.909 190.651 203.005 190.843 203.077C191.035 203.149 191.235 203.185 191.443 203.185C191.803 203.185 192.107 203.121 192.355 202.993C192.603 202.857 192.807 202.673 192.967 202.441L193.927 203.209C193.359 203.977 192.535 204.361 191.455 204.361C191.007 204.361 190.595 204.293 190.219 204.157C189.843 204.013 189.515 203.813 189.235 203.557C188.963 203.301 188.747 202.989 188.587 202.621C188.435 202.245 188.359 201.821 188.359 201.349C188.359 200.885 188.435 200.465 188.587 200.089C188.747 199.705 188.963 199.381 189.235 199.117C189.507 198.845 189.827 198.637 190.195 198.493C190.571 198.341 190.975 198.265 191.407 198.265C191.807 198.265 192.175 198.333 192.511 198.469C192.855 198.597 193.151 198.793 193.399 199.057C193.647 199.313 193.839 199.637 193.975 200.029C194.119 200.413 194.191 200.865 194.191 201.385ZM194.77 198.433H196.33L197.53 202.561H197.554L198.79 198.433H200.326L201.574 202.561H201.598L202.822 198.433H204.322L202.33 204.193H200.866L199.558 200.161H199.534L198.238 204.193H196.774L194.77 198.433ZM208.386 199.969C208.258 199.801 208.082 199.657 207.858 199.537C207.634 199.409 207.39 199.345 207.126 199.345C206.894 199.345 206.682 199.393 206.49 199.489C206.298 199.585 206.202 199.745 206.202 199.969C206.202 200.193 206.306 200.353 206.514 200.449C206.73 200.537 207.042 200.629 207.45 200.725C207.666 200.773 207.882 200.837 208.098 200.917C208.322 200.997 208.522 201.105 208.698 201.241C208.882 201.369 209.03 201.533 209.142 201.733C209.254 201.925 209.31 202.161 209.31 202.441C209.31 202.793 209.242 203.093 209.106 203.341C208.978 203.581 208.802 203.777 208.578 203.929C208.362 204.081 208.106 204.189 207.81 204.253C207.522 204.325 207.222 204.361 206.91 204.361C206.462 204.361 206.026 204.281 205.602 204.121C205.178 203.953 204.826 203.717 204.546 203.413L205.494 202.525C205.654 202.733 205.862 202.905 206.118 203.041C206.374 203.177 206.658 203.245 206.97 203.245C207.074 203.245 207.178 203.233 207.282 203.209C207.394 203.185 207.494 203.149 207.582 203.101C207.678 203.045 207.754 202.973 207.81 202.885C207.866 202.797 207.894 202.689 207.894 202.561C207.894 202.321 207.782 202.149 207.558 202.045C207.342 201.941 207.014 201.837 206.574 201.733C206.358 201.685 206.146 201.625 205.938 201.553C205.738 201.473 205.558 201.373 205.398 201.253C205.238 201.125 205.11 200.969 205.014 200.785C204.918 200.601 204.87 200.373 204.87 200.101C204.87 199.781 204.934 199.505 205.062 199.273C205.198 199.041 205.374 198.853 205.59 198.709C205.806 198.557 206.05 198.445 206.322 198.373C206.594 198.301 206.874 198.265 207.162 198.265C207.578 198.265 207.982 198.337 208.374 198.481C208.774 198.625 209.09 198.845 209.322 199.141L208.386 199.969ZM210.79 199.585H209.698V198.433H210.79V197.581C210.79 197.237 210.826 196.909 210.898 196.597C210.978 196.277 211.106 195.997 211.282 195.757C211.466 195.517 211.706 195.329 212.002 195.193C212.298 195.049 212.67 194.977 213.118 194.977C213.278 194.977 213.41 194.985 213.514 195.001C213.626 195.009 213.738 195.029 213.85 195.061L213.754 196.285C213.674 196.261 213.586 196.241 213.49 196.225C213.402 196.209 213.306 196.201 213.202 196.201C212.994 196.201 212.826 196.241 212.698 196.321C212.57 196.401 212.47 196.505 212.398 196.633C212.334 196.761 212.29 196.901 212.266 197.053C212.242 197.205 212.23 197.353 212.23 197.497V198.433H213.562V199.585H212.23V204.193H210.79V199.585ZM218.509 200.737C218.509 200.553 218.481 200.377 218.425 200.209C218.377 200.041 218.297 199.893 218.185 199.765C218.073 199.637 217.929 199.537 217.753 199.465C217.585 199.385 217.385 199.345 217.153 199.345C216.721 199.345 216.353 199.477 216.049 199.741C215.753 199.997 215.589 200.329 215.557 200.737H218.509ZM219.949 201.385C219.949 201.449 219.949 201.513 219.949 201.577C219.949 201.641 219.945 201.705 219.937 201.769H215.557C215.573 201.977 215.625 202.169 215.713 202.345C215.809 202.513 215.933 202.661 216.085 202.789C216.237 202.909 216.409 203.005 216.601 203.077C216.793 203.149 216.993 203.185 217.201 203.185C217.561 203.185 217.865 203.121 218.113 202.993C218.361 202.857 218.565 202.673 218.725 202.441L219.685 203.209C219.117 203.977 218.293 204.361 217.213 204.361C216.765 204.361 216.353 204.293 215.977 204.157C215.601 204.013 215.273 203.813 214.993 203.557C214.721 203.301 214.505 202.989 214.345 202.621C214.193 202.245 214.117 201.821 214.117 201.349C214.117 200.885 214.193 200.465 214.345 200.089C214.505 199.705 214.721 199.381 214.993 199.117C215.265 198.845 215.585 198.637 215.953 198.493C216.329 198.341 216.733 198.265 217.165 198.265C217.565 198.265 217.933 198.333 218.269 198.469C218.613 198.597 218.909 198.793 219.157 199.057C219.405 199.313 219.597 199.637 219.733 200.029C219.877 200.413 219.949 200.865 219.949 201.385ZM225.399 200.737C225.399 200.553 225.371 200.377 225.315 200.209C225.267 200.041 225.187 199.893 225.075 199.765C224.963 199.637 224.819 199.537 224.643 199.465C224.475 199.385 224.275 199.345 224.043 199.345C223.611 199.345 223.243 199.477 222.939 199.741C222.643 199.997 222.479 200.329 222.447 200.737H225.399ZM226.839 201.385C226.839 201.449 226.839 201.513 226.839 201.577C226.839 201.641 226.835 201.705 226.827 201.769H222.447C222.463 201.977 222.515 202.169 222.603 202.345C222.699 202.513 222.823 202.661 222.975 202.789C223.127 202.909 223.299 203.005 223.491 203.077C223.683 203.149 223.883 203.185 224.091 203.185C224.451 203.185 224.755 203.121 225.003 202.993C225.251 202.857 225.455 202.673 225.615 202.441L226.575 203.209C226.007 203.977 225.183 204.361 224.103 204.361C223.655 204.361 223.243 204.293 222.867 204.157C222.491 204.013 222.163 203.813 221.883 203.557C221.611 203.301 221.395 202.989 221.235 202.621C221.083 202.245 221.007 201.821 221.007 201.349C221.007 200.885 221.083 200.465 221.235 200.089C221.395 199.705 221.611 199.381 221.883 199.117C222.155 198.845 222.475 198.637 222.843 198.493C223.219 198.341 223.623 198.265 224.055 198.265C224.455 198.265 224.823 198.333 225.159 198.469C225.503 198.597 225.799 198.793 226.047 199.057C226.295 199.313 226.487 199.637 226.623 200.029C226.767 200.413 226.839 200.865 226.839 201.385ZM234.09 204.193H232.722V203.329H232.698C232.498 203.665 232.218 203.921 231.858 204.097C231.506 204.273 231.126 204.361 230.718 204.361C230.278 204.361 229.882 204.281 229.53 204.121C229.186 203.953 228.89 203.733 228.642 203.461C228.402 203.181 228.214 202.857 228.078 202.489C227.95 202.113 227.886 201.713 227.886 201.289C227.886 200.865 227.954 200.469 228.09 200.101C228.226 199.733 228.418 199.413 228.666 199.141C228.914 198.869 229.21 198.657 229.554 198.505C229.898 198.345 230.274 198.265 230.682 198.265C230.946 198.265 231.182 198.297 231.39 198.361C231.598 198.417 231.778 198.489 231.93 198.577C232.09 198.665 232.226 198.761 232.338 198.865C232.45 198.969 232.542 199.069 232.614 199.165H232.65V195.121H234.09V204.193ZM229.35 201.289C229.35 201.513 229.382 201.737 229.446 201.961C229.518 202.185 229.622 202.385 229.758 202.561C229.894 202.737 230.066 202.881 230.274 202.993C230.482 203.105 230.726 203.161 231.006 203.161C231.27 203.161 231.506 203.109 231.714 203.005C231.922 202.893 232.098 202.749 232.242 202.573C232.394 202.397 232.506 202.201 232.578 201.985C232.658 201.761 232.698 201.537 232.698 201.313C232.698 201.089 232.658 200.865 232.578 200.641C232.506 200.417 232.394 200.217 232.242 200.041C232.098 199.865 231.922 199.721 231.714 199.609C231.506 199.497 231.27 199.441 231.006 199.441C230.726 199.441 230.482 199.497 230.274 199.609C230.066 199.713 229.894 199.853 229.758 200.029C229.622 200.205 229.518 200.405 229.446 200.629C229.382 200.845 229.35 201.065 229.35 201.289Z" fill="white"/>
<rect x="101.666" y="232.365" width="177.19" height="28.2051" rx="14.1025" fill="#4F4F4F"/>
<path d="M154.429 250.496H153.061V249.572H153.037C152.909 249.86 152.685 250.116 152.365 250.34C152.053 250.556 151.681 250.664 151.249 250.664C150.873 250.664 150.549 250.6 150.277 250.472C150.013 250.336 149.793 250.16 149.617 249.944C149.449 249.728 149.325 249.48 149.245 249.2C149.165 248.92 149.125 248.632 149.125 248.336V244.736H150.565V247.928C150.565 248.096 150.577 248.272 150.601 248.456C150.625 248.64 150.677 248.808 150.757 248.96C150.837 249.104 150.945 249.224 151.081 249.32C151.225 249.416 151.413 249.464 151.645 249.464C151.869 249.464 152.065 249.42 152.233 249.332C152.409 249.236 152.549 249.116 152.653 248.972C152.765 248.828 152.849 248.664 152.905 248.48C152.961 248.288 152.989 248.096 152.989 247.904V244.736H154.429V250.496ZM157.538 244.736V245.54H157.574C157.646 245.428 157.738 245.316 157.85 245.204C157.97 245.084 158.114 244.98 158.282 244.892C158.45 244.796 158.638 244.72 158.846 244.664C159.062 244.6 159.302 244.568 159.566 244.568C159.974 244.568 160.35 244.648 160.694 244.808C161.038 244.96 161.334 245.172 161.582 245.444C161.83 245.716 162.022 246.036 162.158 246.404C162.294 246.772 162.362 247.168 162.362 247.592C162.362 248.016 162.294 248.416 162.158 248.792C162.03 249.16 161.842 249.484 161.594 249.764C161.354 250.036 161.058 250.256 160.706 250.424C160.362 250.584 159.97 250.664 159.53 250.664C159.122 250.664 158.746 250.58 158.402 250.412C158.066 250.244 157.806 250.016 157.622 249.728H157.598V253.376H156.158V244.736H157.538ZM160.898 247.592C160.898 247.368 160.862 247.148 160.79 246.932C160.726 246.708 160.626 246.508 160.49 246.332C160.354 246.156 160.182 246.016 159.974 245.912C159.766 245.8 159.522 245.744 159.242 245.744C158.978 245.744 158.742 245.8 158.534 245.912C158.326 246.024 158.146 246.168 157.994 246.344C157.85 246.52 157.738 246.72 157.658 246.944C157.586 247.168 157.55 247.392 157.55 247.616C157.55 247.84 157.586 248.064 157.658 248.288C157.738 248.504 157.85 248.7 157.994 248.876C158.146 249.052 158.326 249.196 158.534 249.308C158.742 249.412 158.978 249.464 159.242 249.464C159.522 249.464 159.766 249.408 159.974 249.296C160.182 249.184 160.354 249.04 160.49 248.864C160.626 248.688 160.726 248.488 160.79 248.264C160.862 248.04 160.898 247.816 160.898 247.592ZM163.776 241.424H165.216V250.496H163.776V241.424ZM166.626 247.592C166.626 247.136 166.706 246.724 166.866 246.356C167.034 245.98 167.258 245.66 167.538 245.396C167.818 245.132 168.15 244.928 168.534 244.784C168.918 244.64 169.326 244.568 169.758 244.568C170.19 244.568 170.598 244.64 170.982 244.784C171.366 244.928 171.698 245.132 171.978 245.396C172.258 245.66 172.478 245.98 172.638 246.356C172.806 246.724 172.89 247.136 172.89 247.592C172.89 248.048 172.806 248.464 172.638 248.84C172.478 249.216 172.258 249.54 171.978 249.812C171.698 250.076 171.366 250.284 170.982 250.436C170.598 250.588 170.19 250.664 169.758 250.664C169.326 250.664 168.918 250.588 168.534 250.436C168.15 250.284 167.818 250.076 167.538 249.812C167.258 249.54 167.034 249.216 166.866 248.84C166.706 248.464 166.626 248.048 166.626 247.592ZM168.09 247.592C168.09 247.816 168.122 248.04 168.186 248.264C168.258 248.488 168.362 248.688 168.498 248.864C168.634 249.04 168.806 249.184 169.014 249.296C169.222 249.408 169.47 249.464 169.758 249.464C170.046 249.464 170.294 249.408 170.502 249.296C170.71 249.184 170.882 249.04 171.018 248.864C171.154 248.688 171.254 248.488 171.318 248.264C171.39 248.04 171.426 247.816 171.426 247.592C171.426 247.368 171.39 247.148 171.318 246.932C171.254 246.708 171.154 246.508 171.018 246.332C170.882 246.156 170.71 246.016 170.502 245.912C170.294 245.8 170.046 245.744 169.758 245.744C169.47 245.744 169.222 245.8 169.014 245.912C168.806 246.016 168.634 246.156 168.498 246.332C168.362 246.508 168.258 246.708 168.186 246.932C168.122 247.148 168.09 247.368 168.09 247.592ZM177.863 249.764H177.827C177.683 250.02 177.451 250.232 177.131 250.4C176.811 250.56 176.447 250.64 176.039 250.64C175.807 250.64 175.563 250.608 175.307 250.544C175.059 250.488 174.827 250.392 174.611 250.256C174.403 250.112 174.227 249.928 174.083 249.704C173.947 249.472 173.879 249.188 173.879 248.852C173.879 248.42 173.999 248.076 174.239 247.82C174.487 247.564 174.803 247.368 175.187 247.232C175.571 247.096 175.995 247.008 176.459 246.968C176.931 246.92 177.391 246.896 177.839 246.896V246.752C177.839 246.392 177.707 246.128 177.443 245.96C177.187 245.784 176.879 245.696 176.519 245.696C176.215 245.696 175.923 245.76 175.643 245.888C175.363 246.016 175.131 246.172 174.947 246.356L174.203 245.48C174.531 245.176 174.907 244.948 175.331 244.796C175.763 244.644 176.199 244.568 176.639 244.568C177.151 244.568 177.571 244.64 177.899 244.784C178.235 244.928 178.499 245.116 178.691 245.348C178.883 245.58 179.015 245.84 179.087 246.128C179.167 246.416 179.207 246.704 179.207 246.992V250.496H177.863V249.764ZM177.839 247.868H177.515C177.283 247.868 177.039 247.88 176.783 247.904C176.527 247.92 176.291 247.964 176.075 248.036C175.859 248.1 175.679 248.196 175.535 248.324C175.391 248.444 175.319 248.612 175.319 248.828C175.319 248.964 175.347 249.08 175.403 249.176C175.467 249.264 175.547 249.336 175.643 249.392C175.739 249.448 175.847 249.488 175.967 249.512C176.087 249.536 176.207 249.548 176.327 249.548C176.823 249.548 177.199 249.416 177.455 249.152C177.711 248.888 177.839 248.528 177.839 248.072V247.868ZM186.74 250.496H185.372V249.632H185.348C185.148 249.968 184.868 250.224 184.508 250.4C184.156 250.576 183.776 250.664 183.368 250.664C182.928 250.664 182.532 250.584 182.18 250.424C181.836 250.256 181.54 250.036 181.292 249.764C181.052 249.484 180.864 249.16 180.728 248.792C180.6 248.416 180.536 248.016 180.536 247.592C180.536 247.168 180.604 246.772 180.74 246.404C180.876 246.036 181.068 245.716 181.316 245.444C181.564 245.172 181.86 244.96 182.204 244.808C182.548 244.648 182.924 244.568 183.332 244.568C183.596 244.568 183.832 244.6 184.04 244.664C184.248 244.72 184.428 244.792 184.58 244.88C184.74 244.968 184.876 245.064 184.988 245.168C185.1 245.272 185.192 245.372 185.264 245.468H185.3V241.424H186.74V250.496ZM182 247.592C182 247.816 182.032 248.04 182.096 248.264C182.168 248.488 182.272 248.688 182.408 248.864C182.544 249.04 182.716 249.184 182.924 249.296C183.132 249.408 183.376 249.464 183.656 249.464C183.92 249.464 184.156 249.412 184.364 249.308C184.572 249.196 184.748 249.052 184.892 248.876C185.044 248.7 185.156 248.504 185.228 248.288C185.308 248.064 185.348 247.84 185.348 247.616C185.348 247.392 185.308 247.168 185.228 246.944C185.156 246.72 185.044 246.52 184.892 246.344C184.748 246.168 184.572 246.024 184.364 245.912C184.156 245.8 183.92 245.744 183.656 245.744C183.376 245.744 183.132 245.8 182.924 245.912C182.716 246.016 182.544 246.156 182.408 246.332C182.272 246.508 182.168 246.708 182.096 246.932C182.032 247.148 182 247.368 182 247.592ZM195.426 246.332C195.314 246.172 195.146 246.04 194.922 245.936C194.698 245.824 194.47 245.768 194.238 245.768C193.974 245.768 193.742 245.824 193.542 245.936C193.342 246.04 193.174 246.18 193.038 246.356C192.91 246.532 192.814 246.732 192.75 246.956C192.686 247.172 192.654 247.392 192.654 247.616C192.654 247.84 192.686 248.064 192.75 248.288C192.822 248.504 192.926 248.7 193.062 248.876C193.198 249.052 193.366 249.196 193.566 249.308C193.774 249.412 194.014 249.464 194.286 249.464C194.51 249.464 194.734 249.42 194.958 249.332C195.182 249.244 195.362 249.116 195.498 248.948L196.398 249.86C196.158 250.116 195.85 250.316 195.474 250.46C195.106 250.596 194.706 250.664 194.274 250.664C193.85 250.664 193.446 250.596 193.062 250.46C192.686 250.324 192.354 250.124 192.066 249.86C191.786 249.596 191.562 249.276 191.394 248.9C191.234 248.524 191.154 248.096 191.154 247.616C191.154 247.152 191.234 246.732 191.394 246.356C191.562 245.98 191.786 245.66 192.066 245.396C192.346 245.132 192.67 244.928 193.038 244.784C193.414 244.64 193.814 244.568 194.238 244.568C194.662 244.568 195.07 244.648 195.462 244.808C195.862 244.968 196.178 245.188 196.41 245.468L195.426 246.332ZM197.013 247.592C197.013 247.136 197.093 246.724 197.253 246.356C197.421 245.98 197.645 245.66 197.925 245.396C198.205 245.132 198.537 244.928 198.921 244.784C199.305 244.64 199.713 244.568 200.145 244.568C200.577 244.568 200.985 244.64 201.369 244.784C201.753 244.928 202.085 245.132 202.365 245.396C202.645 245.66 202.865 245.98 203.025 246.356C203.193 246.724 203.277 247.136 203.277 247.592C203.277 248.048 203.193 248.464 203.025 248.84C202.865 249.216 202.645 249.54 202.365 249.812C202.085 250.076 201.753 250.284 201.369 250.436C200.985 250.588 200.577 250.664 200.145 250.664C199.713 250.664 199.305 250.588 198.921 250.436C198.537 250.284 198.205 250.076 197.925 249.812C197.645 249.54 197.421 249.216 197.253 248.84C197.093 248.464 197.013 248.048 197.013 247.592ZM198.477 247.592C198.477 247.816 198.509 248.04 198.573 248.264C198.645 248.488 198.749 248.688 198.885 248.864C199.021 249.04 199.193 249.184 199.401 249.296C199.609 249.408 199.857 249.464 200.145 249.464C200.433 249.464 200.681 249.408 200.889 249.296C201.097 249.184 201.269 249.04 201.405 248.864C201.541 248.688 201.641 248.488 201.705 248.264C201.777 248.04 201.813 247.816 201.813 247.592C201.813 247.368 201.777 247.148 201.705 246.932C201.641 246.708 201.541 246.508 201.405 246.332C201.269 246.156 201.097 246.016 200.889 245.912C200.681 245.8 200.433 245.744 200.145 245.744C199.857 245.744 199.609 245.8 199.401 245.912C199.193 246.016 199.021 246.156 198.885 246.332C198.749 246.508 198.645 246.708 198.573 246.932C198.509 247.148 198.477 247.368 198.477 247.592ZM204.673 244.736H206.041V245.66H206.065C206.193 245.372 206.413 245.12 206.725 244.904C207.045 244.68 207.421 244.568 207.853 244.568C208.229 244.568 208.549 244.636 208.813 244.772C209.085 244.9 209.305 245.072 209.473 245.288C209.649 245.504 209.777 245.752 209.857 246.032C209.937 246.312 209.977 246.6 209.977 246.896V250.496H208.537V247.304C208.537 247.136 208.525 246.96 208.501 246.776C208.477 246.592 208.425 246.428 208.345 246.284C208.265 246.132 208.153 246.008 208.009 245.912C207.873 245.816 207.689 245.768 207.457 245.768C207.225 245.768 207.025 245.816 206.857 245.912C206.689 246 206.549 246.116 206.437 246.26C206.333 246.404 206.253 246.572 206.197 246.764C206.141 246.948 206.113 247.136 206.113 247.328V250.496H204.673V244.736ZM210.83 245.888V244.736H211.838V243.068H213.254V244.736H214.694V245.888H213.254V248.564C213.254 248.82 213.298 249.032 213.386 249.2C213.482 249.368 213.69 249.452 214.01 249.452C214.106 249.452 214.21 249.444 214.322 249.428C214.434 249.404 214.534 249.372 214.622 249.332L214.67 250.46C214.542 250.508 214.39 250.544 214.214 250.568C214.038 250.6 213.87 250.616 213.71 250.616C213.326 250.616 213.014 250.564 212.774 250.46C212.534 250.348 212.342 250.2 212.198 250.016C212.062 249.824 211.966 249.608 211.91 249.368C211.862 249.12 211.838 248.856 211.838 248.576V245.888H210.83ZM219.792 247.04C219.792 246.856 219.764 246.68 219.708 246.512C219.66 246.344 219.58 246.196 219.468 246.068C219.356 245.94 219.212 245.84 219.036 245.768C218.868 245.688 218.668 245.648 218.436 245.648C218.004 245.648 217.636 245.78 217.332 246.044C217.036 246.3 216.872 246.632 216.84 247.04H219.792ZM221.232 247.688C221.232 247.752 221.232 247.816 221.232 247.88C221.232 247.944 221.228 248.008 221.22 248.072H216.84C216.856 248.28 216.908 248.472 216.996 248.648C217.092 248.816 217.216 248.964 217.368 249.092C217.52 249.212 217.692 249.308 217.884 249.38C218.076 249.452 218.276 249.488 218.484 249.488C218.844 249.488 219.148 249.424 219.396 249.296C219.644 249.16 219.848 248.976 220.008 248.744L220.968 249.512C220.4 250.28 219.576 250.664 218.496 250.664C218.048 250.664 217.636 250.596 217.26 250.46C216.884 250.316 216.556 250.116 216.276 249.86C216.004 249.604 215.788 249.292 215.628 248.924C215.476 248.548 215.4 248.124 215.4 247.652C215.4 247.188 215.476 246.768 215.628 246.392C215.788 246.008 216.004 245.684 216.276 245.42C216.548 245.148 216.868 244.94 217.236 244.796C217.612 244.644 218.016 244.568 218.448 244.568C218.848 244.568 219.216 244.636 219.552 244.772C219.896 244.9 220.192 245.096 220.44 245.36C220.688 245.616 220.88 245.94 221.016 246.332C221.16 246.716 221.232 247.168 221.232 247.688ZM222.627 244.736H223.995V245.66H224.019C224.147 245.372 224.367 245.12 224.679 244.904C224.999 244.68 225.375 244.568 225.807 244.568C226.183 244.568 226.503 244.636 226.767 244.772C227.039 244.9 227.259 245.072 227.427 245.288C227.603 245.504 227.731 245.752 227.811 246.032C227.891 246.312 227.931 246.6 227.931 246.896V250.496H226.491V247.304C226.491 247.136 226.479 246.96 226.455 246.776C226.431 246.592 226.379 246.428 226.299 246.284C226.219 246.132 226.107 246.008 225.963 245.912C225.827 245.816 225.643 245.768 225.411 245.768C225.179 245.768 224.979 245.816 224.811 245.912C224.643 246 224.503 246.116 224.391 246.26C224.287 246.404 224.207 246.572 224.151 246.764C224.095 246.948 224.067 247.136 224.067 247.328V250.496H222.627V244.736ZM228.783 245.888V244.736H229.791V243.068H231.207V244.736H232.647V245.888H231.207V248.564C231.207 248.82 231.251 249.032 231.339 249.2C231.435 249.368 231.643 249.452 231.963 249.452C232.059 249.452 232.163 249.444 232.275 249.428C232.387 249.404 232.487 249.372 232.575 249.332L232.623 250.46C232.495 250.508 232.343 250.544 232.167 250.568C231.991 250.6 231.823 250.616 231.663 250.616C231.279 250.616 230.967 250.564 230.727 250.46C230.487 250.348 230.295 250.2 230.151 250.016C230.015 249.824 229.919 249.608 229.863 249.368C229.815 249.12 229.791 248.856 229.791 248.576V245.888H228.783Z" fill="white"/>
<path d="M75.8901 41.224L71.1021 34.006H73.8741L77.0781 39.37L80.3181 34.006H82.9461L78.1581 41.224V46.75H75.8901V41.224ZM81.7275 42.394C81.7275 41.71 81.8475 41.092 82.0875 40.54C82.3395 39.976 82.6755 39.496 83.0955 39.1C83.5155 38.704 84.0135 38.398 84.5895 38.182C85.1655 37.966 85.7775 37.858 86.4255 37.858C87.0735 37.858 87.6855 37.966 88.2615 38.182C88.8375 38.398 89.3355 38.704 89.7555 39.1C90.1755 39.496 90.5055 39.976 90.7455 40.54C90.9975 41.092 91.1235 41.71 91.1235 42.394C91.1235 43.078 90.9975 43.702 90.7455 44.266C90.5055 44.83 90.1755 45.316 89.7555 45.724C89.3355 46.12 88.8375 46.432 88.2615 46.66C87.6855 46.888 87.0735 47.002 86.4255 47.002C85.7775 47.002 85.1655 46.888 84.5895 46.66C84.0135 46.432 83.5155 46.12 83.0955 45.724C82.6755 45.316 82.3395 44.83 82.0875 44.266C81.8475 43.702 81.7275 43.078 81.7275 42.394ZM83.9235 42.394C83.9235 42.73 83.9715 43.066 84.0675 43.402C84.1755 43.738 84.3315 44.038 84.5355 44.302C84.7395 44.566 84.9975 44.782 85.3095 44.95C85.6215 45.118 85.9935 45.202 86.4255 45.202C86.8575 45.202 87.2295 45.118 87.5415 44.95C87.8535 44.782 88.1115 44.566 88.3155 44.302C88.5195 44.038 88.6695 43.738 88.7655 43.402C88.8735 43.066 88.9275 42.73 88.9275 42.394C88.9275 42.058 88.8735 41.728 88.7655 41.404C88.6695 41.068 88.5195 40.768 88.3155 40.504C88.1115 40.24 87.8535 40.03 87.5415 39.874C87.2295 39.706 86.8575 39.622 86.4255 39.622C85.9935 39.622 85.6215 39.706 85.3095 39.874C84.9975 40.03 84.7395 40.24 84.5355 40.504C84.3315 40.768 84.1755 41.068 84.0675 41.404C83.9715 41.728 83.9235 42.058 83.9235 42.394ZM101.102 46.75H99.0498V45.364H99.0138C98.8218 45.796 98.4858 46.18 98.0058 46.516C97.5378 46.84 96.9798 47.002 96.3318 47.002C95.7678 47.002 95.2818 46.906 94.8738 46.714C94.4778 46.51 94.1478 46.246 93.8838 45.922C93.6318 45.598 93.4458 45.226 93.3258 44.806C93.2058 44.386 93.1458 43.954 93.1458 43.51V38.11H95.3058V42.898C95.3058 43.15 95.3238 43.414 95.3598 43.69C95.3958 43.966 95.4738 44.218 95.5938 44.446C95.7138 44.662 95.8758 44.842 96.0798 44.986C96.2958 45.13 96.5778 45.202 96.9258 45.202C97.2618 45.202 97.5558 45.136 97.8078 45.004C98.0718 44.86 98.2818 44.68 98.4378 44.464C98.6058 44.248 98.7318 44.002 98.8158 43.726C98.8998 43.438 98.9418 43.15 98.9418 42.862V38.11H101.102V46.75ZM113 37.858C113.564 37.858 114.044 37.96 114.44 38.164C114.848 38.356 115.178 38.614 115.43 38.938C115.694 39.262 115.886 39.634 116.006 40.054C116.126 40.474 116.186 40.906 116.186 41.35V46.75H114.026V41.998C114.026 41.746 114.008 41.488 113.972 41.224C113.936 40.948 113.858 40.702 113.738 40.486C113.63 40.258 113.468 40.072 113.252 39.928C113.048 39.784 112.772 39.712 112.424 39.712C112.076 39.712 111.776 39.778 111.524 39.91C111.272 40.042 111.062 40.222 110.894 40.45C110.726 40.666 110.6 40.912 110.516 41.188C110.432 41.464 110.39 41.746 110.39 42.034V46.75H108.23V33.142H110.39V39.316H110.426C110.51 39.136 110.63 38.962 110.786 38.794C110.954 38.614 111.146 38.458 111.362 38.326C111.578 38.182 111.824 38.068 112.1 37.984C112.376 37.9 112.676 37.858 113 37.858ZM124.07 45.652H124.016C123.8 46.036 123.452 46.354 122.972 46.606C122.492 46.846 121.946 46.966 121.334 46.966C120.986 46.966 120.62 46.918 120.236 46.822C119.864 46.738 119.516 46.594 119.192 46.39C118.88 46.174 118.616 45.898 118.4 45.562C118.196 45.214 118.094 44.788 118.094 44.284C118.094 43.636 118.274 43.12 118.634 42.736C119.006 42.352 119.48 42.058 120.056 41.854C120.632 41.65 121.268 41.518 121.964 41.458C122.672 41.386 123.362 41.35 124.034 41.35V41.134C124.034 40.594 123.836 40.198 123.44 39.946C123.056 39.682 122.594 39.55 122.054 39.55C121.598 39.55 121.16 39.646 120.74 39.838C120.32 40.03 119.972 40.264 119.696 40.54L118.58 39.226C119.072 38.77 119.636 38.428 120.272 38.2C120.92 37.972 121.574 37.858 122.234 37.858C123.002 37.858 123.632 37.966 124.124 38.182C124.628 38.398 125.024 38.68 125.312 39.028C125.6 39.376 125.798 39.766 125.906 40.198C126.026 40.63 126.086 41.062 126.086 41.494V46.75H124.07V45.652ZM124.034 42.808H123.548C123.2 42.808 122.834 42.826 122.45 42.862C122.066 42.886 121.712 42.952 121.388 43.06C121.064 43.156 120.794 43.3 120.578 43.492C120.362 43.672 120.254 43.924 120.254 44.248C120.254 44.452 120.296 44.626 120.38 44.77C120.476 44.902 120.596 45.01 120.74 45.094C120.884 45.178 121.046 45.238 121.226 45.274C121.406 45.31 121.586 45.328 121.766 45.328C122.51 45.328 123.074 45.13 123.458 44.734C123.842 44.338 124.034 43.798 124.034 43.114V42.808ZM127.307 38.11H129.665L131.933 44.41H131.969L134.255 38.11H136.541L133.103 46.75H130.799L127.307 38.11ZM143.915 41.566C143.915 41.29 143.873 41.026 143.789 40.774C143.717 40.522 143.597 40.3 143.429 40.108C143.261 39.916 143.045 39.766 142.781 39.658C142.529 39.538 142.229 39.478 141.881 39.478C141.233 39.478 140.681 39.676 140.225 40.072C139.781 40.456 139.535 40.954 139.487 41.566H143.915ZM146.075 42.538C146.075 42.634 146.075 42.73 146.075 42.826C146.075 42.922 146.069 43.018 146.057 43.114H139.487C139.511 43.426 139.589 43.714 139.721 43.978C139.865 44.23 140.051 44.452 140.279 44.644C140.507 44.824 140.765 44.968 141.053 45.076C141.341 45.184 141.641 45.238 141.953 45.238C142.493 45.238 142.949 45.142 143.321 44.95C143.693 44.746 143.999 44.47 144.239 44.122L145.679 45.274C144.827 46.426 143.591 47.002 141.971 47.002C141.299 47.002 140.681 46.9 140.117 46.696C139.553 46.48 139.061 46.18 138.641 45.796C138.233 45.412 137.909 44.944 137.669 44.392C137.441 43.828 137.327 43.192 137.327 42.484C137.327 41.788 137.441 41.158 137.669 40.594C137.909 40.018 138.233 39.532 138.641 39.136C139.049 38.728 139.529 38.416 140.081 38.2C140.645 37.972 141.251 37.858 141.899 37.858C142.499 37.858 143.051 37.96 143.555 38.164C144.071 38.356 144.515 38.65 144.887 39.046C145.259 39.43 145.547 39.916 145.751 40.504C145.967 41.08 146.075 41.758 146.075 42.538ZM157.401 40.414C157.209 40.162 156.945 39.946 156.609 39.766C156.273 39.574 155.907 39.478 155.511 39.478C155.163 39.478 154.845 39.55 154.557 39.694C154.269 39.838 154.125 40.078 154.125 40.414C154.125 40.75 154.281 40.99 154.593 41.134C154.917 41.266 155.385 41.404 155.997 41.548C156.321 41.62 156.645 41.716 156.969 41.836C157.305 41.956 157.605 42.118 157.869 42.322C158.145 42.514 158.367 42.76 158.535 43.06C158.703 43.348 158.787 43.702 158.787 44.122C158.787 44.65 158.685 45.1 158.481 45.472C158.289 45.832 158.025 46.126 157.689 46.354C157.365 46.582 156.981 46.744 156.537 46.84C156.105 46.948 155.655 47.002 155.187 47.002C154.515 47.002 153.861 46.882 153.225 46.642C152.589 46.39 152.061 46.036 151.641 45.58L153.063 44.248C153.303 44.56 153.615 44.818 153.999 45.022C154.383 45.226 154.809 45.328 155.277 45.328C155.433 45.328 155.589 45.31 155.745 45.274C155.913 45.238 156.063 45.184 156.195 45.112C156.339 45.028 156.453 44.92 156.537 44.788C156.621 44.656 156.663 44.494 156.663 44.302C156.663 43.942 156.495 43.684 156.159 43.528C155.835 43.372 155.343 43.216 154.683 43.06C154.359 42.988 154.041 42.898 153.729 42.79C153.429 42.67 153.159 42.52 152.919 42.34C152.679 42.148 152.487 41.914 152.343 41.638C152.199 41.362 152.127 41.02 152.127 40.612C152.127 40.132 152.223 39.718 152.415 39.37C152.619 39.022 152.883 38.74 153.207 38.524C153.531 38.296 153.897 38.128 154.305 38.02C154.713 37.912 155.133 37.858 155.565 37.858C156.189 37.858 156.795 37.966 157.383 38.182C157.983 38.398 158.457 38.728 158.805 39.172L157.401 40.414ZM168.549 46.75H166.497V45.364H166.461C166.269 45.796 165.933 46.18 165.453 46.516C164.985 46.84 164.427 47.002 163.779 47.002C163.215 47.002 162.729 46.906 162.321 46.714C161.925 46.51 161.595 46.246 161.331 45.922C161.079 45.598 160.893 45.226 160.773 44.806C160.653 44.386 160.593 43.954 160.593 43.51V38.11H162.753V42.898C162.753 43.15 162.771 43.414 162.807 43.69C162.843 43.966 162.921 44.218 163.041 44.446C163.161 44.662 163.323 44.842 163.527 44.986C163.743 45.13 164.025 45.202 164.373 45.202C164.709 45.202 165.003 45.136 165.255 45.004C165.519 44.86 165.729 44.68 165.885 44.464C166.053 44.248 166.179 44.002 166.263 43.726C166.347 43.438 166.389 43.15 166.389 42.862V38.11H168.549V46.75ZM177.046 40.504C176.878 40.264 176.626 40.066 176.29 39.91C175.954 39.742 175.612 39.658 175.264 39.658C174.868 39.658 174.52 39.742 174.22 39.91C173.92 40.066 173.668 40.276 173.464 40.54C173.272 40.804 173.128 41.104 173.032 41.44C172.936 41.764 172.888 42.094 172.888 42.43C172.888 42.766 172.936 43.102 173.032 43.438C173.14 43.762 173.296 44.056 173.5 44.32C173.704 44.584 173.956 44.8 174.256 44.968C174.568 45.124 174.928 45.202 175.336 45.202C175.672 45.202 176.008 45.136 176.344 45.004C176.68 44.872 176.95 44.68 177.154 44.428L178.504 45.796C178.144 46.18 177.682 46.48 177.118 46.696C176.566 46.9 175.966 47.002 175.318 47.002C174.682 47.002 174.076 46.9 173.5 46.696C172.936 46.492 172.438 46.192 172.006 45.796C171.586 45.4 171.25 44.92 170.998 44.356C170.758 43.792 170.638 43.15 170.638 42.43C170.638 41.734 170.758 41.104 170.998 40.54C171.25 39.976 171.586 39.496 172.006 39.1C172.426 38.704 172.912 38.398 173.464 38.182C174.028 37.966 174.628 37.858 175.264 37.858C175.9 37.858 176.512 37.978 177.1 38.218C177.7 38.458 178.174 38.788 178.522 39.208L177.046 40.504ZM185.835 40.504C185.667 40.264 185.415 40.066 185.079 39.91C184.743 39.742 184.401 39.658 184.053 39.658C183.657 39.658 183.309 39.742 183.009 39.91C182.709 40.066 182.457 40.276 182.253 40.54C182.061 40.804 181.917 41.104 181.821 41.44C181.725 41.764 181.677 42.094 181.677 42.43C181.677 42.766 181.725 43.102 181.821 43.438C181.929 43.762 182.085 44.056 182.289 44.32C182.493 44.584 182.745 44.8 183.045 44.968C183.357 45.124 183.717 45.202 184.125 45.202C184.461 45.202 184.797 45.136 185.133 45.004C185.469 44.872 185.739 44.68 185.943 44.428L187.293 45.796C186.933 46.18 186.471 46.48 185.907 46.696C185.355 46.9 184.755 47.002 184.107 47.002C183.471 47.002 182.865 46.9 182.289 46.696C181.725 46.492 181.227 46.192 180.795 45.796C180.375 45.4 180.039 44.92 179.787 44.356C179.547 43.792 179.427 43.15 179.427 42.43C179.427 41.734 179.547 41.104 179.787 40.54C180.039 39.976 180.375 39.496 180.795 39.1C181.215 38.704 181.701 38.398 182.253 38.182C182.817 37.966 183.417 37.858 184.053 37.858C184.689 37.858 185.301 37.978 185.889 38.218C186.489 38.458 186.963 38.788 187.311 39.208L185.835 40.504ZM194.804 41.566C194.804 41.29 194.762 41.026 194.678 40.774C194.606 40.522 194.486 40.3 194.318 40.108C194.15 39.916 193.934 39.766 193.67 39.658C193.418 39.538 193.118 39.478 192.77 39.478C192.122 39.478 191.57 39.676 191.114 40.072C190.67 40.456 190.424 40.954 190.376 41.566H194.804ZM196.964 42.538C196.964 42.634 196.964 42.73 196.964 42.826C196.964 42.922 196.958 43.018 196.946 43.114H190.376C190.4 43.426 190.478 43.714 190.61 43.978C190.754 44.23 190.94 44.452 191.168 44.644C191.396 44.824 191.654 44.968 191.942 45.076C192.23 45.184 192.53 45.238 192.842 45.238C193.382 45.238 193.838 45.142 194.21 44.95C194.582 44.746 194.888 44.47 195.128 44.122L196.568 45.274C195.716 46.426 194.48 47.002 192.86 47.002C192.188 47.002 191.57 46.9 191.006 46.696C190.442 46.48 189.95 46.18 189.53 45.796C189.122 45.412 188.798 44.944 188.558 44.392C188.33 43.828 188.216 43.192 188.216 42.484C188.216 41.788 188.33 41.158 188.558 40.594C188.798 40.018 189.122 39.532 189.53 39.136C189.938 38.728 190.418 38.416 190.97 38.2C191.534 37.972 192.14 37.858 192.788 37.858C193.388 37.858 193.94 37.96 194.444 38.164C194.96 38.356 195.404 38.65 195.776 39.046C196.148 39.43 196.436 39.916 196.64 40.504C196.856 41.08 196.964 41.758 196.964 42.538ZM203.79 40.414C203.598 40.162 203.334 39.946 202.998 39.766C202.662 39.574 202.296 39.478 201.9 39.478C201.552 39.478 201.234 39.55 200.946 39.694C200.658 39.838 200.514 40.078 200.514 40.414C200.514 40.75 200.67 40.99 200.982 41.134C201.306 41.266 201.774 41.404 202.386 41.548C202.71 41.62 203.034 41.716 203.358 41.836C203.694 41.956 203.994 42.118 204.258 42.322C204.534 42.514 204.756 42.76 204.924 43.06C205.092 43.348 205.176 43.702 205.176 44.122C205.176 44.65 205.074 45.1 204.87 45.472C204.678 45.832 204.414 46.126 204.078 46.354C203.754 46.582 203.37 46.744 202.926 46.84C202.494 46.948 202.044 47.002 201.576 47.002C200.904 47.002 200.25 46.882 199.614 46.642C198.978 46.39 198.45 46.036 198.03 45.58L199.452 44.248C199.692 44.56 200.004 44.818 200.388 45.022C200.772 45.226 201.198 45.328 201.666 45.328C201.822 45.328 201.978 45.31 202.134 45.274C202.302 45.238 202.452 45.184 202.584 45.112C202.728 45.028 202.842 44.92 202.926 44.788C203.01 44.656 203.052 44.494 203.052 44.302C203.052 43.942 202.884 43.684 202.548 43.528C202.224 43.372 201.732 43.216 201.072 43.06C200.748 42.988 200.43 42.898 200.118 42.79C199.818 42.67 199.548 42.52 199.308 42.34C199.068 42.148 198.876 41.914 198.732 41.638C198.588 41.362 198.516 41.02 198.516 40.612C198.516 40.132 198.612 39.718 198.804 39.37C199.008 39.022 199.272 38.74 199.596 38.524C199.92 38.296 200.286 38.128 200.694 38.02C201.102 37.912 201.522 37.858 201.954 37.858C202.578 37.858 203.184 37.966 203.772 38.182C204.372 38.398 204.846 38.728 205.194 39.172L203.79 40.414ZM211.788 40.414C211.596 40.162 211.332 39.946 210.996 39.766C210.66 39.574 210.294 39.478 209.898 39.478C209.55 39.478 209.232 39.55 208.944 39.694C208.656 39.838 208.512 40.078 208.512 40.414C208.512 40.75 208.668 40.99 208.98 41.134C209.304 41.266 209.772 41.404 210.384 41.548C210.708 41.62 211.032 41.716 211.356 41.836C211.692 41.956 211.992 42.118 212.256 42.322C212.532 42.514 212.754 42.76 212.922 43.06C213.09 43.348 213.174 43.702 213.174 44.122C213.174 44.65 213.072 45.1 212.868 45.472C212.676 45.832 212.412 46.126 212.076 46.354C211.752 46.582 211.368 46.744 210.924 46.84C210.492 46.948 210.042 47.002 209.574 47.002C208.902 47.002 208.248 46.882 207.612 46.642C206.976 46.39 206.448 46.036 206.028 45.58L207.45 44.248C207.69 44.56 208.002 44.818 208.386 45.022C208.77 45.226 209.196 45.328 209.664 45.328C209.82 45.328 209.976 45.31 210.132 45.274C210.3 45.238 210.45 45.184 210.582 45.112C210.726 45.028 210.84 44.92 210.924 44.788C211.008 44.656 211.05 44.494 211.05 44.302C211.05 43.942 210.882 43.684 210.546 43.528C210.222 43.372 209.73 43.216 209.07 43.06C208.746 42.988 208.428 42.898 208.116 42.79C207.816 42.67 207.546 42.52 207.306 42.34C207.066 42.148 206.874 41.914 206.73 41.638C206.586 41.362 206.514 41.02 206.514 40.612C206.514 40.132 206.61 39.718 206.802 39.37C207.006 39.022 207.27 38.74 207.594 38.524C207.918 38.296 208.284 38.128 208.692 38.02C209.1 37.912 209.52 37.858 209.952 37.858C210.576 37.858 211.182 37.966 211.77 38.182C212.37 38.398 212.844 38.728 213.192 39.172L211.788 40.414ZM215.394 39.838H213.756V38.11H215.394V36.832C215.394 36.316 215.448 35.824 215.556 35.356C215.676 34.876 215.868 34.456 216.132 34.096C216.408 33.736 216.768 33.454 217.212 33.25C217.656 33.034 218.214 32.926 218.886 32.926C219.126 32.926 219.324 32.938 219.48 32.962C219.648 32.974 219.816 33.004 219.984 33.052L219.84 34.888C219.72 34.852 219.588 34.822 219.444 34.798C219.312 34.774 219.168 34.762 219.012 34.762C218.7 34.762 218.448 34.822 218.256 34.942C218.064 35.062 217.914 35.218 217.806 35.41C217.71 35.602 217.644 35.812 217.608 36.04C217.572 36.268 217.554 36.49 217.554 36.706V38.11H219.552V39.838H217.554V46.75H215.394V39.838ZM228.772 46.75H226.72V45.364H226.684C226.492 45.796 226.156 46.18 225.676 46.516C225.208 46.84 224.65 47.002 224.002 47.002C223.438 47.002 222.952 46.906 222.544 46.714C222.148 46.51 221.818 46.246 221.554 45.922C221.302 45.598 221.116 45.226 220.996 44.806C220.876 44.386 220.816 43.954 220.816 43.51V38.11H222.976V42.898C222.976 43.15 222.994 43.414 223.03 43.69C223.066 43.966 223.144 44.218 223.264 44.446C223.384 44.662 223.546 44.842 223.75 44.986C223.966 45.13 224.248 45.202 224.596 45.202C224.932 45.202 225.226 45.136 225.478 45.004C225.742 44.86 225.952 44.68 226.108 44.464C226.276 44.248 226.402 44.002 226.486 43.726C226.57 43.438 226.612 43.15 226.612 42.862V38.11H228.772V46.75ZM231.4 33.142H233.56V46.75H231.4V33.142ZM236.217 33.142H238.377V46.75H236.217V33.142ZM239.701 38.11H242.095L244.507 44.392H244.543L246.685 38.11H248.935L244.849 48.604C244.693 49 244.525 49.348 244.345 49.648C244.165 49.96 243.949 50.218 243.697 50.422C243.445 50.638 243.145 50.8 242.797 50.908C242.461 51.016 242.053 51.07 241.573 51.07C241.393 51.07 241.207 51.058 241.015 51.034C240.835 51.022 240.649 50.992 240.457 50.944L240.637 49.072C240.781 49.12 240.919 49.15 241.051 49.162C241.195 49.186 241.327 49.198 241.447 49.198C241.675 49.198 241.867 49.168 242.023 49.108C242.179 49.06 242.311 48.976 242.419 48.856C242.527 48.748 242.623 48.61 242.707 48.442C242.791 48.274 242.881 48.076 242.977 47.848L243.409 46.75L239.701 38.11ZM259.46 40.414C259.268 40.162 259.004 39.946 258.668 39.766C258.332 39.574 257.966 39.478 257.57 39.478C257.222 39.478 256.904 39.55 256.616 39.694C256.328 39.838 256.184 40.078 256.184 40.414C256.184 40.75 256.34 40.99 256.652 41.134C256.976 41.266 257.444 41.404 258.056 41.548C258.38 41.62 258.704 41.716 259.028 41.836C259.364 41.956 259.664 42.118 259.928 42.322C260.204 42.514 260.426 42.76 260.594 43.06C260.762 43.348 260.846 43.702 260.846 44.122C260.846 44.65 260.744 45.1 260.54 45.472C260.348 45.832 260.084 46.126 259.748 46.354C259.424 46.582 259.04 46.744 258.596 46.84C258.164 46.948 257.714 47.002 257.246 47.002C256.574 47.002 255.92 46.882 255.284 46.642C254.648 46.39 254.12 46.036 253.7 45.58L255.122 44.248C255.362 44.56 255.674 44.818 256.058 45.022C256.442 45.226 256.868 45.328 257.336 45.328C257.492 45.328 257.648 45.31 257.804 45.274C257.972 45.238 258.122 45.184 258.254 45.112C258.398 45.028 258.512 44.92 258.596 44.788C258.68 44.656 258.722 44.494 258.722 44.302C258.722 43.942 258.554 43.684 258.218 43.528C257.894 43.372 257.402 43.216 256.742 43.06C256.418 42.988 256.1 42.898 255.788 42.79C255.488 42.67 255.218 42.52 254.978 42.34C254.738 42.148 254.546 41.914 254.402 41.638C254.258 41.362 254.186 41.02 254.186 40.612C254.186 40.132 254.282 39.718 254.474 39.37C254.678 39.022 254.942 38.74 255.266 38.524C255.59 38.296 255.956 38.128 256.364 38.02C256.772 37.912 257.192 37.858 257.624 37.858C258.248 37.858 258.854 37.966 259.442 38.182C260.042 38.398 260.516 38.728 260.864 39.172L259.46 40.414ZM262.76 38.11H264.92V46.75H262.76V38.11ZM262.454 35.176C262.454 34.828 262.58 34.528 262.832 34.276C263.096 34.012 263.426 33.88 263.822 33.88C264.218 33.88 264.548 34.006 264.812 34.258C265.088 34.498 265.226 34.804 265.226 35.176C265.226 35.548 265.088 35.86 264.812 36.112C264.548 36.352 264.218 36.472 263.822 36.472C263.426 36.472 263.096 36.346 262.832 36.094C262.58 35.83 262.454 35.524 262.454 35.176ZM276.324 38.11V45.976C276.324 46.756 276.228 47.458 276.036 48.082C275.844 48.718 275.544 49.252 275.136 49.684C274.74 50.128 274.236 50.47 273.624 50.71C273.012 50.95 272.286 51.07 271.446 51.07C271.098 51.07 270.726 51.04 270.33 50.98C269.946 50.92 269.562 50.83 269.178 50.71C268.806 50.59 268.446 50.44 268.098 50.26C267.75 50.08 267.438 49.876 267.162 49.648L268.404 47.974C268.824 48.37 269.298 48.67 269.826 48.874C270.354 49.09 270.888 49.198 271.428 49.198C271.944 49.198 272.376 49.12 272.724 48.964C273.084 48.82 273.366 48.616 273.57 48.352C273.786 48.088 273.936 47.776 274.02 47.416C274.116 47.056 274.164 46.66 274.164 46.228V45.598H274.128C273.816 46.018 273.414 46.342 272.922 46.57C272.442 46.786 271.902 46.894 271.302 46.894C270.654 46.894 270.066 46.774 269.538 46.534C269.01 46.294 268.56 45.97 268.188 45.562C267.828 45.154 267.546 44.68 267.342 44.14C267.138 43.588 267.036 43.006 267.036 42.394C267.036 41.77 267.132 41.182 267.324 40.63C267.528 40.078 267.81 39.598 268.17 39.19C268.542 38.782 268.986 38.458 269.502 38.218C270.03 37.978 270.618 37.858 271.266 37.858C271.878 37.858 272.448 37.984 272.976 38.236C273.504 38.488 273.924 38.878 274.236 39.406H274.272V38.11H276.324ZM271.716 39.622C271.32 39.622 270.966 39.694 270.654 39.838C270.354 39.982 270.096 40.18 269.88 40.432C269.676 40.672 269.514 40.96 269.394 41.296C269.286 41.632 269.232 41.992 269.232 42.376C269.232 42.724 269.286 43.06 269.394 43.384C269.514 43.708 269.676 44.002 269.88 44.266C270.096 44.518 270.354 44.722 270.654 44.878C270.966 45.034 271.314 45.112 271.698 45.112C272.094 45.112 272.448 45.04 272.76 44.896C273.084 44.74 273.354 44.536 273.57 44.284C273.798 44.032 273.972 43.744 274.092 43.42C274.212 43.084 274.272 42.736 274.272 42.376C274.272 42.004 274.212 41.65 274.092 41.314C273.972 40.978 273.798 40.684 273.57 40.432C273.354 40.18 273.09 39.982 272.778 39.838C272.466 39.694 272.112 39.622 271.716 39.622ZM278.913 38.11H280.965V39.496H281.001C281.193 39.064 281.523 38.686 281.991 38.362C282.471 38.026 283.035 37.858 283.683 37.858C284.247 37.858 284.727 37.96 285.123 38.164C285.531 38.356 285.861 38.614 286.113 38.938C286.377 39.262 286.569 39.634 286.689 40.054C286.809 40.474 286.869 40.906 286.869 41.35V46.75H284.709V41.962C284.709 41.71 284.691 41.446 284.655 41.17C284.619 40.894 284.541 40.648 284.421 40.432C284.301 40.204 284.133 40.018 283.917 39.874C283.713 39.73 283.437 39.658 283.089 39.658C282.741 39.658 282.441 39.73 282.189 39.874C281.937 40.006 281.727 40.18 281.559 40.396C281.403 40.612 281.283 40.864 281.199 41.152C281.115 41.428 281.073 41.71 281.073 41.998V46.75H278.913V38.11ZM295.474 41.566C295.474 41.29 295.432 41.026 295.348 40.774C295.276 40.522 295.156 40.3 294.988 40.108C294.82 39.916 294.604 39.766 294.34 39.658C294.088 39.538 293.788 39.478 293.44 39.478C292.792 39.478 292.24 39.676 291.784 40.072C291.34 40.456 291.094 40.954 291.046 41.566H295.474ZM297.634 42.538C297.634 42.634 297.634 42.73 297.634 42.826C297.634 42.922 297.628 43.018 297.616 43.114H291.046C291.07 43.426 291.148 43.714 291.28 43.978C291.424 44.23 291.61 44.452 291.838 44.644C292.066 44.824 292.324 44.968 292.612 45.076C292.9 45.184 293.2 45.238 293.512 45.238C294.052 45.238 294.508 45.142 294.88 44.95C295.252 44.746 295.558 44.47 295.798 44.122L297.238 45.274C296.386 46.426 295.15 47.002 293.53 47.002C292.858 47.002 292.24 46.9 291.676 46.696C291.112 46.48 290.62 46.18 290.2 45.796C289.792 45.412 289.468 44.944 289.228 44.392C289 43.828 288.886 43.192 288.886 42.484C288.886 41.788 289 41.158 289.228 40.594C289.468 40.018 289.792 39.532 290.2 39.136C290.608 38.728 291.088 38.416 291.64 38.2C292.204 37.972 292.81 37.858 293.458 37.858C294.058 37.858 294.61 37.96 295.114 38.164C295.63 38.356 296.074 38.65 296.446 39.046C296.818 39.43 297.106 39.916 297.31 40.504C297.526 41.08 297.634 41.758 297.634 42.538ZM308.51 46.75H306.458V45.454H306.422C306.122 45.958 305.702 46.342 305.162 46.606C304.634 46.87 304.064 47.002 303.452 47.002C302.792 47.002 302.198 46.882 301.67 46.642C301.154 46.39 300.71 46.06 300.338 45.652C299.978 45.232 299.696 44.746 299.492 44.194C299.3 43.63 299.204 43.03 299.204 42.394C299.204 41.758 299.306 41.164 299.51 40.612C299.714 40.06 300.002 39.58 300.374 39.172C300.746 38.764 301.19 38.446 301.706 38.218C302.222 37.978 302.786 37.858 303.398 37.858C303.794 37.858 304.148 37.906 304.46 38.002C304.772 38.086 305.042 38.194 305.27 38.326C305.51 38.458 305.714 38.602 305.882 38.758C306.05 38.914 306.188 39.064 306.296 39.208H306.35V33.142H308.51V46.75ZM301.4 42.394C301.4 42.73 301.448 43.066 301.544 43.402C301.652 43.738 301.808 44.038 302.012 44.302C302.216 44.566 302.474 44.782 302.786 44.95C303.098 45.118 303.464 45.202 303.884 45.202C304.28 45.202 304.634 45.124 304.946 44.968C305.258 44.8 305.522 44.584 305.738 44.32C305.966 44.056 306.134 43.762 306.242 43.438C306.362 43.102 306.422 42.766 306.422 42.43C306.422 42.094 306.362 41.758 306.242 41.422C306.134 41.086 305.966 40.786 305.738 40.522C305.522 40.258 305.258 40.042 304.946 39.874C304.634 39.706 304.28 39.622 303.884 39.622C303.464 39.622 303.098 39.706 302.786 39.874C302.474 40.03 302.216 40.24 302.012 40.504C301.808 40.768 301.652 41.068 301.544 41.404C301.448 41.728 301.4 42.058 301.4 42.394ZM124.419 70.75H122.367V69.364H122.331C122.139 69.796 121.803 70.18 121.323 70.516C120.855 70.84 120.297 71.002 119.649 71.002C119.085 71.002 118.599 70.906 118.191 70.714C117.795 70.51 117.465 70.246 117.201 69.922C116.949 69.598 116.763 69.226 116.643 68.806C116.523 68.386 116.463 67.954 116.463 67.51V62.11H118.623V66.898C118.623 67.15 118.641 67.414 118.677 67.69C118.713 67.966 118.791 68.218 118.911 68.446C119.031 68.662 119.193 68.842 119.397 68.986C119.613 69.13 119.895 69.202 120.243 69.202C120.579 69.202 120.873 69.136 121.125 69.004C121.389 68.86 121.599 68.68 121.755 68.464C121.923 68.248 122.049 68.002 122.133 67.726C122.217 67.438 122.259 67.15 122.259 66.862V62.11H124.419V70.75ZM129.082 62.11V63.316H129.136C129.244 63.148 129.382 62.98 129.55 62.812C129.73 62.632 129.946 62.476 130.198 62.344C130.45 62.2 130.732 62.086 131.044 62.002C131.368 61.906 131.728 61.858 132.124 61.858C132.736 61.858 133.3 61.978 133.816 62.218C134.332 62.446 134.776 62.764 135.148 63.172C135.52 63.58 135.808 64.06 136.012 64.612C136.216 65.164 136.318 65.758 136.318 66.394C136.318 67.03 136.216 67.63 136.012 68.194C135.82 68.746 135.538 69.232 135.166 69.652C134.806 70.06 134.362 70.39 133.834 70.642C133.318 70.882 132.73 71.002 132.07 71.002C131.458 71.002 130.894 70.876 130.378 70.624C129.874 70.372 129.484 70.03 129.208 69.598H129.172V75.07H127.012V62.11H129.082ZM134.122 66.394C134.122 66.058 134.068 65.728 133.96 65.404C133.864 65.068 133.714 64.768 133.51 64.504C133.306 64.24 133.048 64.03 132.736 63.874C132.424 63.706 132.058 63.622 131.638 63.622C131.242 63.622 130.888 63.706 130.576 63.874C130.264 64.042 129.994 64.258 129.766 64.522C129.55 64.786 129.382 65.086 129.262 65.422C129.154 65.758 129.1 66.094 129.1 66.43C129.1 66.766 129.154 67.102 129.262 67.438C129.382 67.762 129.55 68.056 129.766 68.32C129.994 68.584 130.264 68.8 130.576 68.968C130.888 69.124 131.242 69.202 131.638 69.202C132.058 69.202 132.424 69.118 132.736 68.95C133.048 68.782 133.306 68.566 133.51 68.302C133.714 68.038 133.864 67.738 133.96 67.402C134.068 67.066 134.122 66.73 134.122 66.394ZM143.244 63.838H141.606V62.11H143.244V60.832C143.244 60.316 143.298 59.824 143.406 59.356C143.526 58.876 143.718 58.456 143.982 58.096C144.258 57.736 144.618 57.454 145.062 57.25C145.506 57.034 146.064 56.926 146.736 56.926C146.976 56.926 147.174 56.938 147.33 56.962C147.498 56.974 147.666 57.004 147.834 57.052L147.69 58.888C147.57 58.852 147.438 58.822 147.294 58.798C147.162 58.774 147.018 58.762 146.862 58.762C146.55 58.762 146.298 58.822 146.106 58.942C145.914 59.062 145.764 59.218 145.656 59.41C145.56 59.602 145.494 59.812 145.458 60.04C145.422 60.268 145.404 60.49 145.404 60.706V62.11H147.402V63.838H145.404V70.75H143.244V63.838ZM148.234 66.394C148.234 65.71 148.354 65.092 148.594 64.54C148.846 63.976 149.182 63.496 149.602 63.1C150.022 62.704 150.52 62.398 151.096 62.182C151.672 61.966 152.284 61.858 152.932 61.858C153.58 61.858 154.192 61.966 154.768 62.182C155.344 62.398 155.842 62.704 156.262 63.1C156.682 63.496 157.012 63.976 157.252 64.54C157.504 65.092 157.63 65.71 157.63 66.394C157.63 67.078 157.504 67.702 157.252 68.266C157.012 68.83 156.682 69.316 156.262 69.724C155.842 70.12 155.344 70.432 154.768 70.66C154.192 70.888 153.58 71.002 152.932 71.002C152.284 71.002 151.672 70.888 151.096 70.66C150.52 70.432 150.022 70.12 149.602 69.724C149.182 69.316 148.846 68.83 148.594 68.266C148.354 67.702 148.234 67.078 148.234 66.394ZM150.43 66.394C150.43 66.73 150.478 67.066 150.574 67.402C150.682 67.738 150.838 68.038 151.042 68.302C151.246 68.566 151.504 68.782 151.816 68.95C152.128 69.118 152.5 69.202 152.932 69.202C153.364 69.202 153.736 69.118 154.048 68.95C154.36 68.782 154.618 68.566 154.822 68.302C155.026 68.038 155.176 67.738 155.272 67.402C155.38 67.066 155.434 66.73 155.434 66.394C155.434 66.058 155.38 65.728 155.272 65.404C155.176 65.068 155.026 64.768 154.822 64.504C154.618 64.24 154.36 64.03 154.048 63.874C153.736 63.706 153.364 63.622 152.932 63.622C152.5 63.622 152.128 63.706 151.816 63.874C151.504 64.03 151.246 64.24 151.042 64.504C150.838 64.768 150.682 65.068 150.574 65.404C150.478 65.728 150.43 66.058 150.43 66.394ZM159.725 62.11H161.795V63.55H161.831C162.071 63.046 162.407 62.638 162.839 62.326C163.271 62.014 163.775 61.858 164.351 61.858C164.435 61.858 164.525 61.864 164.621 61.876C164.717 61.876 164.801 61.888 164.873 61.912V63.892C164.729 63.856 164.603 63.832 164.495 63.82C164.399 63.808 164.303 63.802 164.207 63.802C163.715 63.802 163.319 63.892 163.019 64.072C162.719 64.252 162.485 64.468 162.317 64.72C162.149 64.972 162.035 65.23 161.975 65.494C161.915 65.758 161.885 65.968 161.885 66.124V70.75H159.725V62.11ZM176.145 69.652H176.091C175.875 70.036 175.527 70.354 175.047 70.606C174.567 70.846 174.021 70.966 173.409 70.966C173.061 70.966 172.695 70.918 172.311 70.822C171.939 70.738 171.591 70.594 171.267 70.39C170.955 70.174 170.691 69.898 170.475 69.562C170.271 69.214 170.169 68.788 170.169 68.284C170.169 67.636 170.349 67.12 170.709 66.736C171.081 66.352 171.555 66.058 172.131 65.854C172.707 65.65 173.343 65.518 174.039 65.458C174.747 65.386 175.437 65.35 176.109 65.35V65.134C176.109 64.594 175.911 64.198 175.515 63.946C175.131 63.682 174.669 63.55 174.129 63.55C173.673 63.55 173.235 63.646 172.815 63.838C172.395 64.03 172.047 64.264 171.771 64.54L170.655 63.226C171.147 62.77 171.711 62.428 172.347 62.2C172.995 61.972 173.649 61.858 174.309 61.858C175.077 61.858 175.707 61.966 176.199 62.182C176.703 62.398 177.099 62.68 177.387 63.028C177.675 63.376 177.873 63.766 177.981 64.198C178.101 64.63 178.161 65.062 178.161 65.494V70.75H176.145V69.652ZM176.109 66.808H175.623C175.275 66.808 174.909 66.826 174.525 66.862C174.141 66.886 173.787 66.952 173.463 67.06C173.139 67.156 172.869 67.3 172.653 67.492C172.437 67.672 172.329 67.924 172.329 68.248C172.329 68.452 172.371 68.626 172.455 68.77C172.551 68.902 172.671 69.01 172.815 69.094C172.959 69.178 173.121 69.238 173.301 69.274C173.481 69.31 173.661 69.328 173.841 69.328C174.585 69.328 175.149 69.13 175.533 68.734C175.917 68.338 176.109 67.798 176.109 67.114V66.808ZM180.678 62.11H182.73V63.496H182.766C182.958 63.064 183.288 62.686 183.756 62.362C184.236 62.026 184.8 61.858 185.448 61.858C186.012 61.858 186.492 61.96 186.888 62.164C187.296 62.356 187.626 62.614 187.878 62.938C188.142 63.262 188.334 63.634 188.454 64.054C188.574 64.474 188.634 64.906 188.634 65.35V70.75H186.474V65.962C186.474 65.71 186.456 65.446 186.42 65.17C186.384 64.894 186.306 64.648 186.186 64.432C186.066 64.204 185.898 64.018 185.682 63.874C185.478 63.73 185.202 63.658 184.854 63.658C184.506 63.658 184.206 63.73 183.954 63.874C183.702 64.006 183.492 64.18 183.324 64.396C183.168 64.612 183.048 64.864 182.964 65.152C182.88 65.428 182.838 65.71 182.838 65.998V70.75H180.678V62.11ZM201.018 69.652H200.964C200.748 70.036 200.4 70.354 199.92 70.606C199.44 70.846 198.894 70.966 198.282 70.966C197.934 70.966 197.568 70.918 197.184 70.822C196.812 70.738 196.464 70.594 196.14 70.39C195.828 70.174 195.564 69.898 195.348 69.562C195.144 69.214 195.042 68.788 195.042 68.284C195.042 67.636 195.222 67.12 195.582 66.736C195.954 66.352 196.428 66.058 197.004 65.854C197.58 65.65 198.216 65.518 198.912 65.458C199.62 65.386 200.31 65.35 200.982 65.35V65.134C200.982 64.594 200.784 64.198 200.388 63.946C200.004 63.682 199.542 63.55 199.002 63.55C198.546 63.55 198.108 63.646 197.688 63.838C197.268 64.03 196.92 64.264 196.644 64.54L195.528 63.226C196.02 62.77 196.584 62.428 197.22 62.2C197.868 61.972 198.522 61.858 199.182 61.858C199.95 61.858 200.58 61.966 201.072 62.182C201.576 62.398 201.972 62.68 202.26 63.028C202.548 63.376 202.746 63.766 202.854 64.198C202.974 64.63 203.034 65.062 203.034 65.494V70.75H201.018V69.652ZM200.982 66.808H200.496C200.148 66.808 199.782 66.826 199.398 66.862C199.014 66.886 198.66 66.952 198.336 67.06C198.012 67.156 197.742 67.3 197.526 67.492C197.31 67.672 197.202 67.924 197.202 68.248C197.202 68.452 197.244 68.626 197.328 68.77C197.424 68.902 197.544 69.01 197.688 69.094C197.832 69.178 197.994 69.238 198.174 69.274C198.354 69.31 198.534 69.328 198.714 69.328C199.458 69.328 200.022 69.13 200.406 68.734C200.79 68.338 200.982 67.798 200.982 67.114V66.808ZM211.455 64.504C211.287 64.264 211.035 64.066 210.699 63.91C210.363 63.742 210.021 63.658 209.673 63.658C209.277 63.658 208.929 63.742 208.629 63.91C208.329 64.066 208.077 64.276 207.873 64.54C207.681 64.804 207.537 65.104 207.441 65.44C207.345 65.764 207.297 66.094 207.297 66.43C207.297 66.766 207.345 67.102 207.441 67.438C207.549 67.762 207.705 68.056 207.909 68.32C208.113 68.584 208.365 68.8 208.665 68.968C208.977 69.124 209.337 69.202 209.745 69.202C210.081 69.202 210.417 69.136 210.753 69.004C211.089 68.872 211.359 68.68 211.563 68.428L212.913 69.796C212.553 70.18 212.091 70.48 211.527 70.696C210.975 70.9 210.375 71.002 209.727 71.002C209.091 71.002 208.485 70.9 207.909 70.696C207.345 70.492 206.847 70.192 206.415 69.796C205.995 69.4 205.659 68.92 205.407 68.356C205.167 67.792 205.047 67.15 205.047 66.43C205.047 65.734 205.167 65.104 205.407 64.54C205.659 63.976 205.995 63.496 206.415 63.1C206.835 62.704 207.321 62.398 207.873 62.182C208.437 61.966 209.037 61.858 209.673 61.858C210.309 61.858 210.921 61.978 211.509 62.218C212.109 62.458 212.583 62.788 212.931 63.208L211.455 64.504ZM220.244 64.504C220.076 64.264 219.824 64.066 219.488 63.91C219.152 63.742 218.81 63.658 218.462 63.658C218.066 63.658 217.718 63.742 217.418 63.91C217.118 64.066 216.866 64.276 216.662 64.54C216.47 64.804 216.326 65.104 216.23 65.44C216.134 65.764 216.086 66.094 216.086 66.43C216.086 66.766 216.134 67.102 216.23 67.438C216.338 67.762 216.494 68.056 216.698 68.32C216.902 68.584 217.154 68.8 217.454 68.968C217.766 69.124 218.126 69.202 218.534 69.202C218.87 69.202 219.206 69.136 219.542 69.004C219.878 68.872 220.148 68.68 220.352 68.428L221.702 69.796C221.342 70.18 220.88 70.48 220.316 70.696C219.764 70.9 219.164 71.002 218.516 71.002C217.88 71.002 217.274 70.9 216.698 70.696C216.134 70.492 215.636 70.192 215.204 69.796C214.784 69.4 214.448 68.92 214.196 68.356C213.956 67.792 213.836 67.15 213.836 66.43C213.836 65.734 213.956 65.104 214.196 64.54C214.448 63.976 214.784 63.496 215.204 63.1C215.624 62.704 216.11 62.398 216.662 62.182C217.226 61.966 217.826 61.858 218.462 61.858C219.098 61.858 219.71 61.978 220.298 62.218C220.898 62.458 221.372 62.788 221.72 63.208L220.244 64.504ZM222.625 66.394C222.625 65.71 222.745 65.092 222.985 64.54C223.237 63.976 223.573 63.496 223.993 63.1C224.413 62.704 224.911 62.398 225.487 62.182C226.063 61.966 226.675 61.858 227.323 61.858C227.971 61.858 228.583 61.966 229.159 62.182C229.735 62.398 230.233 62.704 230.653 63.1C231.073 63.496 231.403 63.976 231.643 64.54C231.895 65.092 232.021 65.71 232.021 66.394C232.021 67.078 231.895 67.702 231.643 68.266C231.403 68.83 231.073 69.316 230.653 69.724C230.233 70.12 229.735 70.432 229.159 70.66C228.583 70.888 227.971 71.002 227.323 71.002C226.675 71.002 226.063 70.888 225.487 70.66C224.911 70.432 224.413 70.12 223.993 69.724C223.573 69.316 223.237 68.83 222.985 68.266C222.745 67.702 222.625 67.078 222.625 66.394ZM224.821 66.394C224.821 66.73 224.869 67.066 224.965 67.402C225.073 67.738 225.229 68.038 225.433 68.302C225.637 68.566 225.895 68.782 226.207 68.95C226.519 69.118 226.891 69.202 227.323 69.202C227.755 69.202 228.127 69.118 228.439 68.95C228.751 68.782 229.009 68.566 229.213 68.302C229.417 68.038 229.567 67.738 229.663 67.402C229.771 67.066 229.825 66.73 229.825 66.394C229.825 66.058 229.771 65.728 229.663 65.404C229.567 65.068 229.417 64.768 229.213 64.504C229.009 64.24 228.751 64.03 228.439 63.874C228.127 63.706 227.755 63.622 227.323 63.622C226.891 63.622 226.519 63.706 226.207 63.874C225.895 64.03 225.637 64.24 225.433 64.504C225.229 64.768 225.073 65.068 224.965 65.404C224.869 65.728 224.821 66.058 224.821 66.394ZM241.999 70.75H239.947V69.364H239.911C239.719 69.796 239.383 70.18 238.903 70.516C238.435 70.84 237.877 71.002 237.229 71.002C236.665 71.002 236.179 70.906 235.771 70.714C235.375 70.51 235.045 70.246 234.781 69.922C234.529 69.598 234.343 69.226 234.223 68.806C234.103 68.386 234.043 67.954 234.043 67.51V62.11H236.203V66.898C236.203 67.15 236.221 67.414 236.257 67.69C236.293 67.966 236.371 68.218 236.491 68.446C236.611 68.662 236.773 68.842 236.977 68.986C237.193 69.13 237.475 69.202 237.823 69.202C238.159 69.202 238.453 69.136 238.705 69.004C238.969 68.86 239.179 68.68 239.335 68.464C239.503 68.248 239.629 68.002 239.713 67.726C239.797 67.438 239.839 67.15 239.839 66.862V62.11H241.999V70.75ZM244.592 62.11H246.644V63.496H246.68C246.872 63.064 247.202 62.686 247.67 62.362C248.15 62.026 248.714 61.858 249.362 61.858C249.926 61.858 250.406 61.96 250.802 62.164C251.21 62.356 251.54 62.614 251.792 62.938C252.056 63.262 252.248 63.634 252.368 64.054C252.488 64.474 252.548 64.906 252.548 65.35V70.75H250.388V65.962C250.388 65.71 250.37 65.446 250.334 65.17C250.298 64.894 250.22 64.648 250.1 64.432C249.98 64.204 249.812 64.018 249.596 63.874C249.392 63.73 249.116 63.658 248.768 63.658C248.42 63.658 248.12 63.73 247.868 63.874C247.616 64.006 247.406 64.18 247.238 64.396C247.082 64.612 246.962 64.864 246.878 65.152C246.794 65.428 246.752 65.71 246.752 65.998V70.75H244.592V62.11ZM253.826 63.838V62.11H255.338V59.608H257.462V62.11H259.622V63.838H257.462V67.852C257.462 68.236 257.528 68.554 257.66 68.806C257.804 69.058 258.116 69.184 258.596 69.184C258.74 69.184 258.896 69.172 259.064 69.148C259.232 69.112 259.382 69.064 259.514 69.004L259.586 70.696C259.394 70.768 259.166 70.822 258.902 70.858C258.638 70.906 258.386 70.93 258.146 70.93C257.57 70.93 257.102 70.852 256.742 70.696C256.382 70.528 256.094 70.306 255.878 70.03C255.674 69.742 255.53 69.418 255.446 69.058C255.374 68.686 255.338 68.29 255.338 67.87V63.838H253.826ZM264.03 66.754H261.87V58.006H264.03V66.754ZM261.51 69.49C261.51 69.106 261.648 68.776 261.924 68.5C262.212 68.224 262.554 68.086 262.95 68.086C263.334 68.086 263.67 68.218 263.958 68.482C264.246 68.746 264.39 69.07 264.39 69.454C264.39 69.838 264.246 70.168 263.958 70.444C263.682 70.72 263.346 70.858 262.95 70.858C262.758 70.858 262.572 70.822 262.392 70.75C262.224 70.678 262.074 70.582 261.942 70.462C261.81 70.342 261.702 70.198 261.618 70.03C261.546 69.862 261.51 69.682 261.51 69.49Z" fill="#4F4F4F"/>
<path d="M355.507 18.9068C355.385 18.7955 355.385 18.6284 355.507 18.517L360.106 14.3398C360.228 14.2284 360.29 14.0614 360.29 13.95C360.29 13.8386 360.228 13.6715 360.106 13.5601L359.247 12.7804C359.125 12.669 358.941 12.6133 358.818 12.6133C358.634 12.6133 358.512 12.669 358.389 12.7804L353.791 16.9575C353.668 17.0689 353.484 17.0689 353.361 16.9575L348.763 12.7804C348.64 12.669 348.456 12.6133 348.334 12.6133C348.211 12.6133 348.027 12.669 347.905 12.7804L347.046 13.5601C346.924 13.6715 346.862 13.8386 346.862 13.95C346.862 14.0614 346.924 14.2284 347.046 14.3398L351.645 18.517C351.767 18.6284 351.767 18.7955 351.645 18.9068L347.046 23.084C346.924 23.1954 346.862 23.3625 346.862 23.4739C346.862 23.5853 346.924 23.7523 347.046 23.8637L347.905 24.6435C348.027 24.7549 348.211 24.8105 348.334 24.8105C348.456 24.8105 348.64 24.7549 348.763 24.6435L353.361 20.4663C353.484 20.3549 353.668 20.3549 353.791 20.4663L358.389 24.6435C358.512 24.7549 358.695 24.8105 358.818 24.8105C358.941 24.8105 359.125 24.7549 359.247 24.6435L360.106 23.8637C360.228 23.7523 360.29 23.5853 360.29 23.4739C360.29 23.3625 360.228 23.1954 360.106 23.084L355.507 18.9068Z" fill="white"/>
<defs>
<filter id="filter0_d" x="0" y="0" width="382" height="306.471" filterUnits="userSpaceOnUse" color-interpolation-filters="sRGB">
<feFlood flood-opacity="0" result="BackgroundImageFix"/>
<feColorMatrix in="SourceAlpha" type="matrix" values="0 0 0 0 0 0 0 0 0 0 0 0 0 0 0 0 0 0 127 0"/>
<feOffset dy="4"/>
<feGaussianBlur stdDeviation="2"/>
<feColorMatrix type="matrix" values="0 0 0 0 0 0 0 0 0 0 0 0 0 0 0 0 0 0 0.25 0"/>
<feBlend mode="normal" in2="BackgroundImageFix" result="effect1_dropShadow"/>
<feBlend mode="normal" in="SourceGraphic" in2="effect1_dropShadow" result="shape"/>
</filter>
</defs>
</svg>
