<svg width="239" height="71" viewBox="0 0 239 71" fill="none" xmlns="http://www.w3.org/2000/svg">
<path d="M18.0803 56L11.9603 44.76H9.64029V56H2.92029V27.68H13.7203C15.0803 27.68 16.4003 27.8267 17.6803 28.12C18.987 28.3867 20.147 28.8533 21.1603 29.52C22.2003 30.1867 23.027 31.0667 23.6403 32.16C24.2536 33.2533 24.5603 34.6133 24.5603 36.24C24.5603 38.16 24.0403 39.7733 23.0003 41.08C21.9603 42.3867 20.5203 43.32 18.6803 43.88L26.0803 56H18.0803ZM17.8003 36.36C17.8003 35.6933 17.6536 35.16 17.3603 34.76C17.0936 34.3333 16.7336 34.0133 16.2803 33.8C15.8536 33.56 15.3603 33.4 14.8003 33.32C14.267 33.24 13.747 33.2 13.2403 33.2H9.60029V39.8H12.8403C13.4003 39.8 13.9736 39.76 14.5603 39.68C15.147 39.5733 15.6803 39.4 16.1603 39.16C16.6403 38.92 17.027 38.5733 17.3203 38.12C17.6403 37.6667 17.8003 37.08 17.8003 36.36ZM31.4437 56V27.68H50.4837V33.48H38.0437V38.8H49.8037V44.28H38.0437V50.16H51.2037V56H31.4437Z" fill="#6C6C6C"/>
<path d="M87.5023 14.8877C86.9736 14.8877 86.4733 15.001 86.0013 15.2275C85.5293 15.4541 85.1138 15.8223 84.7551 16.332C84.4153 16.8229 84.1416 17.4554 83.9339 18.2295C83.7262 19.0036 83.6224 19.9382 83.6224 21.0332V28H89.8245V30.0391H83.6224V52.3555C83.6224 54.9232 83.2825 57.2926 82.6028 59.4639C81.942 61.6351 80.9319 63.5042 79.5726 65.0713C78.2132 66.6572 76.514 67.8939 74.4749 68.7812C72.4358 69.6686 70.0569 70.1123 67.3382 70.1123C66.3752 70.1123 65.4502 70.0273 64.5628 69.8574C63.6754 69.7064 62.8919 69.4893 62.2122 69.2061C61.5325 68.9229 60.9943 68.583 60.5979 68.1865C60.1825 67.8089 59.9749 67.3841 59.9749 66.9121C59.9749 66.5723 60.0221 66.223 60.1165 65.8643C60.2109 65.5244 60.3525 65.2129 60.5413 64.9297C60.7301 64.6465 60.9661 64.4105 61.2493 64.2217C61.5136 64.0518 61.8252 63.9668 62.1839 63.9668C62.3916 63.9668 62.5804 64.0706 62.7503 64.2783C62.9013 64.486 63.0618 64.7409 63.2317 65.043C63.4017 65.3451 63.5999 65.6755 63.8265 66.0342C64.0342 66.4118 64.3079 66.7516 64.6478 67.0537C64.9876 67.3558 65.4123 67.6107 65.9221 67.8184C66.413 68.026 67.0171 68.1299 67.7346 68.1299C68.6975 68.1299 69.5472 67.9316 70.2835 67.5352C71.0198 67.1576 71.6523 66.6289 72.181 65.9492C72.7096 65.2695 73.1533 64.4671 73.512 63.542C73.8707 62.6169 74.1538 61.6257 74.3615 60.5684C74.5692 59.5111 74.7109 58.4066 74.7864 57.2549C74.8808 56.1032 74.9279 54.9515 74.9279 53.7998V30.0391H69.717V28H74.9279V24.6865C74.9279 23.0251 75.1263 21.5807 75.5228 20.3535C75.9381 19.1074 76.4762 18.0501 77.137 17.1816C77.8167 16.3132 78.5814 15.6051 79.431 15.0576C80.2806 14.5101 81.1395 14.0758 82.008 13.7549C82.8954 13.4339 83.7545 13.2168 84.5853 13.1035C85.416 12.9902 86.1429 12.9336 86.7659 12.9336C88.1064 12.9336 89.2959 13.0374 90.3343 13.2451C91.3727 13.4339 92.2411 13.6982 92.9398 14.0381C93.6383 14.359 94.167 14.7367 94.5257 15.1709C94.8843 15.6051 95.0638 16.0488 95.0638 16.502C95.0638 16.8418 95.0071 17.1911 94.8939 17.5498C94.7995 17.8896 94.6579 18.2106 94.4691 18.5127C94.2802 18.7959 94.0441 19.0319 93.7609 19.2207C93.4966 19.3906 93.1946 19.4756 92.8548 19.4756C92.6471 19.4756 92.4583 19.3623 92.2884 19.1357C92.1185 18.9092 91.9391 18.626 91.7503 18.2861C91.5615 17.9463 91.3538 17.5781 91.1273 17.1816C90.9007 16.7852 90.6174 16.417 90.2775 16.0771C89.9566 15.7373 89.5696 15.4541 89.1165 15.2275C88.6634 15.001 88.1252 14.8877 87.5023 14.8877ZM103.756 33.5791C104.473 32.484 105.238 31.4928 106.049 30.6055C106.389 30.2279 106.757 29.8597 107.154 29.501C107.55 29.1423 107.956 28.8213 108.372 28.5381C108.806 28.2549 109.25 28.0283 109.703 27.8584C110.156 27.6885 110.609 27.6035 111.062 27.6035C112.025 27.6035 112.78 27.8962 113.328 28.4814C113.875 29.0479 114.149 29.8503 114.149 30.8887C114.149 31.5306 114.092 32.1536 113.979 32.7578C113.885 33.3431 113.687 34.0605 113.384 34.9102H112.591C112.478 34.3249 112.214 33.8434 111.799 33.4658C111.383 33.0693 110.779 32.8711 109.986 32.8711C109.401 32.8711 108.825 32.9844 108.258 33.2109C107.692 33.4186 107.135 33.6829 106.588 34.0039C106.059 34.3249 105.549 34.6742 105.058 35.0518C104.586 35.4294 104.152 35.7881 103.756 36.1279V54.5078C103.756 54.7533 103.718 55.0459 103.642 55.3857C103.567 55.7256 103.378 56.0465 103.076 56.3486C102.793 56.6507 102.358 56.9056 101.773 57.1133C101.207 57.3398 100.423 57.4531 99.4228 57.4531C98.4222 57.4531 97.6292 57.3304 97.0439 57.085C96.4775 56.8584 96.0433 56.5846 95.7411 56.2637C95.439 55.9427 95.2503 55.6123 95.1748 55.2725C95.0993 54.9326 95.0615 54.6589 95.0615 54.4512V32.5879C95.0615 32.0404 94.9293 31.5684 94.665 31.1719C94.4196 30.7565 93.9947 30.5488 93.3905 30.5488C93.0695 30.5488 92.7959 30.6055 92.5693 30.7188C92.3428 30.832 92.0973 30.9925 91.833 31.2002L91.2383 30.4922C91.6725 30.1335 92.1539 29.7842 92.6825 29.4443C93.23 29.0856 93.8154 28.7741 94.4385 28.5098C95.0615 28.2454 95.7318 28.0283 96.4492 27.8584C97.1666 27.6885 97.9219 27.6035 98.7148 27.6035C99.5267 27.6035 100.216 27.7168 100.782 27.9434C101.367 28.151 101.839 28.4342 102.198 28.793C102.576 29.1328 102.868 29.5199 103.076 29.9541C103.284 30.3883 103.435 30.832 103.529 31.2852C103.642 31.7194 103.708 32.1442 103.727 32.5596C103.746 32.9561 103.756 33.2959 103.756 33.5791ZM123.891 44.001C123.891 44.6051 123.976 45.266 124.146 45.9834C124.335 46.682 124.599 47.39 124.939 48.1074C125.279 48.8249 125.694 49.514 126.185 50.1748C126.695 50.8167 127.271 51.3926 127.913 51.9023C128.574 52.4121 129.3 52.818 130.093 53.1201C130.886 53.4222 131.755 53.5732 132.699 53.5732C133.36 53.5732 133.973 53.4977 134.54 53.3467C135.106 53.1956 135.635 52.988 136.126 52.7236C136.617 52.4593 137.089 52.1572 137.542 51.8174C137.995 51.4587 138.448 51.0811 138.901 50.6846L139.609 51.3643C139.175 51.9495 138.618 52.5915 137.938 53.29C137.258 53.9886 136.437 54.6494 135.474 55.2725C134.511 55.8766 133.388 56.3864 132.104 56.8018C130.82 57.1982 129.357 57.3965 127.715 57.3965C126.072 57.3965 124.467 57.1038 122.9 56.5186C121.352 55.9144 119.974 55.0176 118.765 53.8281C117.557 52.6387 116.585 51.1566 115.848 49.3818C115.131 47.6071 114.772 45.5303 114.772 43.1514C114.772 41.4333 114.989 39.8568 115.424 38.4219C115.858 36.987 116.443 35.6937 117.179 34.542C117.935 33.3903 118.803 32.3802 119.785 31.5117C120.785 30.6432 121.833 29.9258 122.928 29.3594C124.023 28.7741 125.137 28.3398 126.27 28.0566C127.422 27.7546 128.526 27.6035 129.584 27.6035C130.981 27.6035 132.199 27.7546 133.237 28.0566C134.275 28.3587 135.134 28.7646 135.814 29.2744C136.513 29.7842 137.032 30.3789 137.372 31.0586C137.712 31.7194 137.882 32.418 137.882 33.1543C137.882 34.0417 137.627 34.8441 137.117 35.5615C136.607 36.2601 135.927 36.8737 135.078 37.4023L123.891 44.001ZM129.584 38.252C129.829 38.1009 130.027 37.9593 130.178 37.8271C130.348 37.6761 130.48 37.5062 130.575 37.3174C130.669 37.1097 130.735 36.8643 130.773 36.5811C130.83 36.279 130.858 35.9108 130.858 35.4766C130.858 35.0046 130.801 34.4854 130.688 33.9189C130.594 33.3337 130.424 32.7861 130.178 32.2764C129.933 31.7666 129.621 31.3418 129.244 31.002C128.866 30.6621 128.413 30.4922 127.884 30.4922C127.205 30.4922 126.619 30.6999 126.129 31.1152C125.657 31.5117 125.26 32.0309 124.939 32.6729C124.637 33.3148 124.392 34.0511 124.203 34.8818C124.033 35.6937 123.901 36.515 123.806 37.3457C123.712 38.1764 123.655 38.9788 123.636 39.7529C123.618 40.5081 123.608 41.1501 123.608 41.6787L129.584 38.252ZM152.523 29.8691C152.089 29.8691 151.674 29.9258 151.277 30.0391C150.899 30.1523 150.56 30.3411 150.257 30.6055C149.955 30.8509 149.719 31.1719 149.549 31.5684C149.38 31.946 149.295 32.3991 149.295 32.9277C149.295 33.6641 149.559 34.4004 150.088 35.1367C150.635 35.8542 151.305 36.6094 152.098 37.4023C152.91 38.1764 153.779 38.9883 154.704 39.8379C155.648 40.6686 156.516 41.556 157.309 42.5C158.121 43.4251 158.791 44.4163 159.32 45.4736C159.868 46.5309 160.141 47.6637 160.141 48.8721C160.141 50.2314 159.905 51.4398 159.433 52.4971C158.98 53.5544 158.319 54.4512 157.451 55.1875C156.601 55.9238 155.563 56.4902 154.336 56.8867C153.127 57.2643 151.777 57.4531 150.286 57.4531C148.983 57.4531 147.803 57.2738 146.746 56.915C145.688 56.5374 144.744 56.0843 143.914 55.5557C143.102 55.0081 142.403 54.4323 141.818 53.8281C141.233 53.224 140.78 52.6764 140.459 52.1855L141.45 51.4775C141.695 51.7607 142.007 52.0723 142.384 52.4121C142.762 52.7331 143.177 53.0352 143.631 53.3184C144.103 53.6016 144.603 53.8376 145.132 54.0264C145.66 54.1963 146.198 54.2812 146.746 54.2812C148.105 54.2812 149.219 53.9603 150.088 53.3184C150.956 52.6576 151.39 51.6852 151.39 50.4014C151.39 49.6839 151.154 48.9476 150.682 48.1924C150.21 47.4183 149.616 46.6253 148.898 45.8135C148.181 45.0016 147.407 44.1615 146.576 43.293C145.745 42.4245 144.971 41.5277 144.254 40.6025C143.536 39.6774 142.941 38.724 142.469 37.7422C141.997 36.7604 141.761 35.7409 141.761 34.6836C141.761 33.4941 141.997 32.4557 142.469 31.5684C142.96 30.681 143.602 29.9447 144.395 29.3594C145.207 28.7741 146.123 28.3398 147.142 28.0566C148.181 27.7546 149.247 27.6035 150.342 27.6035C151.607 27.6035 152.759 27.7168 153.798 27.9434C154.836 28.1699 155.723 28.5192 156.46 28.9912C157.215 29.4443 157.791 30.0202 158.187 30.7188C158.603 31.4173 158.81 32.2292 158.81 33.1543C158.81 33.8717 158.574 34.4948 158.102 35.0234C157.63 35.5521 156.969 35.8164 156.12 35.8164C155.308 35.8164 154.685 35.6465 154.251 35.3066C153.835 34.9479 153.628 34.4665 153.628 33.8623C153.628 33.4658 153.722 33.1543 153.911 32.9277C154.119 32.7012 154.345 32.5218 154.591 32.3896C154.836 32.2386 155.053 32.1159 155.242 32.0215C155.45 31.9082 155.553 31.7666 155.553 31.5967C155.553 31.068 155.27 30.6527 154.704 30.3506C154.137 30.0296 153.41 29.8691 152.523 29.8691ZM174.392 32.9844C175.09 31.9837 175.883 31.0869 176.771 30.2939C177.129 29.9541 177.526 29.6237 177.96 29.3027C178.413 28.9818 178.885 28.6986 179.376 28.4531C179.886 28.1888 180.415 27.9811 180.962 27.8301C181.529 27.679 182.104 27.6035 182.69 27.6035C183.955 27.6035 185.087 27.849 186.088 28.3398C187.089 28.8307 187.929 29.652 188.609 30.8037C189.288 31.9554 189.808 33.4847 190.166 35.3916C190.525 37.2796 190.704 39.6302 190.704 42.4434C190.704 45.181 190.459 47.5599 189.968 49.5801C189.477 51.6003 188.835 53.3184 188.042 54.7344C187.249 56.1504 186.352 57.3021 185.352 58.1895C184.351 59.0957 183.341 59.8037 182.322 60.3135C181.302 60.8232 180.32 61.1725 179.376 61.3613C178.432 61.569 177.62 61.6823 176.941 61.7012L176.657 60.54C177.507 60.3324 178.262 59.9453 178.923 59.3789C179.584 58.8125 180.141 57.8874 180.594 56.6035C181.047 55.3008 181.387 53.5544 181.614 51.3643C181.859 49.1742 181.982 46.3516 181.982 42.8965C181.982 40.5176 181.868 38.6201 181.642 37.2041C181.434 35.7692 181.151 34.6836 180.792 33.9473C180.452 33.1921 180.056 32.7012 179.603 32.4746C179.169 32.2292 178.725 32.1064 178.272 32.1064C177.724 32.1064 177.243 32.2575 176.827 32.5596C176.412 32.8428 176.044 33.1732 175.723 33.5508C175.421 33.9284 175.156 34.306 174.93 34.6836C174.722 35.0612 174.543 35.3444 174.392 35.5332V54.4512C174.392 54.6966 174.354 54.9987 174.279 55.3574C174.203 55.6973 174.014 56.0277 173.712 56.3486C173.429 56.6507 172.995 56.9056 172.409 57.1133C171.843 57.3398 171.059 57.4531 170.059 57.4531C169.058 57.4531 168.265 57.3304 167.68 57.085C167.095 56.8584 166.651 56.5846 166.349 56.2637C166.066 55.9427 165.886 55.6123 165.811 55.2725C165.735 54.9326 165.698 54.6589 165.698 54.4512V17.918C165.698 17.3704 165.565 16.8984 165.301 16.502C165.056 16.0866 164.631 15.8789 164.027 15.8789C163.706 15.8789 163.422 15.9355 163.177 16.0488C162.95 16.1432 162.705 16.2943 162.441 16.502L161.874 15.8223C162.309 15.4635 162.79 15.1143 163.319 14.7744C163.847 14.4157 164.423 14.1042 165.046 13.8398C165.688 13.5755 166.368 13.3584 167.085 13.1885C167.803 13.0186 168.558 12.9336 169.351 12.9336C170.578 12.9336 171.531 13.1035 172.211 13.4434C172.891 13.7643 173.391 14.1702 173.712 14.6611C174.033 15.1331 174.222 15.6429 174.279 16.1904C174.354 16.7191 174.392 17.1911 174.392 17.6064V32.9844Z" fill="#4CAEB7"/>
<path d="M56.9604 51.15C56.9604 49.9767 57.3821 48.9683 58.2254 48.125C59.1054 47.2817 60.1504 46.86 61.3604 46.86C62.5337 46.86 63.5604 47.2633 64.4404 48.07C65.3204 48.8767 65.7604 49.8667 65.7604 51.04C65.7604 52.2133 65.3204 53.2217 64.4404 54.065C63.5971 54.9083 62.5704 55.33 61.3604 55.33C60.7737 55.33 60.2054 55.22 59.6554 55C59.1421 54.78 58.6837 54.4867 58.2804 54.12C57.8771 53.7533 57.5471 53.3133 57.2904 52.8C57.0704 52.2867 56.9604 51.7367 56.9604 51.15ZM56.9604 32.56C56.9604 31.3867 57.3821 30.3783 58.2254 29.535C59.1054 28.6917 60.1504 28.27 61.3604 28.27C62.5337 28.27 63.5604 28.6733 64.4404 29.48C65.3204 30.2867 65.7604 31.2767 65.7604 32.45C65.7604 33.6233 65.3204 34.6317 64.4404 35.475C63.5971 36.3183 62.5704 36.74 61.3604 36.74C60.7737 36.74 60.2054 36.63 59.6554 36.41C59.1421 36.19 58.6837 35.8967 58.2804 35.53C57.8771 35.1633 57.5471 34.7233 57.2904 34.21C57.0704 33.6967 56.9604 33.1467 56.9604 32.56Z" fill="#6C6C6C"/>
</svg>
