<svg width="612" height="1181" viewBox="0 0 612 1181" fill="none" xmlns="http://www.w3.org/2000/svg">
<rect width="612" height="1181" fill="white"/>
<ellipse cx="306" cy="54.5" rx="61" ry="35.5" fill="#C4C4C4"/>
<path d="M291.858 52.2959C290.411 51.8799 289.356 51.3701 288.694 50.7666C288.038 50.1572 287.71 49.4072 287.71 48.5166C287.71 47.5088 288.111 46.6768 288.914 46.0205C289.723 45.3584 290.771 45.0273 292.061 45.0273C292.939 45.0273 293.722 45.1973 294.407 45.5371C295.099 45.877 295.632 46.3457 296.007 46.9434C296.388 47.541 296.578 48.1943 296.578 48.9033H294.882C294.882 48.1299 294.636 47.5234 294.144 47.084C293.651 46.6387 292.957 46.416 292.061 46.416C291.229 46.416 290.578 46.6006 290.109 46.9697C289.646 47.333 289.415 47.8398 289.415 48.4902C289.415 49.0117 289.635 49.4541 290.074 49.8174C290.52 50.1748 291.272 50.5029 292.333 50.8018C293.399 51.1006 294.231 51.4316 294.829 51.7949C295.433 52.1523 295.878 52.5713 296.165 53.0518C296.458 53.5322 296.604 54.0977 296.604 54.748C296.604 55.7852 296.2 56.6172 295.392 57.2441C294.583 57.8652 293.502 58.1758 292.148 58.1758C291.27 58.1758 290.449 58.0088 289.688 57.6748C288.926 57.335 288.337 56.8721 287.921 56.2861C287.511 55.7002 287.306 55.0352 287.306 54.291H289.002C289.002 55.0645 289.286 55.6768 289.854 56.1279C290.429 56.5732 291.193 56.7959 292.148 56.7959C293.039 56.7959 293.722 56.6143 294.196 56.251C294.671 55.8877 294.908 55.3926 294.908 54.7656C294.908 54.1387 294.688 53.6553 294.249 53.3154C293.81 52.9697 293.013 52.6299 291.858 52.2959ZM300.727 46.1875V48.4902H302.502V49.7471H300.727V55.6445C300.727 56.0254 300.806 56.3125 300.964 56.5059C301.122 56.6934 301.392 56.7871 301.772 56.7871C301.96 56.7871 302.218 56.752 302.546 56.6816V58C302.118 58.1172 301.702 58.1758 301.298 58.1758C300.571 58.1758 300.023 57.9561 299.654 57.5166C299.285 57.0771 299.101 56.4531 299.101 55.6445V49.7471H297.369V48.4902H299.101V46.1875H300.727ZM310.28 58C310.187 57.8125 310.11 57.4785 310.052 56.998C309.296 57.7832 308.394 58.1758 307.345 58.1758C306.407 58.1758 305.637 57.9121 305.033 57.3848C304.436 56.8516 304.137 56.1777 304.137 55.3633C304.137 54.373 304.512 53.6055 305.262 53.0605C306.018 52.5098 307.078 52.2344 308.443 52.2344H310.025V51.4873C310.025 50.9189 309.855 50.4678 309.516 50.1338C309.176 49.7939 308.675 49.624 308.013 49.624C307.433 49.624 306.946 49.7705 306.554 50.0635C306.161 50.3564 305.965 50.7109 305.965 51.127H304.33C304.33 50.6523 304.497 50.1953 304.831 49.7559C305.171 49.3105 305.628 48.959 306.202 48.7012C306.782 48.4434 307.418 48.3145 308.109 48.3145C309.205 48.3145 310.063 48.5898 310.685 49.1406C311.306 49.6855 311.628 50.4385 311.651 51.3994V55.7764C311.651 56.6494 311.763 57.3438 311.985 57.8594V58H310.28ZM307.582 56.7607C308.092 56.7607 308.575 56.6289 309.032 56.3652C309.489 56.1016 309.82 55.7588 310.025 55.3369V53.3857H308.751C306.759 53.3857 305.763 53.9688 305.763 55.1348C305.763 55.6445 305.933 56.043 306.272 56.3301C306.612 56.6172 307.049 56.7607 307.582 56.7607ZM318.797 49.9492C318.551 49.9082 318.284 49.8877 317.997 49.8877C316.931 49.8877 316.207 50.3418 315.826 51.25V58H314.2V48.4902H315.782L315.809 49.5889C316.342 48.7393 317.098 48.3145 318.076 48.3145C318.393 48.3145 318.633 48.3555 318.797 48.4375V49.9492ZM322.945 46.1875V48.4902H324.721V49.7471H322.945V55.6445C322.945 56.0254 323.024 56.3125 323.183 56.5059C323.341 56.6934 323.61 56.7871 323.991 56.7871C324.179 56.7871 324.437 56.752 324.765 56.6816V58C324.337 58.1172 323.921 58.1758 323.517 58.1758C322.79 58.1758 322.242 57.9561 321.873 57.5166C321.504 57.0771 321.319 56.4531 321.319 55.6445V49.7471H319.588V48.4902H321.319V46.1875H322.945Z" fill="black"/>
<path d="M305.646 131.354C305.842 131.549 306.158 131.549 306.354 131.354L309.536 128.172C309.731 127.976 309.731 127.66 309.536 127.464C309.34 127.269 309.024 127.269 308.828 127.464L306 130.293L303.172 127.464C302.976 127.269 302.66 127.269 302.464 127.464C302.269 127.66 302.269 127.976 302.464 128.172L305.646 131.354ZM305.5 90V131H306.5V90H305.5Z" fill="black"/>
<rect x="248" y="131" width="120" height="60" fill="#C4C4C4"/>
<path d="M272.027 168H270.331V162.085H263.88V168H262.192V155.203H263.88V160.705H270.331V155.203H272.027V168ZM274.339 163.157C274.339 162.226 274.521 161.388 274.884 160.644C275.253 159.899 275.763 159.325 276.413 158.921C277.069 158.517 277.816 158.314 278.654 158.314C279.949 158.314 280.995 158.763 281.792 159.659C282.595 160.556 282.996 161.748 282.996 163.236V163.351C282.996 164.276 282.817 165.108 282.46 165.847C282.108 166.579 281.602 167.15 280.939 167.561C280.283 167.971 279.527 168.176 278.672 168.176C277.383 168.176 276.337 167.728 275.534 166.831C274.737 165.935 274.339 164.748 274.339 163.271V163.157ZM275.974 163.351C275.974 164.405 276.217 165.252 276.703 165.891C277.195 166.529 277.852 166.849 278.672 166.849C279.498 166.849 280.154 166.526 280.641 165.882C281.127 165.231 281.37 164.323 281.37 163.157C281.37 162.114 281.121 161.271 280.623 160.626C280.131 159.976 279.475 159.65 278.654 159.65C277.852 159.65 277.204 159.97 276.712 160.608C276.22 161.247 275.974 162.161 275.974 163.351ZM286.564 158.49L286.608 159.545C287.306 158.725 288.246 158.314 289.43 158.314C290.76 158.314 291.665 158.824 292.146 159.844C292.462 159.387 292.872 159.018 293.376 158.736C293.886 158.455 294.486 158.314 295.178 158.314C297.264 158.314 298.324 159.419 298.359 161.628V168H296.733V161.725C296.733 161.045 296.578 160.538 296.268 160.204C295.957 159.864 295.436 159.694 294.703 159.694C294.1 159.694 293.599 159.876 293.2 160.239C292.802 160.597 292.57 161.08 292.506 161.689V168H290.871V161.769C290.871 160.386 290.194 159.694 288.841 159.694C287.774 159.694 287.045 160.148 286.652 161.057V168H285.026V158.49H286.564ZM304.767 168.176C303.478 168.176 302.429 167.754 301.62 166.91C300.812 166.061 300.407 164.927 300.407 163.509V163.21C300.407 162.267 300.586 161.426 300.943 160.688C301.307 159.943 301.811 159.363 302.455 158.947C303.105 158.525 303.809 158.314 304.564 158.314C305.801 158.314 306.762 158.722 307.447 159.536C308.133 160.351 308.476 161.517 308.476 163.034V163.711H302.033C302.057 164.648 302.329 165.407 302.851 165.987C303.378 166.562 304.046 166.849 304.854 166.849C305.429 166.849 305.915 166.731 306.313 166.497C306.712 166.263 307.061 165.952 307.359 165.565L308.353 166.339C307.556 167.563 306.36 168.176 304.767 168.176ZM304.564 159.65C303.908 159.65 303.357 159.891 302.912 160.371C302.467 160.846 302.191 161.514 302.086 162.375H306.85V162.252C306.803 161.426 306.58 160.787 306.182 160.336C305.783 159.879 305.244 159.65 304.564 159.65ZM316.772 162.99V168H315.085V155.203H319.805C321.205 155.203 322.301 155.561 323.092 156.275C323.889 156.99 324.287 157.937 324.287 159.114C324.287 160.356 323.897 161.314 323.118 161.988C322.345 162.656 321.234 162.99 319.787 162.99H316.772ZM316.772 161.61H319.805C320.707 161.61 321.398 161.399 321.879 160.978C322.359 160.55 322.6 159.935 322.6 159.132C322.6 158.37 322.359 157.761 321.879 157.304C321.398 156.847 320.739 156.609 319.901 156.592H316.772V161.61ZM331.951 168C331.857 167.812 331.781 167.479 331.723 166.998C330.967 167.783 330.064 168.176 329.016 168.176C328.078 168.176 327.308 167.912 326.704 167.385C326.106 166.852 325.808 166.178 325.808 165.363C325.808 164.373 326.183 163.605 326.933 163.061C327.688 162.51 328.749 162.234 330.114 162.234H331.696V161.487C331.696 160.919 331.526 160.468 331.187 160.134C330.847 159.794 330.346 159.624 329.684 159.624C329.104 159.624 328.617 159.771 328.225 160.063C327.832 160.356 327.636 160.711 327.636 161.127H326.001C326.001 160.652 326.168 160.195 326.502 159.756C326.842 159.311 327.299 158.959 327.873 158.701C328.453 158.443 329.089 158.314 329.78 158.314C330.876 158.314 331.734 158.59 332.355 159.141C332.977 159.686 333.299 160.438 333.322 161.399V165.776C333.322 166.649 333.434 167.344 333.656 167.859V168H331.951ZM329.253 166.761C329.763 166.761 330.246 166.629 330.703 166.365C331.16 166.102 331.491 165.759 331.696 165.337V163.386H330.422C328.43 163.386 327.434 163.969 327.434 165.135C327.434 165.645 327.604 166.043 327.943 166.33C328.283 166.617 328.72 166.761 329.253 166.761ZM335.484 163.166C335.484 161.684 335.827 160.506 336.513 159.633C337.198 158.754 338.106 158.314 339.237 158.314C340.397 158.314 341.303 158.725 341.953 159.545L342.032 158.49H343.518V167.771C343.518 169.002 343.151 169.972 342.419 170.681C341.692 171.39 340.714 171.744 339.483 171.744C338.798 171.744 338.127 171.598 337.471 171.305C336.814 171.012 336.313 170.61 335.968 170.101L336.812 169.125C337.509 169.986 338.361 170.417 339.369 170.417C340.16 170.417 340.775 170.194 341.215 169.749C341.66 169.304 341.883 168.677 341.883 167.868V167.051C341.232 167.801 340.345 168.176 339.22 168.176C338.106 168.176 337.204 167.728 336.513 166.831C335.827 165.935 335.484 164.713 335.484 163.166ZM337.119 163.351C337.119 164.423 337.339 165.267 337.778 165.882C338.218 166.491 338.833 166.796 339.624 166.796C340.649 166.796 341.402 166.33 341.883 165.398V161.057C341.385 160.148 340.638 159.694 339.642 159.694C338.851 159.694 338.232 160.002 337.787 160.617C337.342 161.232 337.119 162.144 337.119 163.351ZM349.925 168.176C348.636 168.176 347.587 167.754 346.778 166.91C345.97 166.061 345.565 164.927 345.565 163.509V163.21C345.565 162.267 345.744 161.426 346.102 160.688C346.465 159.943 346.969 159.363 347.613 158.947C348.264 158.525 348.967 158.314 349.723 158.314C350.959 158.314 351.92 158.722 352.605 159.536C353.291 160.351 353.634 161.517 353.634 163.034V163.711H347.191C347.215 164.648 347.487 165.407 348.009 165.987C348.536 166.562 349.204 166.849 350.013 166.849C350.587 166.849 351.073 166.731 351.472 166.497C351.87 166.263 352.219 165.952 352.518 165.565L353.511 166.339C352.714 167.563 351.519 168.176 349.925 168.176ZM349.723 159.65C349.066 159.65 348.516 159.891 348.07 160.371C347.625 160.846 347.35 161.514 347.244 162.375H352.008V162.252C351.961 161.426 351.738 160.787 351.34 160.336C350.941 159.879 350.402 159.65 349.723 159.65Z" fill="black"/>
<path d="M306.146 260.357C306.342 260.552 306.658 260.552 306.854 260.357L310.036 257.175C310.231 256.98 310.231 256.663 310.036 256.468C309.84 256.273 309.524 256.273 309.328 256.468L306.5 259.297L303.672 256.468C303.476 256.273 303.16 256.273 302.964 256.468C302.769 256.663 302.769 256.98 302.964 257.175L306.146 260.357ZM306 191.996V260.004H307V191.996H306Z" fill="black"/>
<path d="M306.172 611.359C306.368 611.553 306.685 611.551 306.879 611.354L310.041 608.153C310.235 607.956 310.233 607.64 310.037 607.446C309.841 607.252 309.524 607.254 309.33 607.45L306.519 610.296L303.673 607.485C303.477 607.291 303.16 607.293 302.966 607.489C302.772 607.686 302.774 608.002 302.97 608.196L306.172 611.359ZM304.5 363.003L306.023 611.006L307.023 611L305.5 362.997L304.5 363.003Z" fill="black"/>
<path d="M305.646 832.324C305.842 832.519 306.158 832.519 306.354 832.324L309.536 829.142C309.731 828.946 309.731 828.63 309.536 828.435C309.34 828.239 309.024 828.239 308.828 828.435L306 831.263L303.172 828.435C302.976 828.239 302.66 828.239 302.464 828.435C302.269 828.63 302.269 828.946 302.464 829.142L305.646 832.324ZM305.5 701.97V831.97H306.5V701.97H305.5Z" fill="black"/>
<path d="M150.643 905.167C150.448 905.362 150.448 905.678 150.643 905.874L153.825 909.056C154.02 909.251 154.337 909.251 154.532 909.056C154.728 908.86 154.728 908.544 154.532 908.349L151.704 905.52L154.532 902.692C154.728 902.497 154.728 902.18 154.532 901.985C154.337 901.789 154.02 901.789 153.825 901.985L150.643 905.167ZM234.995 905.02H150.997V906.02H234.995V905.02Z" fill="black"/>
<path d="M521.646 608.354C521.842 608.549 522.158 608.549 522.354 608.354L525.536 605.172C525.731 604.976 525.731 604.66 525.536 604.464C525.34 604.269 525.024 604.269 524.828 604.464L522 607.293L519.172 604.464C518.976 604.269 518.66 604.269 518.464 604.464C518.269 604.66 518.269 604.976 518.464 605.172L521.646 608.354ZM521.5 558V608H522.5V558H521.5Z" fill="black"/>
<path d="M521.646 753.354C521.842 753.549 522.158 753.549 522.354 753.354L525.536 750.172C525.731 749.976 525.731 749.66 525.536 749.464C525.34 749.269 525.024 749.269 524.828 749.464L522 752.293L519.172 749.464C518.976 749.269 518.66 749.269 518.464 749.464C518.269 749.66 518.269 749.976 518.464 750.172L521.646 753.354ZM521.5 703V753H522.5V703H521.5Z" fill="black"/>
<path d="M305.646 1028.35C305.842 1028.55 306.158 1028.55 306.354 1028.35L309.536 1025.17C309.731 1024.98 309.731 1024.66 309.536 1024.46C309.34 1024.27 309.024 1024.27 308.828 1024.46L306 1027.29L303.172 1024.46C302.976 1024.27 302.66 1024.27 302.464 1024.46C302.269 1024.66 302.269 1024.98 302.464 1025.17L305.646 1028.35ZM305.5 978V1028H306.5V978H305.5Z" fill="black"/>
<rect x="254" y="260" width="103" height="103" fill="#C4C4C4"/>
<rect x="234" y="904.832" width="103" height="103" transform="rotate(-45 234 904.832)" fill="#C4C4C4"/>
<rect x="448" y="484.832" width="103" height="103" transform="rotate(-45 448 484.832)" fill="#C4C4C4"/>
<path d="M288.498 315.62H294.562V317H286.802V304.203H288.498V315.62ZM295.802 312.157C295.802 311.226 295.983 310.388 296.347 309.644C296.716 308.899 297.226 308.325 297.876 307.921C298.532 307.517 299.279 307.314 300.117 307.314C301.412 307.314 302.458 307.763 303.255 308.659C304.058 309.556 304.459 310.748 304.459 312.236V312.351C304.459 313.276 304.28 314.108 303.923 314.847C303.571 315.579 303.064 316.15 302.402 316.561C301.746 316.971 300.99 317.176 300.135 317.176C298.846 317.176 297.8 316.728 296.997 315.831C296.2 314.935 295.802 313.748 295.802 312.271V312.157ZM297.437 312.351C297.437 313.405 297.68 314.252 298.166 314.891C298.658 315.529 299.314 315.849 300.135 315.849C300.961 315.849 301.617 315.526 302.104 314.882C302.59 314.231 302.833 313.323 302.833 312.157C302.833 311.114 302.584 310.271 302.086 309.626C301.594 308.976 300.938 308.65 300.117 308.65C299.314 308.65 298.667 308.97 298.175 309.608C297.683 310.247 297.437 311.161 297.437 312.351ZM306.111 312.166C306.111 310.684 306.454 309.506 307.14 308.633C307.825 307.754 308.733 307.314 309.864 307.314C311.024 307.314 311.93 307.725 312.58 308.545L312.659 307.49H314.145V316.771C314.145 318.002 313.778 318.972 313.046 319.681C312.319 320.39 311.341 320.744 310.11 320.744C309.425 320.744 308.754 320.598 308.098 320.305C307.441 320.012 306.94 319.61 306.595 319.101L307.438 318.125C308.136 318.986 308.988 319.417 309.996 319.417C310.787 319.417 311.402 319.194 311.842 318.749C312.287 318.304 312.51 317.677 312.51 316.868V316.051C311.859 316.801 310.972 317.176 309.847 317.176C308.733 317.176 307.831 316.728 307.14 315.831C306.454 314.935 306.111 313.713 306.111 312.166ZM307.746 312.351C307.746 313.423 307.966 314.267 308.405 314.882C308.845 315.491 309.46 315.796 310.251 315.796C311.276 315.796 312.029 315.33 312.51 314.398V310.057C312.012 309.148 311.265 308.694 310.269 308.694C309.478 308.694 308.859 309.002 308.414 309.617C307.969 310.232 307.746 311.144 307.746 312.351ZM318.372 317H316.746V307.49H318.372V317ZM316.614 304.968C316.614 304.704 316.693 304.481 316.852 304.3C317.016 304.118 317.256 304.027 317.572 304.027C317.889 304.027 318.129 304.118 318.293 304.3C318.457 304.481 318.539 304.704 318.539 304.968C318.539 305.231 318.457 305.451 318.293 305.627C318.129 305.803 317.889 305.891 317.572 305.891C317.256 305.891 317.016 305.803 316.852 305.627C316.693 305.451 316.614 305.231 316.614 304.968ZM322.521 307.49L322.573 308.686C323.3 307.771 324.249 307.314 325.421 307.314C327.431 307.314 328.444 308.448 328.462 310.716V317H326.836V310.707C326.83 310.021 326.672 309.515 326.361 309.187C326.057 308.858 325.579 308.694 324.929 308.694C324.401 308.694 323.938 308.835 323.54 309.116C323.142 309.397 322.831 309.767 322.608 310.224V317H320.982V307.49H322.521Z" fill="black"/>
<path d="M272.692 908.759L276.349 898.203H278.194L273.448 911H271.954L267.217 898.203H269.054L272.692 908.759ZM285.129 911C285.035 910.812 284.959 910.479 284.9 909.998C284.145 910.783 283.242 911.176 282.193 911.176C281.256 911.176 280.485 910.912 279.882 910.385C279.284 909.852 278.985 909.178 278.985 908.363C278.985 907.373 279.36 906.605 280.11 906.061C280.866 905.51 281.927 905.234 283.292 905.234H284.874V904.487C284.874 903.919 284.704 903.468 284.364 903.134C284.024 902.794 283.523 902.624 282.861 902.624C282.281 902.624 281.795 902.771 281.402 903.063C281.01 903.356 280.813 903.711 280.813 904.127H279.179C279.179 903.652 279.346 903.195 279.68 902.756C280.02 902.311 280.477 901.959 281.051 901.701C281.631 901.443 282.267 901.314 282.958 901.314C284.054 901.314 284.912 901.59 285.533 902.141C286.154 902.686 286.477 903.438 286.5 904.399V908.776C286.5 909.649 286.611 910.344 286.834 910.859V911H285.129ZM282.431 909.761C282.94 909.761 283.424 909.629 283.881 909.365C284.338 909.102 284.669 908.759 284.874 908.337V906.386H283.6C281.607 906.386 280.611 906.969 280.611 908.135C280.611 908.645 280.781 909.043 281.121 909.33C281.461 909.617 281.897 909.761 282.431 909.761ZM290.815 911H289.189V897.5H290.815V911ZM295.192 911H293.566V901.49H295.192V911ZM293.435 898.968C293.435 898.704 293.514 898.481 293.672 898.3C293.836 898.118 294.076 898.027 294.393 898.027C294.709 898.027 294.949 898.118 295.113 898.3C295.277 898.481 295.359 898.704 295.359 898.968C295.359 899.231 295.277 899.451 295.113 899.627C294.949 899.803 294.709 899.891 294.393 899.891C294.076 899.891 293.836 899.803 293.672 899.627C293.514 899.451 293.435 899.231 293.435 898.968ZM297.407 906.166C297.407 904.707 297.753 903.535 298.444 902.65C299.136 901.76 300.041 901.314 301.16 901.314C302.273 901.314 303.155 901.695 303.806 902.457V897.5H305.432V911H303.938L303.858 909.98C303.208 910.777 302.303 911.176 301.143 911.176C300.041 911.176 299.142 910.725 298.444 909.822C297.753 908.92 297.407 907.742 297.407 906.289V906.166ZM299.033 906.351C299.033 907.429 299.256 908.272 299.701 908.882C300.146 909.491 300.762 909.796 301.547 909.796C302.578 909.796 303.331 909.333 303.806 908.407V904.039C303.319 903.143 302.572 902.694 301.564 902.694C300.768 902.694 300.146 903.002 299.701 903.617C299.256 904.232 299.033 905.144 299.033 906.351ZM314.194 911H312.568V901.49H314.194V911ZM312.437 898.968C312.437 898.704 312.516 898.481 312.674 898.3C312.838 898.118 313.078 898.027 313.395 898.027C313.711 898.027 313.951 898.118 314.115 898.3C314.279 898.481 314.361 898.704 314.361 898.968C314.361 899.231 314.279 899.451 314.115 899.627C313.951 899.803 313.711 899.891 313.395 899.891C313.078 899.891 312.838 899.803 312.674 899.627C312.516 899.451 312.437 899.231 312.437 898.968ZM318.343 901.49L318.396 902.686C319.122 901.771 320.071 901.314 321.243 901.314C323.253 901.314 324.267 902.448 324.284 904.716V911H322.658V904.707C322.652 904.021 322.494 903.515 322.184 903.187C321.879 902.858 321.401 902.694 320.751 902.694C320.224 902.694 319.761 902.835 319.362 903.116C318.964 903.397 318.653 903.767 318.431 904.224V911H316.805V901.49H318.343ZM327.536 911V902.747H326.033V901.49H327.536V900.515C327.536 899.495 327.809 898.707 328.354 898.15C328.898 897.594 329.669 897.315 330.665 897.315C331.04 897.315 331.412 897.365 331.781 897.465L331.693 898.783C331.418 898.73 331.125 898.704 330.814 898.704C330.287 898.704 329.88 898.859 329.593 899.17C329.306 899.475 329.162 899.914 329.162 900.488V901.49H331.192V902.747H329.162V911H327.536ZM332.563 906.157C332.563 905.226 332.745 904.388 333.108 903.644C333.478 902.899 333.987 902.325 334.638 901.921C335.294 901.517 336.041 901.314 336.879 901.314C338.174 901.314 339.22 901.763 340.017 902.659C340.819 903.556 341.221 904.748 341.221 906.236V906.351C341.221 907.276 341.042 908.108 340.685 908.847C340.333 909.579 339.826 910.15 339.164 910.561C338.508 910.971 337.752 911.176 336.896 911.176C335.607 911.176 334.562 910.728 333.759 909.831C332.962 908.935 332.563 907.748 332.563 906.271V906.157ZM334.198 906.351C334.198 907.405 334.441 908.252 334.928 908.891C335.42 909.529 336.076 909.849 336.896 909.849C337.723 909.849 338.379 909.526 338.865 908.882C339.352 908.231 339.595 907.323 339.595 906.157C339.595 905.114 339.346 904.271 338.848 903.626C338.355 902.976 337.699 902.65 336.879 902.65C336.076 902.65 335.429 902.97 334.937 903.608C334.444 904.247 334.198 905.161 334.198 906.351Z" fill="black"/>
<path d="M499.176 477V468.747H497.673V467.49H499.176V466.515C499.176 465.495 499.448 464.707 499.993 464.15C500.538 463.594 501.309 463.315 502.305 463.315C502.68 463.315 503.052 463.365 503.421 463.465L503.333 464.783C503.058 464.73 502.765 464.704 502.454 464.704C501.927 464.704 501.52 464.859 501.232 465.17C500.945 465.475 500.802 465.914 500.802 466.488V467.49H502.832V468.747H500.802V477H499.176ZM504.203 472.157C504.203 471.226 504.385 470.388 504.748 469.644C505.117 468.899 505.627 468.325 506.277 467.921C506.934 467.517 507.681 467.314 508.519 467.314C509.813 467.314 510.859 467.763 511.656 468.659C512.459 469.556 512.86 470.748 512.86 472.236V472.351C512.86 473.276 512.682 474.108 512.324 474.847C511.973 475.579 511.466 476.15 510.804 476.561C510.147 476.971 509.392 477.176 508.536 477.176C507.247 477.176 506.201 476.728 505.398 475.831C504.602 474.935 504.203 473.748 504.203 472.271V472.157ZM505.838 472.351C505.838 473.405 506.081 474.252 506.567 474.891C507.06 475.529 507.716 475.849 508.536 475.849C509.362 475.849 510.019 475.526 510.505 474.882C510.991 474.231 511.234 473.323 511.234 472.157C511.234 471.114 510.985 470.271 510.487 469.626C509.995 468.976 509.339 468.65 508.519 468.65C507.716 468.65 507.068 468.97 506.576 469.608C506.084 470.247 505.838 471.161 505.838 472.351ZM519.496 468.949C519.25 468.908 518.983 468.888 518.696 468.888C517.63 468.888 516.906 469.342 516.525 470.25V477H514.899V467.49H516.481L516.508 468.589C517.041 467.739 517.797 467.314 518.775 467.314C519.092 467.314 519.332 467.355 519.496 467.438V468.949ZM520.437 472.166C520.437 470.684 520.779 469.506 521.465 468.633C522.15 467.754 523.059 467.314 524.189 467.314C525.35 467.314 526.255 467.725 526.905 468.545L526.984 467.49H528.47V476.771C528.47 478.002 528.104 478.972 527.371 479.681C526.645 480.39 525.666 480.744 524.436 480.744C523.75 480.744 523.079 480.598 522.423 480.305C521.767 480.012 521.266 479.61 520.92 479.101L521.764 478.125C522.461 478.986 523.313 479.417 524.321 479.417C525.112 479.417 525.728 479.194 526.167 478.749C526.612 478.304 526.835 477.677 526.835 476.868V476.051C526.185 476.801 525.297 477.176 524.172 477.176C523.059 477.176 522.156 476.728 521.465 475.831C520.779 474.935 520.437 473.713 520.437 472.166ZM522.071 472.351C522.071 473.423 522.291 474.267 522.73 474.882C523.17 475.491 523.785 475.796 524.576 475.796C525.602 475.796 526.354 475.33 526.835 474.398V470.057C526.337 469.148 525.59 468.694 524.594 468.694C523.803 468.694 523.185 469.002 522.739 469.617C522.294 470.232 522.071 471.144 522.071 472.351ZM530.5 472.157C530.5 471.226 530.682 470.388 531.045 469.644C531.414 468.899 531.924 468.325 532.574 467.921C533.23 467.517 533.978 467.314 534.815 467.314C536.11 467.314 537.156 467.763 537.953 468.659C538.756 469.556 539.157 470.748 539.157 472.236V472.351C539.157 473.276 538.979 474.108 538.621 474.847C538.27 475.579 537.763 476.15 537.101 476.561C536.444 476.971 535.688 477.176 534.833 477.176C533.544 477.176 532.498 476.728 531.695 475.831C530.898 474.935 530.5 473.748 530.5 472.271V472.157ZM532.135 472.351C532.135 473.405 532.378 474.252 532.864 474.891C533.356 475.529 534.013 475.849 534.833 475.849C535.659 475.849 536.315 475.526 536.802 474.882C537.288 474.231 537.531 473.323 537.531 472.157C537.531 471.114 537.282 470.271 536.784 469.626C536.292 468.976 535.636 468.65 534.815 468.65C534.013 468.65 533.365 468.97 532.873 469.608C532.381 470.247 532.135 471.161 532.135 472.351ZM543.402 465.188V467.49H545.178V468.747H543.402V474.645C543.402 475.025 543.481 475.312 543.64 475.506C543.798 475.693 544.067 475.787 544.448 475.787C544.636 475.787 544.894 475.752 545.222 475.682V477C544.794 477.117 544.378 477.176 543.974 477.176C543.247 477.176 542.699 476.956 542.33 476.517C541.961 476.077 541.776 475.453 541.776 474.645V468.747H540.045V467.49H541.776V465.188H543.402ZM491.591 493.351C491.591 494.798 491.26 495.964 490.598 496.849C489.936 497.733 489.039 498.176 487.908 498.176C486.754 498.176 485.846 497.81 485.184 497.077V501.656H483.558V488.49H485.043L485.122 489.545C485.784 488.725 486.704 488.314 487.882 488.314C489.024 488.314 489.927 488.745 490.589 489.606C491.257 490.468 491.591 491.666 491.591 493.201V493.351ZM489.965 493.166C489.965 492.094 489.736 491.247 489.279 490.626C488.822 490.005 488.195 489.694 487.398 489.694C486.414 489.694 485.676 490.131 485.184 491.004V495.548C485.67 496.415 486.414 496.849 487.416 496.849C488.195 496.849 488.813 496.541 489.271 495.926C489.733 495.305 489.965 494.385 489.965 493.166ZM499.536 498C499.442 497.812 499.366 497.479 499.308 496.998C498.552 497.783 497.649 498.176 496.601 498.176C495.663 498.176 494.893 497.912 494.289 497.385C493.691 496.852 493.393 496.178 493.393 495.363C493.393 494.373 493.768 493.605 494.518 493.061C495.273 492.51 496.334 492.234 497.699 492.234H499.281V491.487C499.281 490.919 499.111 490.468 498.771 490.134C498.432 489.794 497.931 489.624 497.269 489.624C496.688 489.624 496.202 489.771 495.81 490.063C495.417 490.356 495.221 490.711 495.221 491.127H493.586C493.586 490.652 493.753 490.195 494.087 489.756C494.427 489.311 494.884 488.959 495.458 488.701C496.038 488.443 496.674 488.314 497.365 488.314C498.461 488.314 499.319 488.59 499.94 489.141C500.562 489.686 500.884 490.438 500.907 491.399V495.776C500.907 496.649 501.019 497.344 501.241 497.859V498H499.536ZM496.838 496.761C497.348 496.761 497.831 496.629 498.288 496.365C498.745 496.102 499.076 495.759 499.281 495.337V493.386H498.007C496.015 493.386 495.019 493.969 495.019 495.135C495.019 495.645 495.188 496.043 495.528 496.33C495.868 496.617 496.305 496.761 496.838 496.761ZM508.993 495.478C508.993 495.038 508.826 494.698 508.492 494.458C508.164 494.212 507.587 494.001 506.761 493.825C505.94 493.649 505.287 493.438 504.801 493.192C504.32 492.946 503.963 492.653 503.729 492.313C503.5 491.974 503.386 491.569 503.386 491.101C503.386 490.321 503.714 489.662 504.37 489.123C505.032 488.584 505.876 488.314 506.901 488.314C507.979 488.314 508.853 488.593 509.521 489.149C510.194 489.706 510.531 490.418 510.531 491.285H508.896C508.896 490.84 508.706 490.456 508.325 490.134C507.95 489.812 507.476 489.65 506.901 489.65C506.31 489.65 505.847 489.779 505.513 490.037C505.179 490.295 505.012 490.632 505.012 491.048C505.012 491.44 505.167 491.736 505.478 491.936C505.788 492.135 506.348 492.325 507.156 492.507C507.971 492.688 508.63 492.905 509.134 493.157C509.638 493.409 510.01 493.714 510.25 494.071C510.496 494.423 510.619 494.854 510.619 495.363C510.619 496.213 510.279 496.896 509.6 497.411C508.92 497.921 508.038 498.176 506.954 498.176C506.192 498.176 505.519 498.041 504.933 497.771C504.347 497.502 503.887 497.127 503.553 496.646C503.225 496.16 503.061 495.636 503.061 495.073H504.687C504.716 495.618 504.933 496.052 505.337 496.374C505.747 496.69 506.286 496.849 506.954 496.849C507.569 496.849 508.062 496.726 508.431 496.479C508.806 496.228 508.993 495.894 508.993 495.478ZM518.274 495.478C518.274 495.038 518.107 494.698 517.773 494.458C517.445 494.212 516.868 494.001 516.042 493.825C515.222 493.649 514.568 493.438 514.082 493.192C513.602 492.946 513.244 492.653 513.01 492.313C512.781 491.974 512.667 491.569 512.667 491.101C512.667 490.321 512.995 489.662 513.651 489.123C514.313 488.584 515.157 488.314 516.183 488.314C517.261 488.314 518.134 488.593 518.802 489.149C519.476 489.706 519.812 490.418 519.812 491.285H518.178C518.178 490.84 517.987 490.456 517.606 490.134C517.231 489.812 516.757 489.65 516.183 489.65C515.591 489.65 515.128 489.779 514.794 490.037C514.46 490.295 514.293 490.632 514.293 491.048C514.293 491.44 514.448 491.736 514.759 491.936C515.069 492.135 515.629 492.325 516.438 492.507C517.252 492.688 517.911 492.905 518.415 493.157C518.919 493.409 519.291 493.714 519.531 494.071C519.777 494.423 519.9 494.854 519.9 495.363C519.9 496.213 519.561 496.896 518.881 497.411C518.201 497.921 517.319 498.176 516.235 498.176C515.474 498.176 514.8 498.041 514.214 497.771C513.628 497.502 513.168 497.127 512.834 496.646C512.506 496.16 512.342 495.636 512.342 495.073H513.968C513.997 495.618 514.214 496.052 514.618 496.374C515.028 496.69 515.567 496.849 516.235 496.849C516.851 496.849 517.343 496.726 517.712 496.479C518.087 496.228 518.274 495.894 518.274 495.478ZM530.438 495.759L532.267 488.49H533.893L531.124 498H529.806L527.494 490.793L525.244 498H523.926L521.166 488.49H522.783L524.655 495.609L526.87 488.49H528.18L530.438 495.759ZM535.123 493.157C535.123 492.226 535.305 491.388 535.668 490.644C536.037 489.899 536.547 489.325 537.197 488.921C537.854 488.517 538.601 488.314 539.438 488.314C540.733 488.314 541.779 488.763 542.576 489.659C543.379 490.556 543.78 491.748 543.78 493.236V493.351C543.78 494.276 543.602 495.108 543.244 495.847C542.893 496.579 542.386 497.15 541.724 497.561C541.067 497.971 540.312 498.176 539.456 498.176C538.167 498.176 537.121 497.728 536.318 496.831C535.521 495.935 535.123 494.748 535.123 493.271V493.157ZM536.758 493.351C536.758 494.405 537.001 495.252 537.487 495.891C537.979 496.529 538.636 496.849 539.456 496.849C540.282 496.849 540.938 496.526 541.425 495.882C541.911 495.231 542.154 494.323 542.154 493.157C542.154 492.114 541.905 491.271 541.407 490.626C540.915 489.976 540.259 489.65 539.438 489.65C538.636 489.65 537.988 489.97 537.496 490.608C537.004 491.247 536.758 492.161 536.758 493.351ZM550.416 489.949C550.17 489.908 549.903 489.888 549.616 489.888C548.55 489.888 547.826 490.342 547.445 491.25V498H545.819V488.49H547.401L547.428 489.589C547.961 488.739 548.717 488.314 549.695 488.314C550.012 488.314 550.252 488.355 550.416 488.438V489.949ZM551.348 493.166C551.348 491.707 551.693 490.535 552.385 489.65C553.076 488.76 553.981 488.314 555.101 488.314C556.214 488.314 557.096 488.695 557.746 489.457V484.5H559.372V498H557.878L557.799 496.98C557.148 497.777 556.243 498.176 555.083 498.176C553.981 498.176 553.082 497.725 552.385 496.822C551.693 495.92 551.348 494.742 551.348 493.289V493.166ZM552.974 493.351C552.974 494.429 553.196 495.272 553.642 495.882C554.087 496.491 554.702 496.796 555.487 496.796C556.519 496.796 557.271 496.333 557.746 495.407V491.039C557.26 490.143 556.513 489.694 555.505 489.694C554.708 489.694 554.087 490.002 553.642 490.617C553.196 491.232 552.974 492.144 552.974 493.351Z" fill="black"/>
<path d="M536.628 591.641L530.203 588.301V586.385L538.228 590.797H543V592.484H538.228L530.203 596.896V594.963L536.628 591.641ZM543.176 581.621C543.176 582.91 542.754 583.959 541.91 584.768C541.061 585.576 539.927 585.98 538.509 585.98H538.21C537.267 585.98 536.426 585.802 535.688 585.444C534.943 585.081 534.363 584.577 533.947 583.933C533.525 583.282 533.314 582.579 533.314 581.823C533.314 580.587 533.722 579.626 534.536 578.94C535.351 578.255 536.517 577.912 538.034 577.912H538.711V584.354C539.648 584.331 540.407 584.059 540.987 583.537C541.562 583.01 541.849 582.342 541.849 581.533C541.849 580.959 541.731 580.473 541.497 580.074C541.263 579.676 540.952 579.327 540.565 579.028L541.339 578.035C542.563 578.832 543.176 580.027 543.176 581.621ZM534.65 581.823C534.65 582.479 534.891 583.03 535.371 583.476C535.846 583.921 536.514 584.196 537.375 584.302V579.538H537.252C536.426 579.585 535.787 579.808 535.336 580.206C534.879 580.604 534.65 581.144 534.65 581.823ZM540.478 570.485C540.038 570.485 539.698 570.652 539.458 570.986C539.212 571.314 539.001 571.892 538.825 572.718C538.649 573.538 538.438 574.191 538.192 574.678C537.946 575.158 537.653 575.516 537.313 575.75C536.974 575.979 536.569 576.093 536.101 576.093C535.321 576.093 534.662 575.765 534.123 575.108C533.584 574.446 533.314 573.603 533.314 572.577C533.314 571.499 533.593 570.626 534.149 569.958C534.706 569.284 535.418 568.947 536.285 568.947V570.582C535.84 570.582 535.456 570.772 535.134 571.153C534.812 571.528 534.65 572.003 534.65 572.577C534.65 573.169 534.779 573.632 535.037 573.966C535.295 574.3 535.632 574.467 536.048 574.467C536.44 574.467 536.736 574.312 536.936 574.001C537.135 573.69 537.325 573.131 537.507 572.322C537.688 571.508 537.905 570.849 538.157 570.345C538.409 569.841 538.714 569.469 539.071 569.229C539.423 568.982 539.854 568.859 540.363 568.859C541.213 568.859 541.896 569.199 542.411 569.879C542.921 570.559 543.176 571.44 543.176 572.524C543.176 573.286 543.041 573.96 542.771 574.546C542.502 575.132 542.127 575.592 541.646 575.926C541.16 576.254 540.636 576.418 540.073 576.418V574.792C540.618 574.763 541.052 574.546 541.374 574.142C541.69 573.731 541.849 573.192 541.849 572.524C541.849 571.909 541.726 571.417 541.479 571.048C541.228 570.673 540.894 570.485 540.478 570.485Z" fill="black"/>
<path d="M323.628 1011.64L317.203 1008.3V1006.38L325.228 1010.8H330V1012.48H325.228L317.203 1016.9V1014.96L323.628 1011.64ZM330.176 1001.62C330.176 1002.91 329.754 1003.96 328.91 1004.77C328.061 1005.58 326.927 1005.98 325.509 1005.98H325.21C324.267 1005.98 323.426 1005.8 322.688 1005.44C321.943 1005.08 321.363 1004.58 320.947 1003.93C320.525 1003.28 320.314 1002.58 320.314 1001.82C320.314 1000.59 320.722 999.626 321.536 998.94C322.351 998.255 323.517 997.912 325.034 997.912H325.711V1004.35C326.648 1004.33 327.407 1004.06 327.987 1003.54C328.562 1003.01 328.849 1002.34 328.849 1001.53C328.849 1000.96 328.731 1000.47 328.497 1000.07C328.263 999.676 327.952 999.327 327.565 999.028L328.339 998.035C329.563 998.832 330.176 1000.03 330.176 1001.62ZM321.65 1001.82C321.65 1002.48 321.891 1003.03 322.371 1003.48C322.846 1003.92 323.514 1004.2 324.375 1004.3V999.538H324.252C323.426 999.585 322.787 999.808 322.336 1000.21C321.879 1000.6 321.65 1001.14 321.65 1001.82ZM327.478 990.485C327.038 990.485 326.698 990.652 326.458 990.986C326.212 991.314 326.001 991.892 325.825 992.718C325.649 993.538 325.438 994.191 325.192 994.678C324.946 995.158 324.653 995.516 324.313 995.75C323.974 995.979 323.569 996.093 323.101 996.093C322.321 996.093 321.662 995.765 321.123 995.108C320.584 994.446 320.314 993.603 320.314 992.577C320.314 991.499 320.593 990.626 321.149 989.958C321.706 989.284 322.418 988.947 323.285 988.947V990.582C322.84 990.582 322.456 990.772 322.134 991.153C321.812 991.528 321.65 992.003 321.65 992.577C321.65 993.169 321.779 993.632 322.037 993.966C322.295 994.3 322.632 994.467 323.048 994.467C323.44 994.467 323.736 994.312 323.936 994.001C324.135 993.69 324.325 993.131 324.507 992.322C324.688 991.508 324.905 990.849 325.157 990.345C325.409 989.841 325.714 989.469 326.071 989.229C326.423 988.982 326.854 988.859 327.363 988.859C328.213 988.859 328.896 989.199 329.411 989.879C329.921 990.559 330.176 991.44 330.176 992.524C330.176 993.286 330.041 993.96 329.771 994.546C329.502 995.132 329.127 995.592 328.646 995.926C328.16 996.254 327.636 996.418 327.073 996.418V994.792C327.618 994.763 328.052 994.546 328.374 994.142C328.69 993.731 328.849 993.192 328.849 992.524C328.849 991.909 328.726 991.417 328.479 991.048C328.228 990.673 327.894 990.485 327.478 990.485Z" fill="black"/>
<path d="M207.288 929.101L205.591 929.097L199.176 919.218L199.149 929.079L197.453 929.075L197.488 916.278L199.184 916.282L205.617 926.205L205.644 916.3L207.322 916.305L207.288 929.101ZM209.612 924.265C209.615 923.333 209.799 922.496 210.164 921.753C210.535 921.01 211.047 920.437 211.698 920.034C212.355 919.632 213.103 919.432 213.941 919.434C215.236 919.437 216.281 919.888 217.075 920.787C217.875 921.686 218.273 922.879 218.269 924.368L218.269 924.482C218.267 925.408 218.086 926.239 217.726 926.976C217.373 927.708 216.864 928.278 216.201 928.686C215.544 929.095 214.787 929.298 213.932 929.295C212.643 929.292 211.598 928.841 210.798 927.942C210.003 927.043 209.608 925.856 209.612 924.379L209.612 924.265ZM211.247 924.463C211.244 925.517 211.485 926.365 211.969 927.005C212.46 927.645 213.115 927.966 213.935 927.968C214.761 927.97 215.419 927.65 215.907 927.007C216.395 926.358 216.64 925.45 216.644 924.284C216.646 923.241 216.4 922.397 215.903 921.751C215.413 921.099 214.758 920.772 213.937 920.77C213.135 920.768 212.486 921.085 211.992 921.723C211.498 922.36 211.25 923.273 211.247 924.463Z" fill="black"/>
<path d="M151.354 659.646C151.158 659.451 150.842 659.451 150.646 659.646L147.464 662.828C147.269 663.024 147.269 663.34 147.464 663.536C147.66 663.731 147.976 663.731 148.172 663.536L151 660.707L153.828 663.536C154.024 663.731 154.34 663.731 154.536 663.536C154.731 663.34 154.731 663.024 154.536 662.828L151.354 659.646ZM151.5 905L151.5 660H150.5L150.5 905H151.5Z" fill="black"/>
<path d="M244.354 658.354C244.549 658.158 244.549 657.842 244.354 657.646L241.172 654.464C240.976 654.269 240.66 654.269 240.464 654.464C240.269 654.66 240.269 654.976 240.464 655.172L243.293 658L240.464 660.828C240.269 661.024 240.269 661.34 240.464 661.536C240.66 661.731 240.976 661.731 241.172 661.536L244.354 658.354ZM151 658.5H244V657.5H151V658.5Z" fill="black"/>
<path d="M448.354 485.354C448.549 485.158 448.549 484.842 448.354 484.646L445.172 481.464C444.976 481.269 444.66 481.269 444.464 481.464C444.269 481.66 444.269 481.976 444.464 482.172L447.293 485L444.464 487.828C444.269 488.024 444.269 488.34 444.464 488.536C444.66 488.731 444.976 488.731 445.172 488.536L448.354 485.354ZM355 485.5H448V484.5H355V485.5Z" fill="black"/>
<path d="M351.477 484.651C351.284 484.454 350.967 484.451 350.77 484.644L347.56 487.798C347.363 487.991 347.36 488.308 347.554 488.505C347.747 488.702 348.064 488.705 348.261 488.511L351.114 485.708L353.918 488.562C354.111 488.759 354.428 488.761 354.625 488.568C354.822 488.374 354.824 488.058 354.631 487.861L351.477 484.651ZM350.5 611.004L351.621 485.006L350.621 484.997L349.5 610.996L350.5 611.004Z" fill="black"/>
<path d="M343.914 702.622C343.719 702.427 343.402 702.427 343.207 702.622L340.025 705.804C339.83 705.999 339.83 706.316 340.025 706.511C340.22 706.706 340.537 706.706 340.732 706.511L343.56 703.683L346.389 706.511C346.584 706.706 346.901 706.706 347.096 706.511C347.291 706.316 347.291 705.999 347.096 705.804L343.914 702.622ZM344.06 802.025V702.975H343.06V802.025H344.06Z" fill="black"/>
<path d="M343.639 801.569C343.444 801.764 343.444 802.081 343.639 802.276L346.821 805.458C347.016 805.653 347.333 805.653 347.528 805.458C347.723 805.263 347.723 804.946 347.528 804.751L344.7 801.922L347.528 799.094C347.723 798.899 347.723 798.582 347.528 798.387C347.333 798.192 347.016 798.192 346.821 798.387L343.639 801.569ZM458.954 801.422H343.993V802.422H458.954V801.422Z" fill="black"/>
<rect x="244" y="613" width="126" height="90" fill="#C4C4C4"/>
<rect x="458" y="611" width="126" height="90" fill="#C4C4C4"/>
<rect x="458" y="756" width="126" height="90" fill="#C4C4C4"/>
<path d="M272.201 639.085H266.655V643.62H273.098V645H264.968V632.203H273.01V633.592H266.655V637.705H272.201V639.085ZM276.481 635.49L276.534 636.686C277.261 635.771 278.21 635.314 279.382 635.314C281.392 635.314 282.405 636.448 282.423 638.716V645H280.797V638.707C280.791 638.021 280.633 637.515 280.322 637.187C280.018 636.858 279.54 636.694 278.89 636.694C278.362 636.694 277.899 636.835 277.501 637.116C277.103 637.397 276.792 637.767 276.569 638.224V645H274.943V635.49H276.481ZM287.081 633.188V635.49H288.856V636.747H287.081V642.645C287.081 643.025 287.16 643.312 287.318 643.506C287.477 643.693 287.746 643.787 288.127 643.787C288.314 643.787 288.572 643.752 288.9 643.682V645C288.473 645.117 288.057 645.176 287.652 645.176C286.926 645.176 286.378 644.956 286.009 644.517C285.64 644.077 285.455 643.453 285.455 642.645V636.747H283.724V635.49H285.455V633.188H287.081ZM294.71 645.176C293.421 645.176 292.372 644.754 291.563 643.91C290.755 643.061 290.351 641.927 290.351 640.509V640.21C290.351 639.267 290.529 638.426 290.887 637.688C291.25 636.943 291.754 636.363 292.398 635.947C293.049 635.525 293.752 635.314 294.508 635.314C295.744 635.314 296.705 635.722 297.391 636.536C298.076 637.351 298.419 638.517 298.419 640.034V640.711H291.977C292 641.648 292.272 642.407 292.794 642.987C293.321 643.562 293.989 643.849 294.798 643.849C295.372 643.849 295.858 643.731 296.257 643.497C296.655 643.263 297.004 642.952 297.303 642.565L298.296 643.339C297.499 644.563 296.304 645.176 294.71 645.176ZM294.508 636.65C293.852 636.65 293.301 636.891 292.855 637.371C292.41 637.846 292.135 638.514 292.029 639.375H296.793V639.252C296.746 638.426 296.523 637.787 296.125 637.336C295.727 636.879 295.188 636.65 294.508 636.65ZM304.905 636.949C304.659 636.908 304.393 636.888 304.105 636.888C303.039 636.888 302.315 637.342 301.935 638.25V645H300.309V635.49H301.891L301.917 636.589C302.45 635.739 303.206 635.314 304.185 635.314C304.501 635.314 304.741 635.355 304.905 635.438V636.949ZM314.819 645.176C313.53 645.176 312.481 644.754 311.673 643.91C310.864 643.061 310.46 641.927 310.46 640.509V640.21C310.46 639.267 310.639 638.426 310.996 637.688C311.359 636.943 311.863 636.363 312.508 635.947C313.158 635.525 313.861 635.314 314.617 635.314C315.854 635.314 316.814 635.722 317.5 636.536C318.186 637.351 318.528 638.517 318.528 640.034V640.711H312.086C312.109 641.648 312.382 642.407 312.903 642.987C313.431 643.562 314.099 643.849 314.907 643.849C315.481 643.849 315.968 643.731 316.366 643.497C316.765 643.263 317.113 642.952 317.412 642.565L318.405 643.339C317.608 644.563 316.413 645.176 314.819 645.176ZM314.617 636.65C313.961 636.65 313.41 636.891 312.965 637.371C312.52 637.846 312.244 638.514 312.139 639.375H316.902V639.252C316.855 638.426 316.633 637.787 316.234 637.336C315.836 636.879 315.297 636.65 314.617 636.65ZM321.947 635.49L321.991 636.545C322.688 635.725 323.629 635.314 324.812 635.314C326.143 635.314 327.048 635.824 327.528 636.844C327.845 636.387 328.255 636.018 328.759 635.736C329.269 635.455 329.869 635.314 330.561 635.314C332.646 635.314 333.707 636.419 333.742 638.628V645H332.116V638.725C332.116 638.045 331.961 637.538 331.65 637.204C331.34 636.864 330.818 636.694 330.086 636.694C329.482 636.694 328.981 636.876 328.583 637.239C328.185 637.597 327.953 638.08 327.889 638.689V645H326.254V638.769C326.254 637.386 325.577 636.694 324.224 636.694C323.157 636.694 322.428 637.148 322.035 638.057V645H320.409V635.49H321.947ZM342.074 645C341.98 644.812 341.904 644.479 341.846 643.998C341.09 644.783 340.188 645.176 339.139 645.176C338.201 645.176 337.431 644.912 336.827 644.385C336.229 643.852 335.931 643.178 335.931 642.363C335.931 641.373 336.306 640.605 337.056 640.061C337.812 639.51 338.872 639.234 340.237 639.234H341.819V638.487C341.819 637.919 341.649 637.468 341.31 637.134C340.97 636.794 340.469 636.624 339.807 636.624C339.227 636.624 338.74 636.771 338.348 637.063C337.955 637.356 337.759 637.711 337.759 638.127H336.124C336.124 637.652 336.291 637.195 336.625 636.756C336.965 636.311 337.422 635.959 337.996 635.701C338.576 635.443 339.212 635.314 339.903 635.314C340.999 635.314 341.857 635.59 342.479 636.141C343.1 636.686 343.422 637.438 343.445 638.399V642.776C343.445 643.649 343.557 644.344 343.779 644.859V645H342.074ZM339.376 643.761C339.886 643.761 340.369 643.629 340.826 643.365C341.283 643.102 341.614 642.759 341.819 642.337V640.386H340.545C338.553 640.386 337.557 640.969 337.557 642.135C337.557 642.645 337.727 643.043 338.066 643.33C338.406 643.617 338.843 643.761 339.376 643.761ZM347.761 645H346.135V635.49H347.761V645ZM346.003 632.968C346.003 632.704 346.082 632.481 346.24 632.3C346.404 632.118 346.645 632.027 346.961 632.027C347.277 632.027 347.518 632.118 347.682 632.3C347.846 632.481 347.928 632.704 347.928 632.968C347.928 633.231 347.846 633.451 347.682 633.627C347.518 633.803 347.277 633.891 346.961 633.891C346.645 633.891 346.404 633.803 346.24 633.627C346.082 633.451 346.003 633.231 346.003 632.968ZM352.138 645H350.512V631.5H352.138V645ZM256.17 660.806C256.17 659.481 256.346 658.21 256.697 656.991C257.055 655.772 257.585 654.665 258.288 653.669C258.991 652.673 259.721 651.97 260.477 651.56L260.811 652.632C259.955 653.288 259.252 654.29 258.701 655.638C258.156 656.985 257.857 658.494 257.805 660.164L257.796 660.911C257.796 663.173 258.209 665.136 259.035 666.8C259.533 667.796 260.125 668.575 260.811 669.138L260.477 670.131C259.697 669.697 258.953 668.971 258.244 667.951C256.861 665.959 256.17 663.577 256.17 660.806ZM268.255 665.06C267.622 665.804 266.693 666.176 265.469 666.176C264.455 666.176 263.682 665.883 263.148 665.297C262.621 664.705 262.354 663.832 262.349 662.678V656.49H263.975V662.634C263.975 664.075 264.561 664.796 265.732 664.796C266.975 664.796 267.801 664.333 268.211 663.407V656.49H269.837V666H268.29L268.255 665.06ZM277.853 663.478C277.853 663.038 277.686 662.698 277.352 662.458C277.023 662.212 276.446 662.001 275.62 661.825C274.8 661.649 274.146 661.438 273.66 661.192C273.18 660.946 272.822 660.653 272.588 660.313C272.359 659.974 272.245 659.569 272.245 659.101C272.245 658.321 272.573 657.662 273.229 657.123C273.892 656.584 274.735 656.314 275.761 656.314C276.839 656.314 277.712 656.593 278.38 657.149C279.054 657.706 279.391 658.418 279.391 659.285H277.756C277.756 658.84 277.565 658.456 277.185 658.134C276.81 657.812 276.335 657.65 275.761 657.65C275.169 657.65 274.706 657.779 274.372 658.037C274.038 658.295 273.871 658.632 273.871 659.048C273.871 659.44 274.026 659.736 274.337 659.936C274.647 660.135 275.207 660.325 276.016 660.507C276.83 660.688 277.489 660.905 277.993 661.157C278.497 661.409 278.869 661.714 279.109 662.071C279.355 662.423 279.479 662.854 279.479 663.363C279.479 664.213 279.139 664.896 278.459 665.411C277.779 665.921 276.897 666.176 275.813 666.176C275.052 666.176 274.378 666.041 273.792 665.771C273.206 665.502 272.746 665.127 272.412 664.646C272.084 664.16 271.92 663.636 271.92 663.073H273.546C273.575 663.618 273.792 664.052 274.196 664.374C274.606 664.69 275.146 664.849 275.813 664.849C276.429 664.849 276.921 664.726 277.29 664.479C277.665 664.228 277.853 663.894 277.853 663.478ZM285.543 666.176C284.254 666.176 283.205 665.754 282.396 664.91C281.588 664.061 281.184 662.927 281.184 661.509V661.21C281.184 660.267 281.362 659.426 281.72 658.688C282.083 657.943 282.587 657.363 283.231 656.947C283.882 656.525 284.585 656.314 285.341 656.314C286.577 656.314 287.538 656.722 288.224 657.536C288.909 658.351 289.252 659.517 289.252 661.034V661.711H282.81C282.833 662.648 283.105 663.407 283.627 663.987C284.154 664.562 284.822 664.849 285.631 664.849C286.205 664.849 286.691 664.731 287.09 664.497C287.488 664.263 287.837 663.952 288.136 663.565L289.129 664.339C288.332 665.563 287.137 666.176 285.543 666.176ZM285.341 657.65C284.685 657.65 284.134 657.891 283.688 658.371C283.243 658.846 282.968 659.514 282.862 660.375H287.626V660.252C287.579 659.426 287.356 658.787 286.958 658.336C286.56 657.879 286.021 657.65 285.341 657.65ZM295.738 657.949C295.492 657.908 295.226 657.888 294.938 657.888C293.872 657.888 293.148 658.342 292.768 659.25V666H291.142V656.49H292.724L292.75 657.589C293.283 656.739 294.039 656.314 295.018 656.314C295.334 656.314 295.574 656.355 295.738 656.438V657.949ZM298.779 656.49L298.832 657.686C299.559 656.771 300.508 656.314 301.68 656.314C303.689 656.314 304.703 657.448 304.721 659.716V666H303.095V659.707C303.089 659.021 302.931 658.515 302.62 658.187C302.315 657.858 301.838 657.694 301.188 657.694C300.66 657.694 300.197 657.835 299.799 658.116C299.4 658.397 299.09 658.767 298.867 659.224V666H297.241V656.49H298.779ZM313.044 666C312.95 665.812 312.874 665.479 312.815 664.998C312.06 665.783 311.157 666.176 310.108 666.176C309.171 666.176 308.4 665.912 307.797 665.385C307.199 664.852 306.9 664.178 306.9 663.363C306.9 662.373 307.275 661.605 308.025 661.061C308.781 660.51 309.842 660.234 311.207 660.234H312.789V659.487C312.789 658.919 312.619 658.468 312.279 658.134C311.939 657.794 311.438 657.624 310.776 657.624C310.196 657.624 309.71 657.771 309.317 658.063C308.925 658.356 308.729 658.711 308.729 659.127H307.094C307.094 658.652 307.261 658.195 307.595 657.756C307.935 657.311 308.392 656.959 308.966 656.701C309.546 656.443 310.182 656.314 310.873 656.314C311.969 656.314 312.827 656.59 313.448 657.141C314.069 657.686 314.392 658.438 314.415 659.399V663.776C314.415 664.649 314.526 665.344 314.749 665.859V666H313.044ZM310.346 664.761C310.855 664.761 311.339 664.629 311.796 664.365C312.253 664.102 312.584 663.759 312.789 663.337V661.386H311.515C309.522 661.386 308.526 661.969 308.526 663.135C308.526 663.645 308.696 664.043 309.036 664.33C309.376 664.617 309.812 664.761 310.346 664.761ZM318.493 656.49L318.537 657.545C319.234 656.725 320.175 656.314 321.358 656.314C322.688 656.314 323.594 656.824 324.074 657.844C324.391 657.387 324.801 657.018 325.305 656.736C325.814 656.455 326.415 656.314 327.106 656.314C329.192 656.314 330.253 657.419 330.288 659.628V666H328.662V659.725C328.662 659.045 328.507 658.538 328.196 658.204C327.886 657.864 327.364 657.694 326.632 657.694C326.028 657.694 325.527 657.876 325.129 658.239C324.73 658.597 324.499 659.08 324.435 659.689V666H322.8V659.769C322.8 658.386 322.123 657.694 320.77 657.694C319.703 657.694 318.974 658.148 318.581 659.057V666H316.955V656.49H318.493ZM336.695 666.176C335.406 666.176 334.357 665.754 333.549 664.91C332.74 664.061 332.336 662.927 332.336 661.509V661.21C332.336 660.267 332.515 659.426 332.872 658.688C333.235 657.943 333.739 657.363 334.384 656.947C335.034 656.525 335.737 656.314 336.493 656.314C337.729 656.314 338.69 656.722 339.376 657.536C340.062 658.351 340.404 659.517 340.404 661.034V661.711H333.962C333.985 662.648 334.258 663.407 334.779 663.987C335.307 664.562 335.975 664.849 336.783 664.849C337.357 664.849 337.844 664.731 338.242 664.497C338.641 664.263 338.989 663.952 339.288 663.565L340.281 664.339C339.484 665.563 338.289 666.176 336.695 666.176ZM336.493 657.65C335.837 657.65 335.286 657.891 334.841 658.371C334.396 658.846 334.12 659.514 334.015 660.375H338.778V660.252C338.731 659.426 338.509 658.787 338.11 658.336C337.712 657.879 337.173 657.65 336.493 657.65ZM346.047 660.894C346.047 662.2 345.874 663.454 345.528 664.655C345.188 665.851 344.664 666.955 343.955 667.969C343.252 668.982 342.514 669.703 341.74 670.131L341.397 669.138C342.3 668.446 343.023 667.374 343.568 665.921C344.119 664.462 344.4 662.845 344.412 661.069V660.788C344.412 659.558 344.283 658.415 344.025 657.36C343.768 656.3 343.407 655.351 342.944 654.513C342.487 653.675 341.972 653.021 341.397 652.553L341.74 651.56C342.514 651.987 343.249 652.702 343.946 653.704C344.649 654.706 345.174 655.811 345.52 657.018C345.871 658.225 346.047 659.517 346.047 660.894ZM357.675 659.136H361.243V660.674H357.675V664.717H356.04V660.674H352.472V659.136H356.04V655.4H357.675V659.136ZM300.862 682.351C300.862 683.798 300.531 684.964 299.869 685.849C299.207 686.733 298.311 687.176 297.18 687.176C296.025 687.176 295.117 686.81 294.455 686.077V690.656H292.829V677.49H294.314L294.394 678.545C295.056 677.725 295.976 677.314 297.153 677.314C298.296 677.314 299.198 677.745 299.86 678.606C300.528 679.468 300.862 680.666 300.862 682.201V682.351ZM299.236 682.166C299.236 681.094 299.008 680.247 298.551 679.626C298.094 679.005 297.467 678.694 296.67 678.694C295.686 678.694 294.947 679.131 294.455 680.004V684.548C294.941 685.415 295.686 685.849 296.688 685.849C297.467 685.849 298.085 685.541 298.542 684.926C299.005 684.305 299.236 683.385 299.236 682.166ZM311.356 684.759L313.185 677.49H314.811L312.042 687H310.724L308.412 679.793L306.162 687H304.844L302.084 677.49H303.701L305.573 684.609L307.788 677.49H309.098L311.356 684.759ZM316.076 682.166C316.076 680.707 316.422 679.535 317.113 678.65C317.805 677.76 318.71 677.314 319.829 677.314C320.942 677.314 321.824 677.695 322.475 678.457V673.5H324.101V687H322.606L322.527 685.98C321.877 686.777 320.972 687.176 319.812 687.176C318.71 687.176 317.811 686.725 317.113 685.822C316.422 684.92 316.076 683.742 316.076 682.289V682.166ZM317.702 682.351C317.702 683.429 317.925 684.272 318.37 684.882C318.815 685.491 319.431 685.796 320.216 685.796C321.247 685.796 322 685.333 322.475 684.407V680.039C321.988 679.143 321.241 678.694 320.233 678.694C319.437 678.694 318.815 679.002 318.37 679.617C317.925 680.232 317.702 681.144 317.702 682.351Z" fill="black"/>
<path d="M484.201 654.085H478.655V658.62H485.098V660H476.968V647.203H485.01V648.592H478.655V652.705H484.201V654.085ZM488.481 650.49L488.534 651.686C489.261 650.771 490.21 650.314 491.382 650.314C493.392 650.314 494.405 651.448 494.423 653.716V660H492.797V653.707C492.791 653.021 492.633 652.515 492.322 652.187C492.018 651.858 491.54 651.694 490.89 651.694C490.362 651.694 489.899 651.835 489.501 652.116C489.103 652.397 488.792 652.767 488.569 653.224V660H486.943V650.49H488.481ZM499.081 648.188V650.49H500.856V651.747H499.081V657.645C499.081 658.025 499.16 658.312 499.318 658.506C499.477 658.693 499.746 658.787 500.127 658.787C500.314 658.787 500.572 658.752 500.9 658.682V660C500.473 660.117 500.057 660.176 499.652 660.176C498.926 660.176 498.378 659.956 498.009 659.517C497.64 659.077 497.455 658.453 497.455 657.645V651.747H495.724V650.49H497.455V648.188H499.081ZM506.71 660.176C505.421 660.176 504.372 659.754 503.563 658.91C502.755 658.061 502.351 656.927 502.351 655.509V655.21C502.351 654.267 502.529 653.426 502.887 652.688C503.25 651.943 503.754 651.363 504.398 650.947C505.049 650.525 505.752 650.314 506.508 650.314C507.744 650.314 508.705 650.722 509.391 651.536C510.076 652.351 510.419 653.517 510.419 655.034V655.711H503.977C504 656.648 504.272 657.407 504.794 657.987C505.321 658.562 505.989 658.849 506.798 658.849C507.372 658.849 507.858 658.731 508.257 658.497C508.655 658.263 509.004 657.952 509.303 657.565L510.296 658.339C509.499 659.563 508.304 660.176 506.71 660.176ZM506.508 651.65C505.852 651.65 505.301 651.891 504.855 652.371C504.41 652.846 504.135 653.514 504.029 654.375H508.793V654.252C508.746 653.426 508.523 652.787 508.125 652.336C507.727 651.879 507.188 651.65 506.508 651.65ZM516.905 651.949C516.659 651.908 516.393 651.888 516.105 651.888C515.039 651.888 514.315 652.342 513.935 653.25V660H512.309V650.49H513.891L513.917 651.589C514.45 650.739 515.206 650.314 516.185 650.314C516.501 650.314 516.741 650.355 516.905 650.438V651.949ZM526.819 660.176C525.53 660.176 524.481 659.754 523.673 658.91C522.864 658.061 522.46 656.927 522.46 655.509V655.21C522.46 654.267 522.639 653.426 522.996 652.688C523.359 651.943 523.863 651.363 524.508 650.947C525.158 650.525 525.861 650.314 526.617 650.314C527.854 650.314 528.814 650.722 529.5 651.536C530.186 652.351 530.528 653.517 530.528 655.034V655.711H524.086C524.109 656.648 524.382 657.407 524.903 657.987C525.431 658.562 526.099 658.849 526.907 658.849C527.481 658.849 527.968 658.731 528.366 658.497C528.765 658.263 529.113 657.952 529.412 657.565L530.405 658.339C529.608 659.563 528.413 660.176 526.819 660.176ZM526.617 651.65C525.961 651.65 525.41 651.891 524.965 652.371C524.52 652.846 524.244 653.514 524.139 654.375H528.902V654.252C528.855 653.426 528.633 652.787 528.234 652.336C527.836 651.879 527.297 651.65 526.617 651.65ZM533.947 650.49L533.991 651.545C534.688 650.725 535.629 650.314 536.812 650.314C538.143 650.314 539.048 650.824 539.528 651.844C539.845 651.387 540.255 651.018 540.759 650.736C541.269 650.455 541.869 650.314 542.561 650.314C544.646 650.314 545.707 651.419 545.742 653.628V660H544.116V653.725C544.116 653.045 543.961 652.538 543.65 652.204C543.34 651.864 542.818 651.694 542.086 651.694C541.482 651.694 540.981 651.876 540.583 652.239C540.185 652.597 539.953 653.08 539.889 653.689V660H538.254V653.769C538.254 652.386 537.577 651.694 536.224 651.694C535.157 651.694 534.428 652.148 534.035 653.057V660H532.409V650.49H533.947ZM554.074 660C553.98 659.812 553.904 659.479 553.846 658.998C553.09 659.783 552.188 660.176 551.139 660.176C550.201 660.176 549.431 659.912 548.827 659.385C548.229 658.852 547.931 658.178 547.931 657.363C547.931 656.373 548.306 655.605 549.056 655.061C549.812 654.51 550.872 654.234 552.237 654.234H553.819V653.487C553.819 652.919 553.649 652.468 553.31 652.134C552.97 651.794 552.469 651.624 551.807 651.624C551.227 651.624 550.74 651.771 550.348 652.063C549.955 652.356 549.759 652.711 549.759 653.127H548.124C548.124 652.652 548.291 652.195 548.625 651.756C548.965 651.311 549.422 650.959 549.996 650.701C550.576 650.443 551.212 650.314 551.903 650.314C552.999 650.314 553.857 650.59 554.479 651.141C555.1 651.686 555.422 652.438 555.445 653.399V657.776C555.445 658.649 555.557 659.344 555.779 659.859V660H554.074ZM551.376 658.761C551.886 658.761 552.369 658.629 552.826 658.365C553.283 658.102 553.614 657.759 553.819 657.337V655.386H552.545C550.553 655.386 549.557 655.969 549.557 657.135C549.557 657.645 549.727 658.043 550.066 658.33C550.406 658.617 550.843 658.761 551.376 658.761ZM559.761 660H558.135V650.49H559.761V660ZM558.003 647.968C558.003 647.704 558.082 647.481 558.24 647.3C558.404 647.118 558.645 647.027 558.961 647.027C559.277 647.027 559.518 647.118 559.682 647.3C559.846 647.481 559.928 647.704 559.928 647.968C559.928 648.231 559.846 648.451 559.682 648.627C559.518 648.803 559.277 648.891 558.961 648.891C558.645 648.891 558.404 648.803 558.24 648.627C558.082 648.451 558.003 648.231 558.003 647.968ZM564.138 660H562.512V646.5H564.138V660Z" fill="black"/>
<path d="M504.003 792.823H500.997V798H499.301V785.203H503.537C504.979 785.203 506.086 785.531 506.859 786.188C507.639 786.844 508.028 787.799 508.028 789.053C508.028 789.85 507.812 790.544 507.378 791.136C506.95 791.728 506.353 792.17 505.585 792.463L508.591 797.895V798H506.78L504.003 792.823ZM500.997 791.443H503.59C504.428 791.443 505.093 791.227 505.585 790.793C506.083 790.359 506.332 789.779 506.332 789.053C506.332 788.262 506.095 787.655 505.62 787.233C505.151 786.812 504.472 786.598 503.581 786.592H500.997V791.443ZM514.093 798.176C512.804 798.176 511.755 797.754 510.946 796.91C510.138 796.061 509.733 794.927 509.733 793.509V793.21C509.733 792.267 509.912 791.426 510.27 790.688C510.633 789.943 511.137 789.363 511.781 788.947C512.432 788.525 513.135 788.314 513.891 788.314C515.127 788.314 516.088 788.722 516.773 789.536C517.459 790.351 517.802 791.517 517.802 793.034V793.711H511.359C511.383 794.648 511.655 795.407 512.177 795.987C512.704 796.562 513.372 796.849 514.181 796.849C514.755 796.849 515.241 796.731 515.64 796.497C516.038 796.263 516.387 795.952 516.686 795.565L517.679 796.339C516.882 797.563 515.687 798.176 514.093 798.176ZM513.891 789.65C513.234 789.65 512.684 789.891 512.238 790.371C511.793 790.846 511.518 791.514 511.412 792.375H516.176V792.252C516.129 791.426 515.906 790.787 515.508 790.336C515.109 789.879 514.57 789.65 513.891 789.65ZM525.229 795.478C525.229 795.038 525.062 794.698 524.728 794.458C524.399 794.212 523.822 794.001 522.996 793.825C522.176 793.649 521.522 793.438 521.036 793.192C520.556 792.946 520.198 792.653 519.964 792.313C519.735 791.974 519.621 791.569 519.621 791.101C519.621 790.321 519.949 789.662 520.605 789.123C521.268 788.584 522.111 788.314 523.137 788.314C524.215 788.314 525.088 788.593 525.756 789.149C526.43 789.706 526.767 790.418 526.767 791.285H525.132C525.132 790.84 524.941 790.456 524.561 790.134C524.186 789.812 523.711 789.65 523.137 789.65C522.545 789.65 522.082 789.779 521.748 790.037C521.414 790.295 521.247 790.632 521.247 791.048C521.247 791.44 521.402 791.736 521.713 791.936C522.023 792.135 522.583 792.325 523.392 792.507C524.206 792.688 524.865 792.905 525.369 793.157C525.873 793.409 526.245 793.714 526.485 794.071C526.731 794.423 526.854 794.854 526.854 795.363C526.854 796.213 526.515 796.896 525.835 797.411C525.155 797.921 524.273 798.176 523.189 798.176C522.428 798.176 521.754 798.041 521.168 797.771C520.582 797.502 520.122 797.127 519.788 796.646C519.46 796.16 519.296 795.636 519.296 795.073H520.922C520.951 795.618 521.168 796.052 521.572 796.374C521.982 796.69 522.521 796.849 523.189 796.849C523.805 796.849 524.297 796.726 524.666 796.479C525.041 796.228 525.229 795.894 525.229 795.478ZM532.919 798.176C531.63 798.176 530.581 797.754 529.772 796.91C528.964 796.061 528.56 794.927 528.56 793.509V793.21C528.56 792.267 528.738 791.426 529.096 790.688C529.459 789.943 529.963 789.363 530.607 788.947C531.258 788.525 531.961 788.314 532.717 788.314C533.953 788.314 534.914 788.722 535.6 789.536C536.285 790.351 536.628 791.517 536.628 793.034V793.711H530.186C530.209 794.648 530.481 795.407 531.003 795.987C531.53 796.562 532.198 796.849 533.007 796.849C533.581 796.849 534.067 796.731 534.466 796.497C534.864 796.263 535.213 795.952 535.512 795.565L536.505 796.339C535.708 797.563 534.513 798.176 532.919 798.176ZM532.717 789.65C532.061 789.65 531.51 789.891 531.064 790.371C530.619 790.846 530.344 791.514 530.238 792.375H535.002V792.252C534.955 791.426 534.732 790.787 534.334 790.336C533.936 789.879 533.396 789.65 532.717 789.65ZM540.724 786.188V788.49H542.499V789.747H540.724V795.645C540.724 796.025 540.803 796.312 540.961 796.506C541.119 796.693 541.389 796.787 541.77 796.787C541.957 796.787 542.215 796.752 542.543 796.682V798C542.115 798.117 541.699 798.176 541.295 798.176C540.568 798.176 540.021 797.956 539.651 797.517C539.282 797.077 539.098 796.453 539.098 795.645V789.747H537.366V788.49H539.098V786.188H540.724ZM490.591 814.351C490.591 815.798 490.26 816.964 489.598 817.849C488.936 818.733 488.039 819.176 486.908 819.176C485.754 819.176 484.846 818.81 484.184 818.077V822.656H482.558V809.49H484.043L484.122 810.545C484.784 809.725 485.704 809.314 486.882 809.314C488.024 809.314 488.927 809.745 489.589 810.606C490.257 811.468 490.591 812.666 490.591 814.201V814.351ZM488.965 814.166C488.965 813.094 488.736 812.247 488.279 811.626C487.822 811.005 487.195 810.694 486.398 810.694C485.414 810.694 484.676 811.131 484.184 812.004V816.548C484.67 817.415 485.414 817.849 486.416 817.849C487.195 817.849 487.813 817.541 488.271 816.926C488.733 816.305 488.965 815.385 488.965 814.166ZM498.536 819C498.442 818.812 498.366 818.479 498.308 817.998C497.552 818.783 496.649 819.176 495.601 819.176C494.663 819.176 493.893 818.912 493.289 818.385C492.691 817.852 492.393 817.178 492.393 816.363C492.393 815.373 492.768 814.605 493.518 814.061C494.273 813.51 495.334 813.234 496.699 813.234H498.281V812.487C498.281 811.919 498.111 811.468 497.771 811.134C497.432 810.794 496.931 810.624 496.269 810.624C495.688 810.624 495.202 810.771 494.81 811.063C494.417 811.356 494.221 811.711 494.221 812.127H492.586C492.586 811.652 492.753 811.195 493.087 810.756C493.427 810.311 493.884 809.959 494.458 809.701C495.038 809.443 495.674 809.314 496.365 809.314C497.461 809.314 498.319 809.59 498.94 810.141C499.562 810.686 499.884 811.438 499.907 812.399V816.776C499.907 817.649 500.019 818.344 500.241 818.859V819H498.536ZM495.838 817.761C496.348 817.761 496.831 817.629 497.288 817.365C497.745 817.102 498.076 816.759 498.281 816.337V814.386H497.007C495.015 814.386 494.019 814.969 494.019 816.135C494.019 816.645 494.188 817.043 494.528 817.33C494.868 817.617 495.305 817.761 495.838 817.761ZM507.993 816.478C507.993 816.038 507.826 815.698 507.492 815.458C507.164 815.212 506.587 815.001 505.761 814.825C504.94 814.649 504.287 814.438 503.801 814.192C503.32 813.946 502.963 813.653 502.729 813.313C502.5 812.974 502.386 812.569 502.386 812.101C502.386 811.321 502.714 810.662 503.37 810.123C504.032 809.584 504.876 809.314 505.901 809.314C506.979 809.314 507.853 809.593 508.521 810.149C509.194 810.706 509.531 811.418 509.531 812.285H507.896C507.896 811.84 507.706 811.456 507.325 811.134C506.95 810.812 506.476 810.65 505.901 810.65C505.31 810.65 504.847 810.779 504.513 811.037C504.179 811.295 504.012 811.632 504.012 812.048C504.012 812.44 504.167 812.736 504.478 812.936C504.788 813.135 505.348 813.325 506.156 813.507C506.971 813.688 507.63 813.905 508.134 814.157C508.638 814.409 509.01 814.714 509.25 815.071C509.496 815.423 509.619 815.854 509.619 816.363C509.619 817.213 509.279 817.896 508.6 818.411C507.92 818.921 507.038 819.176 505.954 819.176C505.192 819.176 504.519 819.041 503.933 818.771C503.347 818.502 502.887 818.127 502.553 817.646C502.225 817.16 502.061 816.636 502.061 816.073H503.687C503.716 816.618 503.933 817.052 504.337 817.374C504.747 817.69 505.286 817.849 505.954 817.849C506.569 817.849 507.062 817.726 507.431 817.479C507.806 817.228 507.993 816.894 507.993 816.478ZM517.274 816.478C517.274 816.038 517.107 815.698 516.773 815.458C516.445 815.212 515.868 815.001 515.042 814.825C514.222 814.649 513.568 814.438 513.082 814.192C512.602 813.946 512.244 813.653 512.01 813.313C511.781 812.974 511.667 812.569 511.667 812.101C511.667 811.321 511.995 810.662 512.651 810.123C513.313 809.584 514.157 809.314 515.183 809.314C516.261 809.314 517.134 809.593 517.802 810.149C518.476 810.706 518.812 811.418 518.812 812.285H517.178C517.178 811.84 516.987 811.456 516.606 811.134C516.231 810.812 515.757 810.65 515.183 810.65C514.591 810.65 514.128 810.779 513.794 811.037C513.46 811.295 513.293 811.632 513.293 812.048C513.293 812.44 513.448 812.736 513.759 812.936C514.069 813.135 514.629 813.325 515.438 813.507C516.252 813.688 516.911 813.905 517.415 814.157C517.919 814.409 518.291 814.714 518.531 815.071C518.777 815.423 518.9 815.854 518.9 816.363C518.9 817.213 518.561 817.896 517.881 818.411C517.201 818.921 516.319 819.176 515.235 819.176C514.474 819.176 513.8 819.041 513.214 818.771C512.628 818.502 512.168 818.127 511.834 817.646C511.506 817.16 511.342 816.636 511.342 816.073H512.968C512.997 816.618 513.214 817.052 513.618 817.374C514.028 817.69 514.567 817.849 515.235 817.849C515.851 817.849 516.343 817.726 516.712 817.479C517.087 817.228 517.274 816.894 517.274 816.478ZM529.438 816.759L531.267 809.49H532.893L530.124 819H528.806L526.494 811.793L524.244 819H522.926L520.166 809.49H521.783L523.655 816.609L525.87 809.49H527.18L529.438 816.759ZM534.123 814.157C534.123 813.226 534.305 812.388 534.668 811.644C535.037 810.899 535.547 810.325 536.197 809.921C536.854 809.517 537.601 809.314 538.438 809.314C539.733 809.314 540.779 809.763 541.576 810.659C542.379 811.556 542.78 812.748 542.78 814.236V814.351C542.78 815.276 542.602 816.108 542.244 816.847C541.893 817.579 541.386 818.15 540.724 818.561C540.067 818.971 539.312 819.176 538.456 819.176C537.167 819.176 536.121 818.728 535.318 817.831C534.521 816.935 534.123 815.748 534.123 814.271V814.157ZM535.758 814.351C535.758 815.405 536.001 816.252 536.487 816.891C536.979 817.529 537.636 817.849 538.456 817.849C539.282 817.849 539.938 817.526 540.425 816.882C540.911 816.231 541.154 815.323 541.154 814.157C541.154 813.114 540.905 812.271 540.407 811.626C539.915 810.976 539.259 810.65 538.438 810.65C537.636 810.65 536.988 810.97 536.496 811.608C536.004 812.247 535.758 813.161 535.758 814.351ZM549.416 810.949C549.17 810.908 548.903 810.888 548.616 810.888C547.55 810.888 546.826 811.342 546.445 812.25V819H544.819V809.49H546.401L546.428 810.589C546.961 809.739 547.717 809.314 548.695 809.314C549.012 809.314 549.252 809.355 549.416 809.438V810.949ZM550.348 814.166C550.348 812.707 550.693 811.535 551.385 810.65C552.076 809.76 552.981 809.314 554.101 809.314C555.214 809.314 556.096 809.695 556.746 810.457V805.5H558.372V819H556.878L556.799 817.98C556.148 818.777 555.243 819.176 554.083 819.176C552.981 819.176 552.082 818.725 551.385 817.822C550.693 816.92 550.348 815.742 550.348 814.289V814.166ZM551.974 814.351C551.974 815.429 552.196 816.272 552.642 816.882C553.087 817.491 553.702 817.796 554.487 817.796C555.519 817.796 556.271 817.333 556.746 816.407V812.039C556.26 811.143 555.513 810.694 554.505 810.694C553.708 810.694 553.087 811.002 552.642 811.617C552.196 812.232 551.974 813.144 551.974 814.351Z" fill="black"/>
<rect x="88.5" y="729.5" width="125" height="89" fill="#C4C4C4" stroke="black"/>
<path d="M103.566 771H101.879V758.203H103.566V771ZM107.943 761.49L107.996 762.686C108.723 761.771 109.672 761.314 110.844 761.314C112.854 761.314 113.867 762.448 113.885 764.716V771H112.259V764.707C112.253 764.021 112.095 763.515 111.784 763.187C111.479 762.858 111.002 762.694 110.352 762.694C109.824 762.694 109.361 762.835 108.963 763.116C108.564 763.397 108.254 763.767 108.031 764.224V771H106.405V761.49H107.943ZM119.475 768.794L121.83 761.49H123.491L120.081 771H118.842L115.396 761.49H117.058L119.475 768.794ZM130.786 771C130.692 770.812 130.616 770.479 130.558 769.998C129.802 770.783 128.899 771.176 127.851 771.176C126.913 771.176 126.143 770.912 125.539 770.385C124.941 769.852 124.643 769.178 124.643 768.363C124.643 767.373 125.018 766.605 125.768 766.061C126.523 765.51 127.584 765.234 128.949 765.234H130.531V764.487C130.531 763.919 130.361 763.468 130.021 763.134C129.682 762.794 129.181 762.624 128.519 762.624C127.938 762.624 127.452 762.771 127.06 763.063C126.667 763.356 126.471 763.711 126.471 764.127H124.836C124.836 763.652 125.003 763.195 125.337 762.756C125.677 762.311 126.134 761.959 126.708 761.701C127.288 761.443 127.924 761.314 128.615 761.314C129.711 761.314 130.569 761.59 131.19 762.141C131.812 762.686 132.134 763.438 132.157 764.399V768.776C132.157 769.649 132.269 770.344 132.491 770.859V771H130.786ZM128.088 769.761C128.598 769.761 129.081 769.629 129.538 769.365C129.995 769.102 130.326 768.759 130.531 768.337V766.386H129.257C127.265 766.386 126.269 766.969 126.269 768.135C126.269 768.645 126.438 769.043 126.778 769.33C127.118 769.617 127.555 769.761 128.088 769.761ZM136.473 771H134.847V757.5H136.473V771ZM140.85 771H139.224V761.49H140.85V771ZM139.092 758.968C139.092 758.704 139.171 758.481 139.329 758.3C139.493 758.118 139.733 758.027 140.05 758.027C140.366 758.027 140.606 758.118 140.771 758.3C140.935 758.481 141.017 758.704 141.017 758.968C141.017 759.231 140.935 759.451 140.771 759.627C140.606 759.803 140.366 759.891 140.05 759.891C139.733 759.891 139.493 759.803 139.329 759.627C139.171 759.451 139.092 759.231 139.092 758.968ZM143.064 766.166C143.064 764.707 143.41 763.535 144.102 762.65C144.793 761.76 145.698 761.314 146.817 761.314C147.931 761.314 148.812 761.695 149.463 762.457V757.5H151.089V771H149.595L149.516 769.98C148.865 770.777 147.96 771.176 146.8 771.176C145.698 771.176 144.799 770.725 144.102 769.822C143.41 768.92 143.064 767.742 143.064 766.289V766.166ZM144.69 766.351C144.69 767.429 144.913 768.272 145.358 768.882C145.804 769.491 146.419 769.796 147.204 769.796C148.235 769.796 148.988 769.333 149.463 768.407V764.039C148.977 763.143 148.229 762.694 147.222 762.694C146.425 762.694 145.804 763.002 145.358 763.617C144.913 764.232 144.69 765.144 144.69 766.351ZM162.031 771.176C160.742 771.176 159.693 770.754 158.885 769.91C158.076 769.061 157.672 767.927 157.672 766.509V766.21C157.672 765.267 157.851 764.426 158.208 763.688C158.571 762.943 159.075 762.363 159.72 761.947C160.37 761.525 161.073 761.314 161.829 761.314C163.065 761.314 164.026 761.722 164.712 762.536C165.397 763.351 165.74 764.517 165.74 766.034V766.711H159.298C159.321 767.648 159.594 768.407 160.115 768.987C160.643 769.562 161.311 769.849 162.119 769.849C162.693 769.849 163.18 769.731 163.578 769.497C163.977 769.263 164.325 768.952 164.624 768.565L165.617 769.339C164.82 770.563 163.625 771.176 162.031 771.176ZM161.829 762.65C161.173 762.65 160.622 762.891 160.177 763.371C159.731 763.846 159.456 764.514 159.351 765.375H164.114V765.252C164.067 764.426 163.845 763.787 163.446 763.336C163.048 762.879 162.509 762.65 161.829 762.65ZM169.159 761.49L169.203 762.545C169.9 761.725 170.841 761.314 172.024 761.314C173.354 761.314 174.26 761.824 174.74 762.844C175.057 762.387 175.467 762.018 175.971 761.736C176.48 761.455 177.081 761.314 177.772 761.314C179.858 761.314 180.919 762.419 180.954 764.628V771H179.328V764.725C179.328 764.045 179.173 763.538 178.862 763.204C178.552 762.864 178.03 762.694 177.298 762.694C176.694 762.694 176.193 762.876 175.795 763.239C175.396 763.597 175.165 764.08 175.101 764.689V771H173.466V764.769C173.466 763.386 172.789 762.694 171.436 762.694C170.369 762.694 169.64 763.148 169.247 764.057V771H167.621V761.49H169.159ZM189.286 771C189.192 770.812 189.116 770.479 189.058 769.998C188.302 770.783 187.399 771.176 186.351 771.176C185.413 771.176 184.643 770.912 184.039 770.385C183.441 769.852 183.143 769.178 183.143 768.363C183.143 767.373 183.518 766.605 184.268 766.061C185.023 765.51 186.084 765.234 187.449 765.234H189.031V764.487C189.031 763.919 188.861 763.468 188.521 763.134C188.182 762.794 187.681 762.624 187.019 762.624C186.438 762.624 185.952 762.771 185.56 763.063C185.167 763.356 184.971 763.711 184.971 764.127H183.336C183.336 763.652 183.503 763.195 183.837 762.756C184.177 762.311 184.634 761.959 185.208 761.701C185.788 761.443 186.424 761.314 187.115 761.314C188.211 761.314 189.069 761.59 189.69 762.141C190.312 762.686 190.634 763.438 190.657 764.399V768.776C190.657 769.649 190.769 770.344 190.991 770.859V771H189.286ZM186.588 769.761C187.098 769.761 187.581 769.629 188.038 769.365C188.495 769.102 188.826 768.759 189.031 768.337V766.386H187.757C185.765 766.386 184.769 766.969 184.769 768.135C184.769 768.645 184.938 769.043 185.278 769.33C185.618 769.617 186.055 769.761 186.588 769.761ZM194.973 771H193.347V761.49H194.973V771ZM193.215 758.968C193.215 758.704 193.294 758.481 193.452 758.3C193.616 758.118 193.856 758.027 194.173 758.027C194.489 758.027 194.729 758.118 194.894 758.3C195.058 758.481 195.14 758.704 195.14 758.968C195.14 759.231 195.058 759.451 194.894 759.627C194.729 759.803 194.489 759.891 194.173 759.891C193.856 759.891 193.616 759.803 193.452 759.627C193.294 759.451 193.215 759.231 193.215 758.968ZM199.35 771H197.724V757.5H199.35V771ZM101.712 787.157C101.712 786.226 101.894 785.388 102.257 784.644C102.626 783.899 103.136 783.325 103.786 782.921C104.442 782.517 105.189 782.314 106.027 782.314C107.322 782.314 108.368 782.763 109.165 783.659C109.968 784.556 110.369 785.748 110.369 787.236V787.351C110.369 788.276 110.19 789.108 109.833 789.847C109.481 790.579 108.975 791.15 108.312 791.561C107.656 791.971 106.9 792.176 106.045 792.176C104.756 792.176 103.71 791.728 102.907 790.831C102.11 789.935 101.712 788.748 101.712 787.271V787.157ZM103.347 787.351C103.347 788.405 103.59 789.252 104.076 789.891C104.568 790.529 105.225 790.849 106.045 790.849C106.871 790.849 107.527 790.526 108.014 789.882C108.5 789.231 108.743 788.323 108.743 787.157C108.743 786.114 108.494 785.271 107.996 784.626C107.504 783.976 106.848 783.65 106.027 783.65C105.225 783.65 104.577 783.97 104.085 784.608C103.593 785.247 103.347 786.161 103.347 787.351ZM117.005 783.949C116.759 783.908 116.492 783.888 116.205 783.888C115.139 783.888 114.415 784.342 114.034 785.25V792H112.408V782.49H113.99L114.017 783.589C114.55 782.739 115.306 782.314 116.284 782.314C116.601 782.314 116.841 782.355 117.005 782.438V783.949ZM131.006 787.351C131.006 788.798 130.675 789.964 130.013 790.849C129.351 791.733 128.454 792.176 127.323 792.176C126.169 792.176 125.261 791.81 124.599 791.077V795.656H122.973V782.49H124.458L124.537 783.545C125.199 782.725 126.119 782.314 127.297 782.314C128.439 782.314 129.342 782.745 130.004 783.606C130.672 784.468 131.006 785.666 131.006 787.201V787.351ZM129.38 787.166C129.38 786.094 129.151 785.247 128.694 784.626C128.237 784.005 127.61 783.694 126.813 783.694C125.829 783.694 125.091 784.131 124.599 785.004V789.548C125.085 790.415 125.829 790.849 126.831 790.849C127.61 790.849 128.229 790.541 128.686 789.926C129.148 789.305 129.38 788.385 129.38 787.166ZM138.951 792C138.857 791.812 138.781 791.479 138.723 790.998C137.967 791.783 137.064 792.176 136.016 792.176C135.078 792.176 134.308 791.912 133.704 791.385C133.106 790.852 132.808 790.178 132.808 789.363C132.808 788.373 133.183 787.605 133.933 787.061C134.688 786.51 135.749 786.234 137.114 786.234H138.696V785.487C138.696 784.919 138.526 784.468 138.187 784.134C137.847 783.794 137.346 783.624 136.684 783.624C136.104 783.624 135.617 783.771 135.225 784.063C134.832 784.356 134.636 784.711 134.636 785.127H133.001C133.001 784.652 133.168 784.195 133.502 783.756C133.842 783.311 134.299 782.959 134.873 782.701C135.453 782.443 136.089 782.314 136.78 782.314C137.876 782.314 138.734 782.59 139.355 783.141C139.977 783.686 140.299 784.438 140.322 785.399V789.776C140.322 790.649 140.434 791.344 140.656 791.859V792H138.951ZM136.253 790.761C136.763 790.761 137.246 790.629 137.703 790.365C138.16 790.102 138.491 789.759 138.696 789.337V787.386H137.422C135.43 787.386 134.434 787.969 134.434 789.135C134.434 789.645 134.604 790.043 134.943 790.33C135.283 790.617 135.72 790.761 136.253 790.761ZM148.408 789.478C148.408 789.038 148.241 788.698 147.907 788.458C147.579 788.212 147.002 788.001 146.176 787.825C145.355 787.649 144.702 787.438 144.216 787.192C143.735 786.946 143.378 786.653 143.144 786.313C142.915 785.974 142.801 785.569 142.801 785.101C142.801 784.321 143.129 783.662 143.785 783.123C144.447 782.584 145.291 782.314 146.316 782.314C147.395 782.314 148.268 782.593 148.936 783.149C149.609 783.706 149.946 784.418 149.946 785.285H148.312C148.312 784.84 148.121 784.456 147.74 784.134C147.365 783.812 146.891 783.65 146.316 783.65C145.725 783.65 145.262 783.779 144.928 784.037C144.594 784.295 144.427 784.632 144.427 785.048C144.427 785.44 144.582 785.736 144.893 785.936C145.203 786.135 145.763 786.325 146.571 786.507C147.386 786.688 148.045 786.905 148.549 787.157C149.053 787.409 149.425 787.714 149.665 788.071C149.911 788.423 150.034 788.854 150.034 789.363C150.034 790.213 149.694 790.896 149.015 791.411C148.335 791.921 147.453 792.176 146.369 792.176C145.607 792.176 144.934 792.041 144.348 791.771C143.762 791.502 143.302 791.127 142.968 790.646C142.64 790.16 142.476 789.636 142.476 789.073H144.102C144.131 789.618 144.348 790.052 144.752 790.374C145.162 790.69 145.701 790.849 146.369 790.849C146.984 790.849 147.477 790.726 147.846 790.479C148.221 790.228 148.408 789.894 148.408 789.478ZM157.689 789.478C157.689 789.038 157.522 788.698 157.188 788.458C156.86 788.212 156.283 788.001 155.457 787.825C154.637 787.649 153.983 787.438 153.497 787.192C153.017 786.946 152.659 786.653 152.425 786.313C152.196 785.974 152.082 785.569 152.082 785.101C152.082 784.321 152.41 783.662 153.066 783.123C153.729 782.584 154.572 782.314 155.598 782.314C156.676 782.314 157.549 782.593 158.217 783.149C158.891 783.706 159.228 784.418 159.228 785.285H157.593C157.593 784.84 157.402 784.456 157.021 784.134C156.646 783.812 156.172 783.65 155.598 783.65C155.006 783.65 154.543 783.779 154.209 784.037C153.875 784.295 153.708 784.632 153.708 785.048C153.708 785.44 153.863 785.736 154.174 785.936C154.484 786.135 155.044 786.325 155.853 786.507C156.667 786.688 157.326 786.905 157.83 787.157C158.334 787.409 158.706 787.714 158.946 788.071C159.192 788.423 159.315 788.854 159.315 789.363C159.315 790.213 158.976 790.896 158.296 791.411C157.616 791.921 156.734 792.176 155.65 792.176C154.889 792.176 154.215 792.041 153.629 791.771C153.043 791.502 152.583 791.127 152.249 790.646C151.921 790.16 151.757 789.636 151.757 789.073H153.383C153.412 789.618 153.629 790.052 154.033 790.374C154.443 790.69 154.982 790.849 155.65 790.849C156.266 790.849 156.758 790.726 157.127 790.479C157.502 790.228 157.689 789.894 157.689 789.478ZM169.854 789.759L171.682 782.49H173.308L170.539 792H169.221L166.909 784.793L164.659 792H163.341L160.581 782.49H162.198L164.07 789.609L166.285 782.49H167.595L169.854 789.759ZM174.538 787.157C174.538 786.226 174.72 785.388 175.083 784.644C175.452 783.899 175.962 783.325 176.612 782.921C177.269 782.517 178.016 782.314 178.854 782.314C180.148 782.314 181.194 782.763 181.991 783.659C182.794 784.556 183.195 785.748 183.195 787.236V787.351C183.195 788.276 183.017 789.108 182.659 789.847C182.308 790.579 181.801 791.15 181.139 791.561C180.482 791.971 179.727 792.176 178.871 792.176C177.582 792.176 176.536 791.728 175.733 790.831C174.937 789.935 174.538 788.748 174.538 787.271V787.157ZM176.173 787.351C176.173 788.405 176.416 789.252 176.902 789.891C177.395 790.529 178.051 790.849 178.871 790.849C179.697 790.849 180.354 790.526 180.84 789.882C181.326 789.231 181.569 788.323 181.569 787.157C181.569 786.114 181.32 785.271 180.822 784.626C180.33 783.976 179.674 783.65 178.854 783.65C178.051 783.65 177.403 783.97 176.911 784.608C176.419 785.247 176.173 786.161 176.173 787.351ZM189.831 783.949C189.585 783.908 189.318 783.888 189.031 783.888C187.965 783.888 187.241 784.342 186.86 785.25V792H185.234V782.49H186.816L186.843 783.589C187.376 782.739 188.132 782.314 189.11 782.314C189.427 782.314 189.667 782.355 189.831 782.438V783.949ZM190.763 787.166C190.763 785.707 191.108 784.535 191.8 783.65C192.491 782.76 193.396 782.314 194.516 782.314C195.629 782.314 196.511 782.695 197.161 783.457V778.5H198.787V792H197.293L197.214 790.98C196.563 791.777 195.658 792.176 194.498 792.176C193.396 792.176 192.497 791.725 191.8 790.822C191.108 789.92 190.763 788.742 190.763 787.289V787.166ZM192.389 787.351C192.389 788.429 192.611 789.272 193.057 789.882C193.502 790.491 194.117 790.796 194.902 790.796C195.934 790.796 196.687 790.333 197.161 789.407V785.039C196.675 784.143 195.928 783.694 194.92 783.694C194.123 783.694 193.502 784.002 193.057 784.617C192.611 785.232 192.389 786.144 192.389 787.351Z" fill="black"/>
<ellipse cx="304" cy="1093" rx="75" ry="56" fill="#C4C4C4"/>
<path d="M295.558 1073.08H290.012V1077.62H296.454V1079H288.324V1066.2H296.366V1067.59H290.012V1071.71H295.558V1073.08ZM299.838 1069.49L299.891 1070.69C300.617 1069.77 301.566 1069.31 302.738 1069.31C304.748 1069.31 305.762 1070.45 305.779 1072.72V1079H304.153V1072.71C304.147 1072.02 303.989 1071.51 303.679 1071.19C303.374 1070.86 302.896 1070.69 302.246 1070.69C301.719 1070.69 301.256 1070.83 300.857 1071.12C300.459 1071.4 300.148 1071.77 299.926 1072.22V1079H298.3V1069.49H299.838ZM307.836 1074.17C307.836 1072.71 308.182 1071.54 308.873 1070.65C309.564 1069.76 310.47 1069.31 311.589 1069.31C312.702 1069.31 313.584 1069.7 314.234 1070.46V1065.5H315.86V1079H314.366L314.287 1077.98C313.637 1078.78 312.731 1079.18 311.571 1079.18C310.47 1079.18 309.57 1078.72 308.873 1077.82C308.182 1076.92 307.836 1075.74 307.836 1074.29V1074.17ZM309.462 1074.35C309.462 1075.43 309.685 1076.27 310.13 1076.88C310.575 1077.49 311.19 1077.8 311.976 1077.8C313.007 1077.8 313.76 1077.33 314.234 1076.41V1072.04C313.748 1071.14 313.001 1070.69 311.993 1070.69C311.196 1070.69 310.575 1071 310.13 1071.62C309.685 1072.23 309.462 1073.14 309.462 1074.35ZM248.343 1087.2V1095.9C248.337 1097.11 247.956 1098.1 247.2 1098.87C246.45 1099.63 245.431 1100.06 244.142 1100.16L243.693 1100.18C242.293 1100.18 241.177 1099.8 240.345 1099.04C239.513 1098.29 239.091 1097.25 239.079 1095.92V1087.2H240.749V1095.87C240.749 1096.79 241.004 1097.52 241.514 1098.03C242.023 1098.54 242.75 1098.8 243.693 1098.8C244.648 1098.8 245.378 1098.54 245.882 1098.03C246.392 1097.52 246.646 1096.8 246.646 1095.88V1087.2H248.343ZM256.288 1097.48C256.288 1097.04 256.121 1096.7 255.787 1096.46C255.459 1096.21 254.882 1096 254.056 1095.83C253.235 1095.65 252.582 1095.44 252.096 1095.19C251.615 1094.95 251.258 1094.65 251.023 1094.31C250.795 1093.97 250.681 1093.57 250.681 1093.1C250.681 1092.32 251.009 1091.66 251.665 1091.12C252.327 1090.58 253.171 1090.31 254.196 1090.31C255.274 1090.31 256.147 1090.59 256.815 1091.15C257.489 1091.71 257.826 1092.42 257.826 1093.29H256.191C256.191 1092.84 256.001 1092.46 255.62 1092.13C255.245 1091.81 254.771 1091.65 254.196 1091.65C253.604 1091.65 253.142 1091.78 252.808 1092.04C252.474 1092.29 252.307 1092.63 252.307 1093.05C252.307 1093.44 252.462 1093.74 252.772 1093.94C253.083 1094.13 253.643 1094.33 254.451 1094.51C255.266 1094.69 255.925 1094.91 256.429 1095.16C256.933 1095.41 257.305 1095.71 257.545 1096.07C257.791 1096.42 257.914 1096.85 257.914 1097.36C257.914 1098.21 257.574 1098.9 256.895 1099.41C256.215 1099.92 255.333 1100.18 254.249 1100.18C253.487 1100.18 252.813 1100.04 252.228 1099.77C251.642 1099.5 251.182 1099.13 250.848 1098.65C250.52 1098.16 250.355 1097.64 250.355 1097.07H251.981C252.011 1097.62 252.228 1098.05 252.632 1098.37C253.042 1098.69 253.581 1098.85 254.249 1098.85C254.864 1098.85 255.356 1098.73 255.726 1098.48C256.101 1098.23 256.288 1097.89 256.288 1097.48ZM263.979 1100.18C262.689 1100.18 261.641 1099.75 260.832 1098.91C260.023 1098.06 259.619 1096.93 259.619 1095.51V1095.21C259.619 1094.27 259.798 1093.43 260.155 1092.69C260.519 1091.94 261.022 1091.36 261.667 1090.95C262.317 1090.53 263.021 1090.31 263.776 1090.31C265.013 1090.31 265.974 1090.72 266.659 1091.54C267.345 1092.35 267.688 1093.52 267.688 1095.03V1095.71H261.245C261.269 1096.65 261.541 1097.41 262.062 1097.99C262.59 1098.56 263.258 1098.85 264.066 1098.85C264.641 1098.85 265.127 1098.73 265.525 1098.5C265.924 1098.26 266.272 1097.95 266.571 1097.57L267.564 1098.34C266.768 1099.56 265.572 1100.18 263.979 1100.18ZM263.776 1091.65C263.12 1091.65 262.569 1091.89 262.124 1092.37C261.679 1092.85 261.403 1093.51 261.298 1094.38H266.062V1094.25C266.015 1093.43 265.792 1092.79 265.394 1092.34C264.995 1091.88 264.456 1091.65 263.776 1091.65ZM274.174 1091.95C273.928 1091.91 273.661 1091.89 273.374 1091.89C272.308 1091.89 271.584 1092.34 271.203 1093.25V1100H269.577V1090.49H271.159L271.186 1091.59C271.719 1090.74 272.475 1090.31 273.453 1090.31C273.77 1090.31 274.01 1090.36 274.174 1090.44V1091.95ZM281.908 1100H280.282V1086.5H281.908V1100ZM284.088 1095.16C284.088 1094.23 284.27 1093.39 284.633 1092.64C285.002 1091.9 285.512 1091.33 286.162 1090.92C286.818 1090.52 287.565 1090.31 288.403 1090.31C289.698 1090.31 290.744 1090.76 291.541 1091.66C292.344 1092.56 292.745 1093.75 292.745 1095.24V1095.35C292.745 1096.28 292.566 1097.11 292.209 1097.85C291.857 1098.58 291.351 1099.15 290.688 1099.56C290.032 1099.97 289.276 1100.18 288.421 1100.18C287.132 1100.18 286.086 1099.73 285.283 1098.83C284.486 1097.93 284.088 1096.75 284.088 1095.27V1095.16ZM285.723 1095.35C285.723 1096.41 285.966 1097.25 286.452 1097.89C286.944 1098.53 287.601 1098.85 288.421 1098.85C289.247 1098.85 289.903 1098.53 290.39 1097.88C290.876 1097.23 291.119 1096.32 291.119 1095.16C291.119 1094.11 290.87 1093.27 290.372 1092.63C289.88 1091.98 289.224 1091.65 288.403 1091.65C287.601 1091.65 286.953 1091.97 286.461 1092.61C285.969 1093.25 285.723 1094.16 285.723 1095.35ZM294.397 1095.17C294.397 1093.68 294.74 1092.51 295.426 1091.63C296.111 1090.75 297.02 1090.31 298.15 1090.31C299.311 1090.31 300.216 1090.72 300.866 1091.54L300.945 1090.49H302.431V1099.77C302.431 1101 302.064 1101.97 301.332 1102.68C300.605 1103.39 299.627 1103.74 298.396 1103.74C297.711 1103.74 297.04 1103.6 296.384 1103.3C295.728 1103.01 295.227 1102.61 294.881 1102.1L295.725 1101.12C296.422 1101.99 297.274 1102.42 298.282 1102.42C299.073 1102.42 299.688 1102.19 300.128 1101.75C300.573 1101.3 300.796 1100.68 300.796 1099.87V1099.05C300.146 1099.8 299.258 1100.18 298.133 1100.18C297.02 1100.18 296.117 1099.73 295.426 1098.83C294.74 1097.93 294.397 1096.71 294.397 1095.17ZM296.032 1095.35C296.032 1096.42 296.252 1097.27 296.691 1097.88C297.131 1098.49 297.746 1098.8 298.537 1098.8C299.562 1098.8 300.315 1098.33 300.796 1097.4V1093.06C300.298 1092.15 299.551 1091.69 298.555 1091.69C297.764 1091.69 297.146 1092 296.7 1092.62C296.255 1093.23 296.032 1094.14 296.032 1095.35ZM304.505 1095.17C304.505 1093.68 304.848 1092.51 305.533 1091.63C306.219 1090.75 307.127 1090.31 308.258 1090.31C309.418 1090.31 310.323 1090.72 310.974 1091.54L311.053 1090.49H312.538V1099.77C312.538 1101 312.172 1101.97 311.439 1102.68C310.713 1103.39 309.734 1103.74 308.504 1103.74C307.818 1103.74 307.147 1103.6 306.491 1103.3C305.835 1103.01 305.334 1102.61 304.988 1102.1L305.832 1101.12C306.529 1101.99 307.382 1102.42 308.39 1102.42C309.181 1102.42 309.796 1102.19 310.235 1101.75C310.681 1101.3 310.903 1100.68 310.903 1099.87V1099.05C310.253 1099.8 309.365 1100.18 308.24 1100.18C307.127 1100.18 306.225 1099.73 305.533 1098.83C304.848 1097.93 304.505 1096.71 304.505 1095.17ZM306.14 1095.35C306.14 1096.42 306.359 1097.27 306.799 1097.88C307.238 1098.49 307.854 1098.8 308.645 1098.8C309.67 1098.8 310.423 1098.33 310.903 1097.4V1093.06C310.405 1092.15 309.658 1091.69 308.662 1091.69C307.871 1091.69 307.253 1092 306.808 1092.62C306.362 1093.23 306.14 1094.14 306.14 1095.35ZM318.945 1100.18C317.656 1100.18 316.607 1099.75 315.799 1098.91C314.99 1098.06 314.586 1096.93 314.586 1095.51V1095.21C314.586 1094.27 314.765 1093.43 315.122 1092.69C315.485 1091.94 315.989 1091.36 316.634 1090.95C317.284 1090.53 317.987 1090.31 318.743 1090.31C319.979 1090.31 320.94 1090.72 321.626 1091.54C322.312 1092.35 322.654 1093.52 322.654 1095.03V1095.71H316.212C316.235 1096.65 316.508 1097.41 317.029 1097.99C317.557 1098.56 318.225 1098.85 319.033 1098.85C319.607 1098.85 320.094 1098.73 320.492 1098.5C320.891 1098.26 321.239 1097.95 321.538 1097.57L322.531 1098.34C321.734 1099.56 320.539 1100.18 318.945 1100.18ZM318.743 1091.65C318.087 1091.65 317.536 1091.89 317.091 1092.37C316.646 1092.85 316.37 1093.51 316.265 1094.38H321.028V1094.25C320.981 1093.43 320.759 1092.79 320.36 1092.34C319.962 1091.88 319.423 1091.65 318.743 1091.65ZM324.148 1095.17C324.148 1093.71 324.494 1092.54 325.186 1091.65C325.877 1090.76 326.782 1090.31 327.901 1090.31C329.015 1090.31 329.896 1090.7 330.547 1091.46V1086.5H332.173V1100H330.679L330.6 1098.98C329.949 1099.78 329.044 1100.18 327.884 1100.18C326.782 1100.18 325.883 1099.72 325.186 1098.82C324.494 1097.92 324.148 1096.74 324.148 1095.29V1095.17ZM325.774 1095.35C325.774 1096.43 325.997 1097.27 326.442 1097.88C326.888 1098.49 327.503 1098.8 328.288 1098.8C329.319 1098.8 330.072 1098.33 330.547 1097.41V1093.04C330.061 1092.14 329.313 1091.69 328.306 1091.69C327.509 1091.69 326.888 1092 326.442 1092.62C325.997 1093.23 325.774 1094.14 325.774 1095.35ZM340.936 1100H339.31V1090.49H340.936V1100ZM339.178 1087.97C339.178 1087.7 339.257 1087.48 339.415 1087.3C339.579 1087.12 339.819 1087.03 340.136 1087.03C340.452 1087.03 340.692 1087.12 340.856 1087.3C341.021 1087.48 341.103 1087.7 341.103 1087.97C341.103 1088.23 341.021 1088.45 340.856 1088.63C340.692 1088.8 340.452 1088.89 340.136 1088.89C339.819 1088.89 339.579 1088.8 339.415 1088.63C339.257 1088.45 339.178 1088.23 339.178 1087.97ZM345.084 1090.49L345.137 1091.69C345.863 1090.77 346.812 1090.31 347.984 1090.31C349.994 1090.31 351.008 1091.45 351.025 1093.72V1100H349.399V1093.71C349.394 1093.02 349.235 1092.51 348.925 1092.19C348.62 1091.86 348.143 1091.69 347.492 1091.69C346.965 1091.69 346.502 1091.83 346.104 1092.12C345.705 1092.4 345.395 1092.77 345.172 1093.22V1100H343.546V1090.49H345.084ZM361.326 1095.23H357.037V1093.9H361.326V1095.23ZM259.962 1121V1108.2H263.574C264.688 1108.2 265.672 1108.45 266.527 1108.94C267.383 1109.43 268.042 1110.13 268.505 1111.04C268.974 1111.95 269.211 1112.99 269.217 1114.17V1114.99C269.217 1116.2 268.982 1117.25 268.514 1118.16C268.051 1119.07 267.386 1119.77 266.519 1120.25C265.657 1120.74 264.652 1120.99 263.504 1121H259.962ZM261.649 1109.59V1119.62H263.425C264.726 1119.62 265.736 1119.22 266.457 1118.41C267.184 1117.6 267.547 1116.45 267.547 1114.95V1114.21C267.547 1112.75 267.204 1111.62 266.519 1110.82C265.839 1110.01 264.872 1109.6 263.618 1109.59H261.649ZM277.391 1121C277.297 1120.81 277.221 1120.48 277.162 1120C276.406 1120.78 275.504 1121.18 274.455 1121.18C273.518 1121.18 272.747 1120.91 272.144 1120.38C271.546 1119.85 271.247 1119.18 271.247 1118.36C271.247 1117.37 271.622 1116.61 272.372 1116.06C273.128 1115.51 274.188 1115.23 275.554 1115.23H277.136V1114.49C277.136 1113.92 276.966 1113.47 276.626 1113.13C276.286 1112.79 275.785 1112.62 275.123 1112.62C274.543 1112.62 274.057 1112.77 273.664 1113.06C273.271 1113.36 273.075 1113.71 273.075 1114.13H271.44C271.44 1113.65 271.607 1113.2 271.941 1112.76C272.281 1112.31 272.738 1111.96 273.312 1111.7C273.893 1111.44 274.528 1111.31 275.22 1111.31C276.315 1111.31 277.174 1111.59 277.795 1112.14C278.416 1112.69 278.738 1113.44 278.762 1114.4V1118.78C278.762 1119.65 278.873 1120.34 279.096 1120.86V1121H277.391ZM274.692 1119.76C275.202 1119.76 275.686 1119.63 276.143 1119.37C276.6 1119.1 276.931 1118.76 277.136 1118.34V1116.39H275.861C273.869 1116.39 272.873 1116.97 272.873 1118.13C272.873 1118.64 273.043 1119.04 273.383 1119.33C273.723 1119.62 274.159 1119.76 274.692 1119.76ZM286.848 1118.48C286.848 1118.04 286.681 1117.7 286.347 1117.46C286.019 1117.21 285.441 1117 284.615 1116.83C283.795 1116.65 283.142 1116.44 282.655 1116.19C282.175 1115.95 281.817 1115.65 281.583 1115.31C281.354 1114.97 281.24 1114.57 281.24 1114.1C281.24 1113.32 281.568 1112.66 282.225 1112.12C282.887 1111.58 283.73 1111.31 284.756 1111.31C285.834 1111.31 286.707 1111.59 287.375 1112.15C288.049 1112.71 288.386 1113.42 288.386 1114.29H286.751C286.751 1113.84 286.561 1113.46 286.18 1113.13C285.805 1112.81 285.33 1112.65 284.756 1112.65C284.164 1112.65 283.701 1112.78 283.367 1113.04C283.033 1113.29 282.866 1113.63 282.866 1114.05C282.866 1114.44 283.021 1114.74 283.332 1114.94C283.643 1115.13 284.202 1115.33 285.011 1115.51C285.825 1115.69 286.484 1115.91 286.988 1116.16C287.492 1116.41 287.864 1116.71 288.104 1117.07C288.351 1117.42 288.474 1117.85 288.474 1118.36C288.474 1119.21 288.134 1119.9 287.454 1120.41C286.774 1120.92 285.893 1121.18 284.809 1121.18C284.047 1121.18 283.373 1121.04 282.787 1120.77C282.201 1120.5 281.741 1120.13 281.407 1119.65C281.079 1119.16 280.915 1118.64 280.915 1118.07H282.541C282.57 1118.62 282.787 1119.05 283.191 1119.37C283.602 1119.69 284.141 1119.85 284.809 1119.85C285.424 1119.85 285.916 1119.73 286.285 1119.48C286.66 1119.23 286.848 1118.89 286.848 1118.48ZM292.218 1112.64C292.938 1111.76 293.876 1111.31 295.03 1111.31C297.04 1111.31 298.054 1112.45 298.071 1114.72V1121H296.445V1114.71C296.439 1114.02 296.281 1113.51 295.971 1113.19C295.666 1112.86 295.188 1112.69 294.538 1112.69C294.011 1112.69 293.548 1112.83 293.149 1113.12C292.751 1113.4 292.44 1113.77 292.218 1114.22V1121H290.592V1107.5H292.218V1112.64ZM308.557 1116.35C308.557 1117.8 308.223 1118.97 307.555 1119.86C306.887 1120.74 305.99 1121.18 304.865 1121.18C303.664 1121.18 302.735 1120.75 302.079 1119.9L302 1121H300.506V1107.5H302.132V1112.54C302.788 1111.72 303.693 1111.31 304.848 1111.31C306.002 1111.31 306.907 1111.75 307.563 1112.62C308.226 1113.5 308.557 1114.69 308.557 1116.21V1116.35ZM306.931 1116.17C306.931 1115.06 306.717 1114.2 306.289 1113.6C305.861 1113 305.246 1112.69 304.443 1112.69C303.371 1112.69 302.601 1113.19 302.132 1114.19V1118.3C302.63 1119.3 303.406 1119.8 304.461 1119.8C305.24 1119.8 305.847 1119.49 306.28 1118.89C306.714 1118.29 306.931 1117.38 306.931 1116.17ZM310.183 1116.16C310.183 1115.23 310.364 1114.39 310.728 1113.64C311.097 1112.9 311.606 1112.33 312.257 1111.92C312.913 1111.52 313.66 1111.31 314.498 1111.31C315.793 1111.31 316.839 1111.76 317.636 1112.66C318.438 1113.56 318.84 1114.75 318.84 1116.24V1116.35C318.84 1117.28 318.661 1118.11 318.304 1118.85C317.952 1119.58 317.445 1120.15 316.783 1120.56C316.127 1120.97 315.371 1121.18 314.516 1121.18C313.227 1121.18 312.181 1120.73 311.378 1119.83C310.581 1118.93 310.183 1117.75 310.183 1116.27V1116.16ZM311.817 1116.35C311.817 1117.41 312.061 1118.25 312.547 1118.89C313.039 1119.53 313.695 1119.85 314.516 1119.85C315.342 1119.85 315.998 1119.53 316.484 1118.88C316.971 1118.23 317.214 1117.32 317.214 1116.16C317.214 1115.11 316.965 1114.27 316.467 1113.63C315.975 1112.98 315.318 1112.65 314.498 1112.65C313.695 1112.65 313.048 1112.97 312.556 1113.61C312.063 1114.25 311.817 1115.16 311.817 1116.35ZM326.75 1121C326.656 1120.81 326.58 1120.48 326.521 1120C325.766 1120.78 324.863 1121.18 323.814 1121.18C322.877 1121.18 322.106 1120.91 321.503 1120.38C320.905 1119.85 320.606 1119.18 320.606 1118.36C320.606 1117.37 320.981 1116.61 321.731 1116.06C322.487 1115.51 323.548 1115.23 324.913 1115.23H326.495V1114.49C326.495 1113.92 326.325 1113.47 325.985 1113.13C325.646 1112.79 325.145 1112.62 324.482 1112.62C323.902 1112.62 323.416 1112.77 323.023 1113.06C322.631 1113.36 322.435 1113.71 322.435 1114.13H320.8C320.8 1113.65 320.967 1113.2 321.301 1112.76C321.641 1112.31 322.098 1111.96 322.672 1111.7C323.252 1111.44 323.888 1111.31 324.579 1111.31C325.675 1111.31 326.533 1111.59 327.154 1112.14C327.775 1112.69 328.098 1113.44 328.121 1114.4V1118.78C328.121 1119.65 328.232 1120.34 328.455 1120.86V1121H326.75ZM324.052 1119.76C324.562 1119.76 325.045 1119.63 325.502 1119.37C325.959 1119.1 326.29 1118.76 326.495 1118.34V1116.39H325.221C323.229 1116.39 322.232 1116.97 322.232 1118.13C322.232 1118.64 322.402 1119.04 322.742 1119.33C323.082 1119.62 323.519 1119.76 324.052 1119.76ZM335.267 1112.95C335.021 1112.91 334.754 1112.89 334.467 1112.89C333.4 1112.89 332.677 1113.34 332.296 1114.25V1121H330.67V1111.49H332.252L332.278 1112.59C332.812 1111.74 333.567 1111.31 334.546 1111.31C334.862 1111.31 335.103 1111.36 335.267 1111.44V1112.95ZM336.198 1116.17C336.198 1114.71 336.544 1113.54 337.235 1112.65C337.927 1111.76 338.832 1111.31 339.951 1111.31C341.064 1111.31 341.946 1111.7 342.597 1112.46V1107.5H344.223V1121H342.729L342.649 1119.98C341.999 1120.78 341.094 1121.18 339.934 1121.18C338.832 1121.18 337.933 1120.72 337.235 1119.82C336.544 1118.92 336.198 1117.74 336.198 1116.29V1116.17ZM337.824 1116.35C337.824 1117.43 338.047 1118.27 338.492 1118.88C338.938 1119.49 339.553 1119.8 340.338 1119.8C341.369 1119.8 342.122 1119.33 342.597 1118.41V1114.04C342.11 1113.14 341.363 1112.69 340.355 1112.69C339.559 1112.69 338.938 1113 338.492 1113.62C338.047 1114.23 337.824 1115.14 337.824 1116.35Z" fill="black"/>
</svg>
